<?plantuml 1.2026.2?><svg xmlns="http://www.w3.org/2000/svg" xmlns:xlink="http://www.w3.org/1999/xlink" contentStyleType="text/css" data-diagram-type="CLASS" height="962px" preserveAspectRatio="none" style="width:760px;height:962px;background:#FFFFFF;" version="1.1" viewBox="0 0 760 962" width="760px" zoomAndPan="magnify"><defs/><g><!--cluster TplQueue--><g class="cluster" data-qualified-name="TplQueue" data-source-line="8" id="ent0004"><path d="M8.5,6 L74.0586,6 A3.75,3.75 0 0 1 76.5586,8.5 L83.5586,29.6094 L750.5,29.6094 A2.5,2.5 0 0 1 753,32.1094 L753,952.5 A2.5,2.5 0 0 1 750.5,955 L8.5,955 A2.5,2.5 0 0 1 6,952.5 L6,8.5 A2.5,2.5 0 0 1 8.5,6" fill="none" style="stroke:#000000;stroke-width:1.5;"/><line style="stroke:#000000;stroke-width:1.5;" x1="6" x2="83.5586" y1="29.6094" y2="29.6094"/><text fill="#000000" font-family="sans-serif" font-size="14" font-weight="bold" lengthAdjust="spacing" textLength="64.5586" x="10" y="22.5332">TplQueue</text></g><!--cluster Abstractions--><g class="cluster" data-qualified-name="TplQueue.Abstractions" data-source-line="7" id="ent0002"><path d="M184.5,713 L271.0723,713 A3.75,3.75 0 0 1 273.5723,715.5 L280.5723,736.6094 L720.5,736.6094 A2.5,2.5 0 0 1 723,739.1094 L723,928.5 A2.5,2.5 0 0 1 720.5,931 L184.5,931 A2.5,2.5 0 0 1 182,928.5 L182,715.5 A2.5,2.5 0 0 1 184.5,713" fill="none" style="stroke:#000000;stroke-width:1.5;"/><line style="stroke:#000000;stroke-width:1.5;" x1="182" x2="280.5723" y1="736.6094" y2="736.6094"/><text fill="#000000" font-family="sans-serif" font-size="14" font-weight="bold" lengthAdjust="spacing" textLength="85.5723" x="186" y="729.5332">Abstractions</text><text fill="#000000" font-family="sans-serif" font-size="14" font-style="italic" lengthAdjust="spacing" textLength="66.9307" x="423.0347" y="753.1426">&#171;External&#187;</text></g><!--cluster Core--><g class="cluster" data-qualified-name="TplQueue.Core" data-source-line="17" id="ent0011"><path d="M32.5,50 L65.3965,50 A3.75,3.75 0 0 1 67.8965,52.5 L74.8965,73.6094 L726.5,73.6094 A2.5,2.5 0 0 1 729,76.1094 L729,686.5 A2.5,2.5 0 0 1 726.5,689 L32.5,689 A2.5,2.5 0 0 1 30,686.5 L30,52.5 A2.5,2.5 0 0 1 32.5,50" fill="none" style="stroke:#000000;stroke-width:1.5;"/><line style="stroke:#000000;stroke-width:1.5;" x1="30" x2="74.8965" y1="73.6094" y2="73.6094"/><text fill="#000000" font-family="sans-serif" font-size="14" font-weight="bold" lengthAdjust="spacing" textLength="31.8965" x="34" y="66.5332">Core</text></g><!--class IQ--><g class="entity" data-qualified-name="TplQueue.Abstractions.IQ" data-source-line="8" id="ent0003"><rect fill="#F1F1F1" height="43.6094" rx="2.5" ry="2.5" style="stroke:#181818;stroke-width:0.5;" width="20.7793" x="618.5" y="767"/><text fill="#000000" font-family="sans-serif" font-size="14" font-style="italic" lengthAdjust="spacing" textLength="14.7793" x="621.5" y="786.5332">IQ</text><line style="stroke:#181818;stroke-width:0.5;" x1="619.5" x2="638.2793" y1="794.6094" y2="794.6094"/><line style="stroke:#181818;stroke-width:0.5;" x1="619.5" x2="638.2793" y1="802.6094" y2="802.6094"/></g><!--class IJob--><g class="entity" data-qualified-name="TplQueue.Abstractions.IJob" data-source-line="9" id="ent0005"><rect fill="#F1F1F1" height="43.6094" rx="2.5" ry="2.5" style="stroke:#181818;stroke-width:0.5;" width="32.4619" x="675" y="767"/><text fill="#000000" font-family="sans-serif" font-size="14" font-style="italic" lengthAdjust="spacing" textLength="26.4619" x="678" y="786.5332">IJob</text><line style="stroke:#181818;stroke-width:0.5;" x1="676" x2="706.4619" y1="794.6094" y2="794.6094"/><line style="stroke:#181818;stroke-width:0.5;" x1="676" x2="706.4619" y1="802.6094" y2="802.6094"/></g><!--class IJobNode--><g class="entity" data-qualified-name="TplQueue.Abstractions.IJobNode" data-source-line="10" id="ent0006"><rect fill="#F1F1F1" height="43.6094" rx="2.5" ry="2.5" style="stroke:#181818;stroke-width:0.5;" width="65.9307" x="293" y="767"/><text fill="#000000" font-family="sans-serif" font-size="14" font-style="italic" lengthAdjust="spacing" textLength="59.9307" x="296" y="786.5332">IJobNode</text><line style="stroke:#181818;stroke-width:0.5;" x1="294" x2="357.9307" y1="794.6094" y2="794.6094"/><line style="stroke:#181818;stroke-width:0.5;" x1="294" x2="357.9307" y1="802.6094" y2="802.6094"/></g><!--class IJobRoot--><g class="entity" data-qualified-name="TplQueue.Abstractions.IJobRoot" data-source-line="11" id="ent0007"><rect fill="#F1F1F1" height="43.6094" rx="2.5" ry="2.5" style="stroke:#181818;stroke-width:0.5;" width="62.0342" x="598" y="871"/><text fill="#000000" font-family="sans-serif" font-size="14" font-style="italic" lengthAdjust="spacing" textLength="56.0342" x="601" y="890.5332">IJobRoot</text><line style="stroke:#181818;stroke-width:0.5;" x1="599" x2="659.0342" y1="898.6094" y2="898.6094"/><line style="stroke:#181818;stroke-width:0.5;" x1="599" x2="659.0342" y1="906.6094" y2="906.6094"/></g><!--class IDataJob--><g class="entity" data-qualified-name="TplQueue.Abstractions.IDataJob" data-source-line="12" id="ent0008"><rect fill="#F1F1F1" height="43.6094" rx="2.5" ry="2.5" style="stroke:#181818;stroke-width:0.5;" width="62.0342" x="394" y="767"/><text fill="#000000" font-family="sans-serif" font-size="14" font-style="italic" lengthAdjust="spacing" textLength="56.0342" x="397" y="786.5332">IDataJob</text><line style="stroke:#181818;stroke-width:0.5;" x1="395" x2="455.0342" y1="794.6094" y2="794.6094"/><line style="stroke:#181818;stroke-width:0.5;" x1="395" x2="455.0342" y1="802.6094" y2="802.6094"/></g><!--class IDataJobRoot--><g class="entity" data-qualified-name="TplQueue.Abstractions.IDataJobRoot" data-source-line="13" id="ent0009"><rect fill="#F1F1F1" height="43.6094" rx="2.5" ry="2.5" style="stroke:#181818;stroke-width:0.5;" width="91.6064" x="491" y="767"/><text fill="#000000" font-family="sans-serif" font-size="14" font-style="italic" lengthAdjust="spacing" textLength="85.6064" x="494" y="786.5332">IDataJobRoot</text><line style="stroke:#181818;stroke-width:0.5;" x1="492" x2="581.6064" y1="794.6094" y2="794.6094"/><line style="stroke:#181818;stroke-width:0.5;" x1="492" x2="581.6064" y1="802.6094" y2="802.6094"/></g><!--class IPayload--><g class="entity" data-qualified-name="TplQueue.Abstractions.IPayload" data-source-line="14" id="ent0010"><rect fill="#F1F1F1" height="43.6094" rx="2.5" ry="2.5" style="stroke:#181818;stroke-width:0.5;" width="60.4824" x="198" y="767"/><text fill="#000000" font-family="sans-serif" font-size="14" font-style="italic" lengthAdjust="spacing" textLength="54.4824" x="201" y="786.5332">IPayload</text><line style="stroke:#181818;stroke-width:0.5;" x1="199" x2="257.4824" y1="794.6094" y2="794.6094"/><line style="stroke:#181818;stroke-width:0.5;" x1="199" x2="257.4824" y1="802.6094" y2="802.6094"/></g><!--class DataJobNodeBaseT--><g class="entity" data-qualified-name="TplQueue.Core.DataJobNodeBaseT" data-source-line="18" id="ent0012"><rect fill="#F1F1F1" height="431.0156" rx="2.5" ry="2.5" style="stroke:#181818;stroke-width:0.5;" width="351.6982" x="50" y="242"/><text fill="#000000" font-family="sans-serif" font-size="14" font-style="italic" lengthAdjust="spacing" textLength="117.5234" x="139.7397" y="261.5332">DataJobNodeBase</text><rect fill="#FFFFFF" height="17.0938" style="stroke:#181818;stroke-width:1;stroke-dasharray:2,2;" width="52.6953" x="352.0029" y="239"/><text fill="#000000" font-family="sans-serif" font-size="12" font-style="italic" lengthAdjust="spacing" textLength="50.6953" x="353.0029" y="252.457">TPayload</text><line style="stroke:#181818;stroke-width:0.5;" x1="51" x2="400.6982" y1="269.6094" y2="269.6094"/><text fill="#000000" font-family="sans-serif" font-size="14" lengthAdjust="spacing" textLength="61.0928" x="56" y="288.1426">+Id : Guid</text><text fill="#000000" font-family="sans-serif" font-size="14" lengthAdjust="spacing" textLength="91.4238" x="56" y="305.752">+Name : string</text><text fill="#000000" font-family="sans-serif" font-size="14" lengthAdjust="spacing" textLength="124.9063" x="56" y="323.3613">+IsCompleted : bool</text><text fill="#000000" font-family="sans-serif" font-size="14" lengthAdjust="spacing" textLength="171.5752" x="56" y="340.9707">+ExecutionStart : DateTime</text><text fill="#000000" font-family="sans-serif" font-size="14" lengthAdjust="spacing" textLength="166.9199" x="56" y="358.5801">+ExecutionEnd : DateTime</text><text fill="#000000" font-family="sans-serif" font-size="14" lengthAdjust="spacing" textLength="176.2441" x="56" y="376.1895">+ExecutionTime : TimeSpan</text><text fill="#000000" font-family="sans-serif" font-size="14" lengthAdjust="spacing" textLength="129.5615" x="56" y="393.7988">+Status : TaskStatus</text><text fill="#000000" font-family="sans-serif" font-size="14" lengthAdjust="spacing" textLength="303.1396" x="56" y="411.4082">+Dependencies : IReadOnlyCollection&lt;IJobInfo&gt;</text><text fill="#000000" font-family="sans-serif" font-size="14" lengthAdjust="spacing" textLength="129.582" x="56" y="429.0176">+Payload : TPayload</text><text fill="#000000" font-family="sans-serif" font-size="14" lengthAdjust="spacing" textLength="132.6855" x="56" y="446.627">+PayloadType : Type</text><text fill="#000000" font-family="sans-serif" font-size="14" lengthAdjust="spacing" textLength="139.6855" x="56" y="464.2363">+CrossQueueId : Guid</text><text fill="#000000" font-family="sans-serif" font-size="14" lengthAdjust="spacing" textLength="177.8232" x="56" y="481.8457">+PayloadHandlerKey : string</text><line style="stroke:#181818;stroke-width:0.5;" x1="51" x2="400.6982" y1="488.9219" y2="488.9219"/><text fill="#000000" font-family="sans-serif" font-size="14" lengthAdjust="spacing" textLength="135.0166" x="56" y="507.4551">+CopyInfo() : IJobInfo</text><text fill="#000000" font-family="sans-serif" font-size="14" lengthAdjust="spacing" textLength="166.1475" x="56" y="525.0645">+GetInnerJob() : IJobNode</text><text fill="#000000" font-family="sans-serif" font-size="14" lengthAdjust="spacing" textLength="244.7607" x="56" y="542.6738">+GetJobInfoDependencies() : IJobInfo[]</text><text fill="#000000" font-family="sans-serif" font-size="14" lengthAdjust="spacing" textLength="184.8164" x="56" y="560.2832">+GetJobsBatch() : IJobNode[]</text><text fill="#000000" font-family="sans-serif" font-size="14" lengthAdjust="spacing" textLength="139.6855" x="56" y="577.8926">+GetPayload() : object</text><text fill="#000000" font-family="sans-serif" font-size="14" lengthAdjust="spacing" textLength="339.6982" x="56" y="595.502">+GetDependentDataJobs() : IReadOnlyList&lt;IDataJob&gt;</text><text fill="#000000" font-family="sans-serif" font-size="14" lengthAdjust="spacing" textLength="291.3613" x="56" y="613.1113">+GetRetryPolicyFactory() : Func&lt;IRetryPolicy&gt;</text><text fill="#000000" font-family="sans-serif" font-size="14" lengthAdjust="spacing" textLength="153.6924" x="56" y="630.7207">+SetRoot(jobRoot) : void</text><text fill="#000000" font-family="sans-serif" font-size="14" lengthAdjust="spacing" textLength="206.5547" x="56" y="648.3301">+WaitUntilFinishedAsync() : Task</text><text fill="#000000" font-family="sans-serif" font-size="14" lengthAdjust="spacing" textLength="173.1064" x="56" y="665.9395">+Serialize(serializer) : string</text></g><!--class DataJobT--><g class="entity" data-qualified-name="TplQueue.Core.DataJobT" data-source-line="43" id="ent0013"><rect fill="#F1F1F1" height="78.8281" rx="2.5" ry="2.5" style="stroke:#181818;stroke-width:0.5;" width="286.333" x="46" y="94.5"/><text fill="#000000" font-family="sans-serif" font-size="14" lengthAdjust="spacing" textLength="52.1445" x="135.7466" y="114.0332">DataJob</text><rect fill="#FFFFFF" height="17.0938" style="stroke:#181818;stroke-width:1;stroke-dasharray:2,2;" width="52.6953" x="282.6377" y="91.5"/><text fill="#000000" font-family="sans-serif" font-size="12" font-style="italic" lengthAdjust="spacing" textLength="50.6953" x="283.6377" y="104.957">TPayload</text><line style="stroke:#181818;stroke-width:0.5;" x1="47" x2="331.333" y1="122.1094" y2="122.1094"/><line style="stroke:#181818;stroke-width:0.5;" x1="47" x2="331.333" y1="130.1094" y2="130.1094"/><text fill="#000000" font-family="sans-serif" font-size="14" lengthAdjust="spacing" textLength="274.333" x="52" y="148.6426">+Create(job, payload) : DataJob&lt;TPayload&gt;</text><text fill="#000000" font-family="sans-serif" font-size="14" lengthAdjust="spacing" textLength="175.4512" x="52" y="166.252">+After(previousTasks) : IJob</text></g><!--class DataJobRootT--><g class="entity" data-qualified-name="TplQueue.Core.DataJobRootT" data-source-line="48" id="ent0014"><rect fill="#F1F1F1" height="96.4375" rx="2.5" ry="2.5" style="stroke:#181818;stroke-width:0.5;" width="345.4775" x="367.5" y="86"/><text fill="#000000" font-family="sans-serif" font-size="14" lengthAdjust="spacing" textLength="81.7168" x="472.0327" y="105.5332">DataJobRoot</text><rect fill="#FFFFFF" height="17.0938" style="stroke:#181818;stroke-width:1;stroke-dasharray:2,2;" width="52.6953" x="663.2822" y="83"/><text fill="#000000" font-family="sans-serif" font-size="12" font-style="italic" lengthAdjust="spacing" textLength="50.6953" x="664.2822" y="96.457">TPayload</text><line style="stroke:#181818;stroke-width:0.5;" x1="368.5" x2="711.9775" y1="113.6094" y2="113.6094"/><line style="stroke:#181818;stroke-width:0.5;" x1="368.5" x2="711.9775" y1="121.6094" y2="121.6094"/><text fill="#000000" font-family="sans-serif" font-size="14" lengthAdjust="spacing" textLength="333.4775" x="373.5" y="140.1426">+CreateRoot(job, payload) : DataJobRoot&lt;TPayload&gt;</text><text fill="#000000" font-family="sans-serif" font-size="14" lengthAdjust="spacing" textLength="148.2441" x="373.5" y="157.752">+Enqueue(jobQ, ct) : IQ</text><text fill="#000000" font-family="sans-serif" font-size="14" lengthAdjust="spacing" textLength="205.0234" x="373.5" y="175.3613">+After(previousTasks) : IJobRoot</text></g><!--link DataJobT to DataJobNodeBaseT--><g class="link" data-entity-1="ent0013" data-entity-2="ent0012" data-link-type="extension" data-source-line="55" id="lnk15"><path codeLine="55" d="M144,173.67 C144,192.23 144,197.91 144,223.66" fill="none" id="DataJobT-to-DataJobNodeBaseT" style="stroke:#181818;stroke-width:1;"/><polygon fill="none" points="144,241.66,150,223.66,138,223.66,144,241.66" style="stroke:#181818;stroke-width:1;"/></g><!--link DataJobRootT to DataJobNodeBaseT--><g class="link" data-entity-1="ent0014" data-entity-2="ent0012" data-link-type="extension" data-source-line="56" id="lnk16"><path codeLine="56" d="M384.75,182.08 C384.75,199.24 384.75,201.86 384.75,223.98" fill="none" id="DataJobRootT-to-DataJobNodeBaseT" style="stroke:#181818;stroke-width:1;"/><polygon fill="none" points="384.75,241.98,390.75,223.98,378.75,223.98,384.75,241.98" style="stroke:#181818;stroke-width:1;"/></g><!--link DataJobT to IDataJob--><g class="link" data-entity-1="ent0013" data-entity-2="ent0008" data-link-type="extension" data-source-line="58" id="lnk17"><path codeLine="58" d="M238,173.91 C238,193.1 238,212 238,212 C238,212 429,212 429,212 C429,212 429,642.7 429,748.73" fill="none" id="DataJobT-to-IDataJob" style="stroke:#181818;stroke-width:1;stroke-dasharray:7,7;"/><polygon fill="none" points="429,766.73,435,748.73,423,748.73,429,766.73" style="stroke:#181818;stroke-width:1;"/></g><!--link DataJobRootT to IDataJobRoot--><g class="link" data-entity-1="ent0014" data-entity-2="ent0009" data-link-type="extension" data-source-line="59" id="lnk18"><path codeLine="59" d="M537,182.16 C537,313.49 537,656.17 537,748.99" fill="none" id="DataJobRootT-to-IDataJobRoot" style="stroke:#181818;stroke-width:1;stroke-dasharray:7,7;"/><polygon fill="none" points="537,766.99,543,748.99,531,748.99,537,766.99" style="stroke:#181818;stroke-width:1;"/></g><!--reverse link DataJobNodeBaseT to IJobNode--><g class="link" data-entity-1="ent0012" data-entity-2="ent0006" data-link-type="composition" data-source-line="61" id="lnk19"><path codeLine="61" d="M326,685.06 C326,723.15 326,745.37 326,766.59" fill="none" id="DataJobNodeBaseT-backto-IJobNode" style="stroke:#181818;stroke-width:1;"/><polygon fill="#181818" points="326,673.06,322,679.06,326,685.06,330,679.06,326,673.06" style="stroke:#181818;stroke-width:1;"/><text fill="#000000" font-family="sans-serif" font-size="13" lengthAdjust="spacing" textLength="49.8672" x="276" y="716.3151">inner job</text></g><!--reverse link DataJobNodeBaseT to IPayload--><g class="link" data-entity-1="ent0012" data-entity-2="ent0010" data-link-type="composition" data-source-line="62" id="lnk20"><path codeLine="62" d="M228,685.06 C228,723.15 228,745.37 228,766.59" fill="none" id="DataJobNodeBaseT-backto-IPayload" style="stroke:#181818;stroke-width:1;"/><polygon fill="#181818" points="228,673.06,224,679.06,228,685.06,232,679.06,228,673.06" style="stroke:#181818;stroke-width:1;"/><text fill="#000000" font-family="sans-serif" font-size="13" lengthAdjust="spacing" textLength="45.5381" x="182" y="716.3151">payload</text></g><?plantuml-src VLJ1SjCm4BtxApGv9T1qE3EPpAHfMWnCQPim71WE6tdJA5MqHf9BJUc_8rcoOpk1awrzkq_Fpq-ob3DBR4tMqfvbGYEtWbHY7eNAGSEUIQ7GbZaoqdPBBS1i8QDVGZsm3KY3BOHBC6PchHRhmcBAIIt5RsJlagt8a76XkSGaoO4_mWEomIgNTmKMU3vR6wkX4c06R39PF5lK2kHqobuIneHoomrmPEbTT_cHraU56yhmg7XFPBl5Ix1mD1wBnzstK4g2B7az9NzE6WULKeWV4fnWWyZd9Ls0mSagyam730pheQkAWh6tQSRUi-j2P65v0tjq1SViF8yTPaxxNA95txecag6-U4PUU1kN5hHraDi2LsAFFNYXid-3lkHG_rZce0Bg26rXV1dCOrW4u19pL1agBj33wJr2zaN9SavIXanD_0z8rOQcOI9wuBbgMzlrbS-SmzmZrEUQZAcSxXaJ1pw0oYJgJrZsN9fJNlfzXoClB8e8q3NQL2dKhjYWCJW1ZTtjh-lGVF_HRZKNOFcsmzHgY3ehcDOxvqe3rVmsPY5kKfluMHWxgLCvRQRkqUhobgJWvPLB6-co6hig59-aBJ1EBDs4I_Hm5vBjMv-eDl4R2FjLMI6lX19cYzdCb8fNVFvNrmnQW7HdUMZgDprgk-tE1Uk5_dJOcv3FDRhuUKrdB0-Dev39xd3edctSKHpc6fy45SOBCxNPftVt7tfQWKTwAcftJYdf4iMZedxwEFgHkpF6AqUhg-d_IkErykflaSQEyVZFzEWcI3fQJxSSACxF7TvSQ9tH3bJjdnpTEc_6uoQrJgdmvuBj3aozpiFnZMRz1G00?></g></svg>