<?plantuml 1.2026.2?><svg xmlns="http://www.w3.org/2000/svg" xmlns:xlink="http://www.w3.org/1999/xlink" contentStyleType="text/css" data-diagram-type="CLASS" height="413px" preserveAspectRatio="none" style="width:1088px;height:413px;background:#FFFFFF;" version="1.1" viewBox="0 0 1088 413" width="1088px" zoomAndPan="magnify"><defs/><g><!--cluster TplQueue--><g class="cluster" data-qualified-name="TplQueue" data-source-line="8" id="ent0004"><path d="M8.5,6 L74.0586,6 A3.75,3.75 0 0 1 76.5586,8.5 L83.5586,29.6094 L1078.5,29.6094 A2.5,2.5 0 0 1 1081,32.1094 L1081,403.5 A2.5,2.5 0 0 1 1078.5,406 L8.5,406 A2.5,2.5 0 0 1 6,403.5 L6,8.5 A2.5,2.5 0 0 1 8.5,6" fill="none" style="stroke:#000000;stroke-width:1.5;"/><line style="stroke:#000000;stroke-width:1.5;" x1="6" x2="83.5586" y1="29.6094" y2="29.6094"/><text fill="#000000" font-family="sans-serif" font-size="14" font-weight="bold" lengthAdjust="spacing" textLength="64.5586" x="10" y="22.5332">TplQueue</text></g><!--cluster Abstractions--><g class="cluster" data-qualified-name="TplQueue.Abstractions" data-source-line="7" id="ent0002"><path d="M433.5,216 L520.0723,216 A3.75,3.75 0 0 1 522.5723,218.5 L529.5723,239.6094 L1054.5,239.6094 A2.5,2.5 0 0 1 1057,242.1094 L1057,379.5 A2.5,2.5 0 0 1 1054.5,382 L433.5,382 A2.5,2.5 0 0 1 431,379.5 L431,218.5 A2.5,2.5 0 0 1 433.5,216" fill="none" style="stroke:#000000;stroke-width:1.5;"/><line style="stroke:#000000;stroke-width:1.5;" x1="431" x2="529.5723" y1="239.6094" y2="239.6094"/><text fill="#000000" font-family="sans-serif" font-size="14" font-weight="bold" lengthAdjust="spacing" textLength="85.5723" x="435" y="232.5332">Abstractions</text><text fill="#000000" font-family="sans-serif" font-size="14" font-style="italic" lengthAdjust="spacing" textLength="66.9307" x="714.5347" y="256.1426">&#171;External&#187;</text></g><!--cluster Core--><g class="cluster" data-qualified-name="TplQueue.Core" data-source-line="19" id="ent0008"><path d="M32.5,50 L65.3965,50 A3.75,3.75 0 0 1 67.8965,52.5 L74.8965,73.6094 L404.5,73.6094 A2.5,2.5 0 0 1 407,76.1094 L407,353.5 A2.5,2.5 0 0 1 404.5,356 L32.5,356 A2.5,2.5 0 0 1 30,353.5 L30,52.5 A2.5,2.5 0 0 1 32.5,50" fill="none" style="stroke:#000000;stroke-width:1.5;"/><line style="stroke:#000000;stroke-width:1.5;" x1="30" x2="74.8965" y1="73.6094" y2="73.6094"/><text fill="#000000" font-family="sans-serif" font-size="14" font-weight="bold" lengthAdjust="spacing" textLength="31.8965" x="34" y="66.5332">Core</text></g><!--class ICoreApi--><g class="entity" data-qualified-name="TplQueue.Abstractions.ICoreApi" data-source-line="8" id="ent0003"><rect fill="#F1F1F1" height="96.4375" rx="2.5" ry="2.5" style="stroke:#181818;stroke-width:0.5;" width="233.375" x="807.5" y="270"/><text fill="#000000" font-family="sans-serif" font-size="14" font-style="italic" lengthAdjust="spacing" textLength="54.4688" x="896.9531" y="289.5332">ICoreApi</text><line style="stroke:#181818;stroke-width:0.5;" x1="808.5" x2="1039.875" y1="297.6094" y2="297.6094"/><text fill="#000000" font-family="sans-serif" font-size="14" lengthAdjust="spacing" textLength="138.8652" x="813.5" y="316.1426">+QFactory : IQFactory</text><text fill="#000000" font-family="sans-serif" font-size="14" lengthAdjust="spacing" textLength="162.2305" x="813.5" y="333.752">+JobFactory : IJobFactory</text><text fill="#000000" font-family="sans-serif" font-size="14" lengthAdjust="spacing" textLength="221.375" x="813.5" y="351.3613">+DataJobFactory : IDataJobFactory</text><line style="stroke:#181818;stroke-width:0.5;" x1="808.5" x2="1039.875" y1="358.4375" y2="358.4375"/></g><!--class IQFactory--><g class="entity" data-qualified-name="TplQueue.Abstractions.IQFactory" data-source-line="14" id="ent0005"><rect fill="#F1F1F1" height="43.6094" rx="2.5" ry="2.5" style="stroke:#181818;stroke-width:0.5;" width="67.4551" x="705.5" y="296"/><text fill="#000000" font-family="sans-serif" font-size="14" font-style="italic" lengthAdjust="spacing" textLength="61.4551" x="708.5" y="315.5332">IQFactory</text><line style="stroke:#181818;stroke-width:0.5;" x1="706.5" x2="771.9551" y1="323.6094" y2="323.6094"/><line style="stroke:#181818;stroke-width:0.5;" x1="706.5" x2="771.9551" y1="331.6094" y2="331.6094"/></g><!--class IJobFactory--><g class="entity" data-qualified-name="TplQueue.Abstractions.IJobFactory" data-source-line="15" id="ent0006"><rect fill="#F1F1F1" height="43.6094" rx="2.5" ry="2.5" style="stroke:#181818;stroke-width:0.5;" width="79.1377" x="591.5" y="296"/><text fill="#000000" font-family="sans-serif" font-size="14" font-style="italic" lengthAdjust="spacing" textLength="73.1377" x="594.5" y="315.5332">IJobFactory</text><line style="stroke:#181818;stroke-width:0.5;" x1="592.5" x2="669.6377" y1="323.6094" y2="323.6094"/><line style="stroke:#181818;stroke-width:0.5;" x1="592.5" x2="669.6377" y1="331.6094" y2="331.6094"/></g><!--class IDataJobFactory--><g class="entity" data-qualified-name="TplQueue.Abstractions.IDataJobFactory" data-source-line="16" id="ent0007"><rect fill="#F1F1F1" height="43.6094" rx="2.5" ry="2.5" style="stroke:#181818;stroke-width:0.5;" width="108.71" x="447.5" y="296"/><text fill="#000000" font-family="sans-serif" font-size="14" font-style="italic" lengthAdjust="spacing" textLength="102.71" x="450.5" y="315.5332">IDataJobFactory</text><line style="stroke:#181818;stroke-width:0.5;" x1="448.5" x2="555.21" y1="323.6094" y2="323.6094"/><line style="stroke:#181818;stroke-width:0.5;" x1="448.5" x2="555.21" y1="331.6094" y2="331.6094"/></g><!--class CoreApi--><g class="entity" data-qualified-name="TplQueue.Core.CoreApi" data-source-line="20" id="ent0009"><rect fill="#F1F1F1" height="114.0469" rx="2.5" ry="2.5" style="stroke:#181818;stroke-width:0.5;" width="233.375" x="157.5" y="86"/><text fill="#000000" font-family="sans-serif" font-size="14" lengthAdjust="spacing" textLength="50.5791" x="248.8979" y="105.5332">CoreApi</text><line style="stroke:#181818;stroke-width:0.5;" x1="158.5" x2="389.875" y1="113.6094" y2="113.6094"/><text fill="#000000" font-family="sans-serif" font-size="14" lengthAdjust="spacing" textLength="138.8652" x="163.5" y="132.1426">+QFactory : IQFactory</text><text fill="#000000" font-family="sans-serif" font-size="14" lengthAdjust="spacing" textLength="162.2305" x="163.5" y="149.752">+JobFactory : IJobFactory</text><text fill="#000000" font-family="sans-serif" font-size="14" lengthAdjust="spacing" textLength="221.375" x="163.5" y="167.3613">+DataJobFactory : IDataJobFactory</text><line style="stroke:#181818;stroke-width:0.5;" x1="158.5" x2="389.875" y1="174.4375" y2="174.4375"/><text fill="#000000" font-family="sans-serif" font-size="14" lengthAdjust="spacing" textLength="125.6582" x="163.5" y="192.9707">+Create() : ICoreApi</text></g><!--class CoreQFactory--><g class="entity" data-qualified-name="TplQueue.Core.CoreQFactory" data-source-line="27" id="ent0010"><rect fill="#F1F1F1" height="43.6094" rx="2.5" ry="2.5" style="stroke:#181818;stroke-width:0.5;" width="93.9102" x="46" y="296"/><text fill="#000000" font-family="sans-serif" font-size="14" lengthAdjust="spacing" textLength="87.9102" x="49" y="315.5332">CoreQFactory</text><line style="stroke:#181818;stroke-width:0.5;" x1="47" x2="138.9102" y1="323.6094" y2="323.6094"/><line style="stroke:#181818;stroke-width:0.5;" x1="47" x2="138.9102" y1="331.6094" y2="331.6094"/></g><!--class JobFactory--><g class="entity" data-qualified-name="TplQueue.Core.JobFactory" data-source-line="28" id="ent0011"><rect fill="#F1F1F1" height="43.6094" rx="2.5" ry="2.5" style="stroke:#181818;stroke-width:0.5;" width="75.248" x="175.5" y="296"/><text fill="#000000" font-family="sans-serif" font-size="14" lengthAdjust="spacing" textLength="69.248" x="178.5" y="315.5332">JobFactory</text><line style="stroke:#181818;stroke-width:0.5;" x1="176.5" x2="249.748" y1="323.6094" y2="323.6094"/><line style="stroke:#181818;stroke-width:0.5;" x1="176.5" x2="249.748" y1="331.6094" y2="331.6094"/></g><!--class DataJobFactory--><g class="entity" data-qualified-name="TplQueue.Core.DataJobFactory" data-source-line="29" id="ent0012"><rect fill="#F1F1F1" height="43.6094" rx="2.5" ry="2.5" style="stroke:#181818;stroke-width:0.5;" width="104.8203" x="285.5" y="296"/><text fill="#000000" font-family="sans-serif" font-size="14" lengthAdjust="spacing" textLength="98.8203" x="288.5" y="315.5332">DataJobFactory</text><line style="stroke:#181818;stroke-width:0.5;" x1="286.5" x2="389.3203" y1="323.6094" y2="323.6094"/><line style="stroke:#181818;stroke-width:0.5;" x1="286.5" x2="389.3203" y1="331.6094" y2="331.6094"/></g><!--link CoreApi to ICoreApi--><g class="link" data-entity-1="ent0009" data-entity-2="ent0003" data-link-type="extension" data-source-line="32" id="lnk13"><path codeLine="32" d="M355.5,200.35 C355.5,239.01 355.5,283 355.5,283 C355.5,283 622.87,283 789.24,283" fill="none" id="CoreApi-to-ICoreApi" style="stroke:#181818;stroke-width:1;stroke-dasharray:7,7;"/><polygon fill="none" points="807.24,283,789.24,277,789.24,289,807.24,283" style="stroke:#181818;stroke-width:1;"/></g><!--reverse link CoreApi to IQFactory--><g class="link" data-entity-1="ent0009" data-entity-2="ent0005" data-link-type="composition" data-source-line="33" id="lnk14"><path codeLine="33" d="M402.74,115 C540.48,115 739,115 739,115 C739,115 739,243.28 739,295.89" fill="none" id="CoreApi-backto-IQFactory" style="stroke:#181818;stroke-width:1;"/><polygon fill="#181818" points="390.74,115,396.74,119,402.74,115,396.74,111,390.74,115" style="stroke:#181818;stroke-width:1;"/><text fill="#000000" font-family="sans-serif" font-size="13" lengthAdjust="spacing" textLength="30.3481" x="624.31" y="111.4951">owns</text></g><!--reverse link CoreApi to IJobFactory--><g class="link" data-entity-1="ent0009" data-entity-2="ent0006" data-link-type="composition" data-source-line="34" id="lnk15"><path codeLine="34" d="M402.9,143 C507.01,143 631,143 631,143 C631,143 631,248.75 631,295.84" fill="none" id="CoreApi-backto-IJobFactory" style="stroke:#181818;stroke-width:1;"/><polygon fill="#181818" points="390.9,143,396.9,147,402.9,143,396.9,139,390.9,143" style="stroke:#181818;stroke-width:1;"/><text fill="#000000" font-family="sans-serif" font-size="13" lengthAdjust="spacing" textLength="30.3481" x="556.37" y="139.4951">owns</text></g><!--reverse link CoreApi to IDataJobFactory--><g class="link" data-entity-1="ent0009" data-entity-2="ent0007" data-link-type="composition" data-source-line="35" id="lnk16"><path codeLine="35" d="M402.67,172 C458.77,172 502,172 502,172 C502,172 502,254.98 502,295.83" fill="none" id="CoreApi-backto-IDataJobFactory" style="stroke:#181818;stroke-width:1;"/><polygon fill="#181818" points="390.67,172,396.67,176,402.67,172,396.67,168,390.67,172" style="stroke:#181818;stroke-width:1;"/><text fill="#000000" font-family="sans-serif" font-size="13" lengthAdjust="spacing" textLength="30.3481" x="471" y="174.7451">owns</text></g><!--link CoreApi to CoreQFactory--><g class="link" data-entity-1="ent0009" data-entity-2="ent0010" data-link-type="dependency" data-source-line="37" id="lnk17"><path codeLine="37" d="M166.5,200.3 C166.5,251.34 166.5,318 166.5,318 C166.5,318 160.6,318 146.38,318" fill="none" id="CoreApi-to-CoreQFactory" style="stroke:#181818;stroke-width:1;stroke-dasharray:7,7;"/><polygon fill="#181818" points="140.38,318,149.38,322,145.38,318,149.38,314,140.38,318" style="stroke:#181818;stroke-width:1;"/><text fill="#000000" font-family="sans-serif" font-size="13" lengthAdjust="spacing" textLength="47.6772" x="118.5" y="268.7051">Create()</text></g><!--link CoreApi to JobFactory--><g class="link" data-entity-1="ent0009" data-entity-2="ent0011" data-link-type="dependency" data-source-line="38" id="lnk18"><path codeLine="38" d="M213,200.3 C213,233 213,266.11 213,289.99" fill="none" id="CoreApi-to-JobFactory" style="stroke:#181818;stroke-width:1;stroke-dasharray:7,7;"/><polygon fill="#181818" points="213,295.99,217,286.99,213,290.99,209,286.99,213,295.99" style="stroke:#181818;stroke-width:1;"/><text fill="#000000" font-family="sans-serif" font-size="13" lengthAdjust="spacing" textLength="47.6772" x="165" y="244.6451">Create()</text></g><!--link CoreApi to DataJobFactory--><g class="link" data-entity-1="ent0009" data-entity-2="ent0012" data-link-type="dependency" data-source-line="39" id="lnk19"><path codeLine="39" d="M320.5,200.3 C320.5,233 320.5,266.11 320.5,289.99" fill="none" id="CoreApi-to-DataJobFactory" style="stroke:#181818;stroke-width:1;stroke-dasharray:7,7;"/><polygon fill="#181818" points="320.5,295.99,324.5,286.99,320.5,290.99,316.5,286.99,320.5,295.99" style="stroke:#181818;stroke-width:1;"/><text fill="#000000" font-family="sans-serif" font-size="13" lengthAdjust="spacing" textLength="47.6772" x="272.5" y="244.6451">Create()</text></g><?plantuml-src lL3BReCm4Bpp5IjEVIYevof2GaahqLlK_i1YDi4AyI9xKPgs-VSIAC8EEVVcdHdFpgnm0y9Gi0WVeDIMb6WsaTjhqw350zJQa9mQ0hPIiKUu2ai-QhE3BTQEF4RLw5mcOdNH2kMApRl-8dYAAbqIA6rLJL7KeDhZZY3-QEfDIoqbMU74OX_0nR1SldmAMODrci9t1A1DDsvH4UGhjfGrkeS17ZUltI-s9tY6V7mFp1iN7ZTD0xj6mL0H8ftg78MRFNiF3Rvu-9NT-LRhIvUuRzBV3QwwhIoXqDtz9TqVzJ-bfpIU-m06uW6QDnrx9CbFEaKVqOV5OehTXU2ZSI4PP9pJingznDkQ1jaxmNZ9G1DOt5JC5esgNm00?></g></svg>