<?plantuml 1.2026.2?><svg xmlns="http://www.w3.org/2000/svg" xmlns:xlink="http://www.w3.org/1999/xlink" contentStyleType="text/css" data-diagram-type="CLASS" height="343px" preserveAspectRatio="none" style="width:645px;height:343px;background:#FFFFFF;" version="1.1" viewBox="0 0 645 343" width="645px" zoomAndPan="magnify"><defs/><g><!--cluster TplQueue--><g class="cluster" data-qualified-name="TplQueue" data-source-line="8" id="ent0004"><path d="M8.5,6 L74.0586,6 A3.75,3.75 0 0 1 76.5586,8.5 L83.5586,29.6094 L635.5,29.6094 A2.5,2.5 0 0 1 638,32.1094 L638,333.5 A2.5,2.5 0 0 1 635.5,336 L8.5,336 A2.5,2.5 0 0 1 6,333.5 L6,8.5 A2.5,2.5 0 0 1 8.5,6" fill="none" style="stroke:#000000;stroke-width:1.5;"/><line style="stroke:#000000;stroke-width:1.5;" x1="6" x2="83.5586" y1="29.6094" y2="29.6094"/><text fill="#000000" font-family="sans-serif" font-size="14" font-weight="bold" lengthAdjust="spacing" textLength="64.5586" x="10" y="22.5332">TplQueue</text></g><!--cluster Abstractions--><g class="cluster" data-qualified-name="TplQueue.Abstractions" data-source-line="7" id="ent0002"><path d="M339.5,181 L426.0723,181 A3.75,3.75 0 0 1 428.5723,183.5 L435.5723,204.6094 L611.5,204.6094 A2.5,2.5 0 0 1 614,207.1094 L614,309.5 A2.5,2.5 0 0 1 611.5,312 L339.5,312 A2.5,2.5 0 0 1 337,309.5 L337,183.5 A2.5,2.5 0 0 1 339.5,181" fill="none" style="stroke:#000000;stroke-width:1.5;"/><line style="stroke:#000000;stroke-width:1.5;" x1="337" x2="435.5723" y1="204.6094" y2="204.6094"/><text fill="#000000" font-family="sans-serif" font-size="14" font-weight="bold" lengthAdjust="spacing" textLength="85.5723" x="341" y="197.5332">Abstractions</text><text fill="#000000" font-family="sans-serif" font-size="14" font-style="italic" lengthAdjust="spacing" textLength="66.9307" x="446.0347" y="221.1426">&#171;External&#187;</text></g><!--cluster Core--><g class="cluster" data-qualified-name="TplQueue.Core" data-source-line="15" id="ent0006"><path d="M32.5,50 L65.3965,50 A3.75,3.75 0 0 1 67.8965,52.5 L74.8965,73.6094 L310.5,73.6094 A2.5,2.5 0 0 1 313,76.1094 L313,309.5 A2.5,2.5 0 0 1 310.5,312 L32.5,312 A2.5,2.5 0 0 1 30,309.5 L30,52.5 A2.5,2.5 0 0 1 32.5,50" fill="none" style="stroke:#000000;stroke-width:1.5;"/><line style="stroke:#000000;stroke-width:1.5;" x1="30" x2="74.8965" y1="73.6094" y2="73.6094"/><text fill="#000000" font-family="sans-serif" font-size="14" font-weight="bold" lengthAdjust="spacing" textLength="31.8965" x="34" y="66.5332">Core</text></g><!--class IJobRoot--><g class="entity" data-qualified-name="TplQueue.Abstractions.IJobRoot" data-source-line="8" id="ent0003"><rect fill="#F1F1F1" height="43.6094" rx="2.5" ry="2.5" style="stroke:#181818;stroke-width:0.5;" width="62.0342" x="536" y="243.5"/><text fill="#000000" font-family="sans-serif" font-size="14" font-style="italic" lengthAdjust="spacing" textLength="56.0342" x="539" y="263.0332">IJobRoot</text><line style="stroke:#181818;stroke-width:0.5;" x1="537" x2="597.0342" y1="271.1094" y2="271.1094"/><line style="stroke:#181818;stroke-width:0.5;" x1="537" x2="597.0342" y1="279.1094" y2="279.1094"/></g><!--class IFifoQ--><g class="entity" data-qualified-name="TplQueue.Abstractions.IFifoQ" data-source-line="10" id="ent0005"><rect fill="#F1F1F1" height="61.2188" rx="2.5" ry="2.5" style="stroke:#181818;stroke-width:0.5;" width="147.0098" x="353.5" y="235"/><text fill="#000000" font-family="sans-serif" font-size="14" font-style="italic" lengthAdjust="spacing" textLength="38.1172" x="407.9463" y="254.5332">IFifoQ</text><line style="stroke:#181818;stroke-width:0.5;" x1="354.5" x2="499.5098" y1="262.6094" y2="262.6094"/><line style="stroke:#181818;stroke-width:0.5;" x1="354.5" x2="499.5098" y1="270.6094" y2="270.6094"/><text fill="#000000" font-family="sans-serif" font-size="14" lengthAdjust="spacing" textLength="135.0098" x="359.5" y="289.1426">+Enqueue(...) : IFifoQ</text></g><!--class QAbstract--><g class="entity" data-qualified-name="TplQueue.Core.QAbstract" data-source-line="16" id="ent0007"><rect fill="#F1F1F1" height="43.6094" rx="2.5" ry="2.5" style="stroke:#181818;stroke-width:0.5;" width="68.2412" x="46" y="243.5"/><text fill="#000000" font-family="sans-serif" font-size="14" font-style="italic" lengthAdjust="spacing" textLength="62.2412" x="49" y="263.0332">QAbstract</text><line style="stroke:#181818;stroke-width:0.5;" x1="47" x2="113.2412" y1="271.1094" y2="271.1094"/><line style="stroke:#181818;stroke-width:0.5;" x1="47" x2="113.2412" y1="279.1094" y2="279.1094"/></g><!--class JobRoot--><g class="entity" data-qualified-name="TplQueue.Core.JobRoot" data-source-line="18" id="ent0008"><rect fill="#F1F1F1" height="61.2188" rx="2.5" ry="2.5" style="stroke:#181818;stroke-width:0.5;" width="147.0029" x="149.5" y="235"/><text fill="#000000" font-family="sans-serif" font-size="14" lengthAdjust="spacing" textLength="52.1445" x="196.9292" y="254.5332">JobRoot</text><line style="stroke:#181818;stroke-width:0.5;" x1="150.5" x2="295.5029" y1="262.6094" y2="262.6094"/><line style="stroke:#181818;stroke-width:0.5;" x1="150.5" x2="295.5029" y1="270.6094" y2="270.6094"/><text fill="#000000" font-family="sans-serif" font-size="14" lengthAdjust="spacing" textLength="135.0029" x="155.5" y="289.1426">+Create(...) : JobRoot</text></g><!--class FifoQ--><g class="entity" data-qualified-name="TplQueue.Core.FifoQ" data-source-line="22" id="ent0009"><rect fill="#F1F1F1" height="78.8281" rx="2.5" ry="2.5" style="stroke:#181818;stroke-width:0.5;" width="147.0098" x="149.5" y="86"/><text fill="#000000" font-family="sans-serif" font-size="14" lengthAdjust="spacing" textLength="34.2275" x="205.8911" y="105.5332">FifoQ</text><line style="stroke:#181818;stroke-width:0.5;" x1="150.5" x2="295.5098" y1="113.6094" y2="113.6094"/><line style="stroke:#181818;stroke-width:0.5;" x1="150.5" x2="295.5098" y1="121.6094" y2="121.6094"/><text fill="#000000" font-family="sans-serif" font-size="14" lengthAdjust="spacing" textLength="120.9756" x="155.5" y="140.1426">+Create(...) : IFifoQ</text><text fill="#000000" font-family="sans-serif" font-size="14" lengthAdjust="spacing" textLength="135.0098" x="155.5" y="157.752">+Enqueue(...) : IFifoQ</text></g><!--link FifoQ to QAbstract--><g class="link" data-entity-1="ent0009" data-entity-2="ent0007" data-link-type="extension" data-source-line="28" id="lnk10"><path codeLine="28" d="M149.41,126 C114.37,126 80,126 80,126 C80,126 80,186.06 80,225.4" fill="none" id="FifoQ-to-QAbstract" style="stroke:#181818;stroke-width:1;"/><polygon fill="none" points="80,243.4,86,225.4,74,225.4,80,243.4" style="stroke:#181818;stroke-width:1;"/></g><!--link FifoQ to IFifoQ--><g class="link" data-entity-1="ent0009" data-entity-2="ent0005" data-link-type="extension" data-source-line="29" id="lnk11"><path codeLine="29" d="M296.65,139 C355.08,139 427,139 427,139 C427,139 427,179.44 427,216.88" fill="none" id="FifoQ-to-IFifoQ" style="stroke:#181818;stroke-width:1;stroke-dasharray:7,7;"/><polygon fill="none" points="427,234.88,433,216.88,421,216.88,427,234.88" style="stroke:#181818;stroke-width:1;"/></g><!--link FifoQ to JobRoot--><g class="link" data-entity-1="ent0009" data-entity-2="ent0008" data-link-type="dependency" data-source-line="30" id="lnk12"><path codeLine="30" d="M223,165.24 C223,187.23 223,208.15 223,228.56" fill="none" id="FifoQ-to-JobRoot" style="stroke:#181818;stroke-width:1;stroke-dasharray:7,7;"/><polygon fill="#181818" points="223,234.56,227,225.56,223,229.56,219,225.56,223,234.56" style="stroke:#181818;stroke-width:1;"/><text fill="#000000" font-family="sans-serif" font-size="13" lengthAdjust="spacing" textLength="47.6772" x="175" y="196.3951">Create()</text></g><!--link FifoQ to IJobRoot--><g class="link" data-entity-1="ent0009" data-entity-2="ent0003" data-link-type="dependency" data-source-line="31" id="lnk13"><path codeLine="31" d="M296.8,113 C397.88,113 567,113 567,113 C567,113 567,195.03 567,237.33" fill="none" id="FifoQ-to-IJobRoot" style="stroke:#181818;stroke-width:1;stroke-dasharray:7,7;"/><polygon fill="#181818" points="567,243.33,571,234.33,567,238.33,563,234.33,567,243.33" style="stroke:#181818;stroke-width:1;"/><text fill="#000000" font-family="sans-serif" font-size="13" lengthAdjust="spacing" textLength="105.5171" x="391.06" y="109.4951">Enqueue(jobRoot)</text></g><?plantuml-src XO_BQiCm44Nt-eh1gveIqNK8XX1IS7Tk-mEoF8xLA1fN6jDd_hr-ruP2bxftPiuHKmrCa1CpNQ0m7ZKRSYASZQkLLnUmnY5_r0ZakQ954IfLq9jn9oYL3RXej5KXx9czoHl6L9DxCfy8Tw8o1O8sNbiKebRwh4u8qNDjimORbFiyi5UzG8XWjpk-CtgdR9B0bm0mhdsMIYEa3vG_4h5Of_UcfAmV1RWzkjVkw8sKCeRjMBRLLLp_OX_8OzJlgj5Y-0PaarK76wAHFf4E7XNFe4cj8yqRAxFr_2psd_DmOxFvJXPEGoXb6uxJKvBCcbiOYV6YJ7_RYVeo9F4F?></g></svg>