<?plantuml 1.2026.2?><svg xmlns="http://www.w3.org/2000/svg" xmlns:xlink="http://www.w3.org/1999/xlink" contentStyleType="text/css" data-diagram-type="CLASS" height="378px" preserveAspectRatio="none" style="width:999px;height:378px;background:#FFFFFF;" version="1.1" viewBox="0 0 999 378" width="999px" zoomAndPan="magnify"><defs/><g><!--cluster TplQueue--><g class="cluster" data-qualified-name="TplQueue" data-source-line="8" id="ent0004"><path d="M8.5,6 L74.0586,6 A3.75,3.75 0 0 1 76.5586,8.5 L83.5586,29.6094 L989.5,29.6094 A2.5,2.5 0 0 1 992,32.1094 L992,368.5 A2.5,2.5 0 0 1 989.5,371 L8.5,371 A2.5,2.5 0 0 1 6,368.5 L6,8.5 A2.5,2.5 0 0 1 8.5,6" fill="none" style="stroke:#000000;stroke-width:1.5;"/><line style="stroke:#000000;stroke-width:1.5;" x1="6" x2="83.5586" y1="29.6094" y2="29.6094"/><text fill="#000000" font-family="sans-serif" font-size="14" font-weight="bold" lengthAdjust="spacing" textLength="64.5586" x="10" y="22.5332">TplQueue</text></g><!--cluster Abstractions--><g class="cluster" data-qualified-name="TplQueue.Abstractions" data-source-line="7" id="ent0002"><path d="M379.5,198 L466.0723,198 A3.75,3.75 0 0 1 468.5723,200.5 L475.5723,221.6094 L965.5,221.6094 A2.5,2.5 0 0 1 968,224.1094 L968,344.5 A2.5,2.5 0 0 1 965.5,347 L379.5,347 A2.5,2.5 0 0 1 377,344.5 L377,200.5 A2.5,2.5 0 0 1 379.5,198" fill="none" style="stroke:#000000;stroke-width:1.5;"/><line style="stroke:#000000;stroke-width:1.5;" x1="377" x2="475.5723" y1="221.6094" y2="221.6094"/><text fill="#000000" font-family="sans-serif" font-size="14" font-weight="bold" lengthAdjust="spacing" textLength="85.5723" x="381" y="214.5332">Abstractions</text><text fill="#000000" font-family="sans-serif" font-size="14" font-style="italic" lengthAdjust="spacing" textLength="66.9307" x="643.0347" y="238.1426">&#171;External&#187;</text></g><!--cluster Core--><g class="cluster" data-qualified-name="TplQueue.Core" data-source-line="18" id="ent0008"><path d="M32.5,50 L65.3965,50 A3.75,3.75 0 0 1 67.8965,52.5 L74.8965,73.6094 L350.5,73.6094 A2.5,2.5 0 0 1 353,76.1094 L353,327 A2.5,2.5 0 0 1 350.5,329.5 L32.5,329.5 A2.5,2.5 0 0 1 30,327 L30,52.5 A2.5,2.5 0 0 1 32.5,50" fill="none" style="stroke:#000000;stroke-width:1.5;"/><line style="stroke:#000000;stroke-width:1.5;" x1="30" x2="74.8965" y1="73.6094" y2="73.6094"/><text fill="#000000" font-family="sans-serif" font-size="14" font-weight="bold" lengthAdjust="spacing" textLength="31.8965" x="34" y="66.5332">Core</text></g><!--class IDataJobFactory--><g class="entity" data-qualified-name="TplQueue.Abstractions.IDataJobFactory" data-source-line="8" id="ent0003"><rect fill="#F1F1F1" height="78.8281" rx="2.5" ry="2.5" style="stroke:#181818;stroke-width:0.5;" width="220.1611" x="732" y="252"/><text fill="#000000" font-family="sans-serif" font-size="14" font-style="italic" lengthAdjust="spacing" textLength="102.71" x="790.7256" y="271.5332">IDataJobFactory</text><line style="stroke:#181818;stroke-width:0.5;" x1="733" x2="951.1611" y1="279.6094" y2="279.6094"/><line style="stroke:#181818;stroke-width:0.5;" x1="733" x2="951.1611" y1="287.6094" y2="287.6094"/><text fill="#000000" font-family="sans-serif" font-size="14" lengthAdjust="spacing" textLength="149.0166" x="738" y="306.1426">+DataJob(...) : IDataJob</text><text fill="#000000" font-family="sans-serif" font-size="14" lengthAdjust="spacing" textLength="208.1611" x="738" y="323.752">+DataJobRoot(...) : IDataJobRoot</text></g><!--class IJobFactory--><g class="entity" data-qualified-name="TplQueue.Abstractions.IJobFactory" data-source-line="13" id="ent0005"><rect fill="#F1F1F1" height="43.6094" rx="2.5" ry="2.5" style="stroke:#181818;stroke-width:0.5;" width="79.1377" x="617.5" y="269.5"/><text fill="#000000" font-family="sans-serif" font-size="14" font-style="italic" lengthAdjust="spacing" textLength="73.1377" x="620.5" y="289.0332">IJobFactory</text><line style="stroke:#181818;stroke-width:0.5;" x1="618.5" x2="695.6377" y1="297.1094" y2="297.1094"/><line style="stroke:#181818;stroke-width:0.5;" x1="618.5" x2="695.6377" y1="305.1094" y2="305.1094"/></g><!--class IDataJob--><g class="entity" data-qualified-name="TplQueue.Abstractions.IDataJob" data-source-line="14" id="ent0006"><rect fill="#F1F1F1" height="43.6094" rx="2.5" ry="2.5" style="stroke:#181818;stroke-width:0.5;" width="62.0342" x="520" y="269.5"/><text fill="#000000" font-family="sans-serif" font-size="14" font-style="italic" lengthAdjust="spacing" textLength="56.0342" x="523" y="289.0332">IDataJob</text><line style="stroke:#181818;stroke-width:0.5;" x1="521" x2="581.0342" y1="297.1094" y2="297.1094"/><line style="stroke:#181818;stroke-width:0.5;" x1="521" x2="581.0342" y1="305.1094" y2="305.1094"/></g><!--class IDataJobRoot--><g class="entity" data-qualified-name="TplQueue.Abstractions.IDataJobRoot" data-source-line="15" id="ent0007"><rect fill="#F1F1F1" height="43.6094" rx="2.5" ry="2.5" style="stroke:#181818;stroke-width:0.5;" width="91.6064" x="393" y="269.5"/><text fill="#000000" font-family="sans-serif" font-size="14" font-style="italic" lengthAdjust="spacing" textLength="85.6064" x="396" y="289.0332">IDataJobRoot</text><line style="stroke:#181818;stroke-width:0.5;" x1="394" x2="483.6064" y1="297.1094" y2="297.1094"/><line style="stroke:#181818;stroke-width:0.5;" x1="394" x2="483.6064" y1="305.1094" y2="305.1094"/></g><!--class DataJobFactory--><g class="entity" data-qualified-name="TplQueue.Core.DataJobFactory" data-source-line="19" id="ent0009"><rect fill="#F1F1F1" height="96.4375" rx="2.5" ry="2.5" style="stroke:#181818;stroke-width:0.5;" width="251.2578" x="85.5" y="86"/><text fill="#000000" font-family="sans-serif" font-size="14" lengthAdjust="spacing" textLength="98.8203" x="161.7188" y="105.5332">DataJobFactory</text><line style="stroke:#181818;stroke-width:0.5;" x1="86.5" x2="335.7578" y1="113.6094" y2="113.6094"/><line style="stroke:#181818;stroke-width:0.5;" x1="86.5" x2="335.7578" y1="121.6094" y2="121.6094"/><text fill="#000000" font-family="sans-serif" font-size="14" lengthAdjust="spacing" textLength="239.2578" x="91.5" y="140.1426">+Create(jobFactory) : IDataJobFactory</text><text fill="#000000" font-family="sans-serif" font-size="14" lengthAdjust="spacing" textLength="149.0166" x="91.5" y="157.752">+DataJob(...) : IDataJob</text><text fill="#000000" font-family="sans-serif" font-size="14" lengthAdjust="spacing" textLength="208.1611" x="91.5" y="175.3613">+DataJobRoot(...) : IDataJobRoot</text></g><!--class DataJobT--><g class="entity" data-qualified-name="TplQueue.Core.DataJobT" data-source-line="25" id="ent0010"><rect fill="#F1F1F1" height="43.6094" rx="2.5" ry="2.5" style="stroke:#181818;stroke-width:0.5;" width="112.8398" x="46.5" y="269.5"/><text fill="#000000" font-family="sans-serif" font-size="14" lengthAdjust="spacing" textLength="52.1445" x="49.5" y="289.0332">DataJob</text><rect fill="#FFFFFF" height="17.0938" style="stroke:#181818;stroke-width:1;stroke-dasharray:2,2;" width="52.6953" x="109.6445" y="266.5"/><text fill="#000000" font-family="sans-serif" font-size="12" font-style="italic" lengthAdjust="spacing" textLength="50.6953" x="110.6445" y="279.957">TPayload</text><line style="stroke:#181818;stroke-width:0.5;" x1="47.5" x2="158.3398" y1="297.1094" y2="297.1094"/><line style="stroke:#181818;stroke-width:0.5;" x1="47.5" x2="158.3398" y1="305.1094" y2="305.1094"/></g><!--class DataJobRootT--><g class="entity" data-qualified-name="TplQueue.Core.DataJobRootT" data-source-line="26" id="ent0011"><rect fill="#F1F1F1" height="43.6094" rx="2.5" ry="2.5" style="stroke:#181818;stroke-width:0.5;" width="142.4121" x="195" y="269.5"/><text fill="#000000" font-family="sans-serif" font-size="14" lengthAdjust="spacing" textLength="81.7168" x="198" y="289.0332">DataJobRoot</text><rect fill="#FFFFFF" height="17.0938" style="stroke:#181818;stroke-width:1;stroke-dasharray:2,2;" width="52.6953" x="287.7168" y="266.5"/><text fill="#000000" font-family="sans-serif" font-size="12" font-style="italic" lengthAdjust="spacing" textLength="50.6953" x="288.7168" y="279.957">TPayload</text><line style="stroke:#181818;stroke-width:0.5;" x1="196" x2="336.4121" y1="297.1094" y2="297.1094"/><line style="stroke:#181818;stroke-width:0.5;" x1="196" x2="336.4121" y1="305.1094" y2="305.1094"/></g><!--link DataJobFactory to IDataJobFactory--><g class="link" data-entity-1="ent0009" data-entity-2="ent0003" data-link-type="extension" data-source-line="29" id="lnk12"><path codeLine="29" d="M289.33,182.01 C289.33,217.98 289.33,261 289.33,261 C289.33,261 552.59,261 713.82,261" fill="none" id="DataJobFactory-to-IDataJobFactory" style="stroke:#181818;stroke-width:1;stroke-dasharray:7,7;"/><polygon fill="none" points="731.82,261,713.82,255,713.82,267,731.82,261" style="stroke:#181818;stroke-width:1;"/></g><!--reverse link DataJobFactory to IJobFactory--><g class="link" data-entity-1="ent0009" data-entity-2="ent0005" data-link-type="composition" data-source-line="30" id="lnk13"><path codeLine="30" d="M348.72,134 C480.62,134 657,134 657,134 C657,134 657,225.85 657,269.27" fill="none" id="DataJobFactory-backto-IJobFactory" style="stroke:#181818;stroke-width:1;"/><polygon fill="#181818" points="336.72,134,342.72,138,348.72,134,342.72,130,336.72,134" style="stroke:#181818;stroke-width:1;"/><text fill="#000000" font-family="sans-serif" font-size="13" lengthAdjust="spacing" textLength="27.46" x="536.49" y="130.4951">uses</text></g><!--link DataJobFactory to DataJobT--><g class="link" data-entity-1="ent0009" data-entity-2="ent0010" data-link-type="dependency" data-source-line="31" id="lnk14"><path codeLine="31" d="M122.5,182.11 C122.5,211.06 122.5,240.55 122.5,263.1" fill="none" id="DataJobFactory-to-DataJobT" style="stroke:#181818;stroke-width:1;stroke-dasharray:7,7;"/><polygon fill="#181818" points="122.5,269.1,126.5,260.1,122.5,264.1,118.5,260.1,122.5,269.1" style="stroke:#181818;stroke-width:1;"/><text fill="#000000" font-family="sans-serif" font-size="13" lengthAdjust="spacing" textLength="42.6309" x="79.5" y="222.1051">creates</text></g><!--link DataJobFactory to DataJobRootT--><g class="link" data-entity-1="ent0009" data-entity-2="ent0011" data-link-type="dependency" data-source-line="32" id="lnk15"><path codeLine="32" d="M242.17,182.11 C242.17,211.06 242.17,240.55 242.17,263.1" fill="none" id="DataJobFactory-to-DataJobRootT" style="stroke:#181818;stroke-width:1;stroke-dasharray:7,7;"/><polygon fill="#181818" points="242.17,269.1,246.17,260.1,242.17,264.1,238.17,260.1,242.17,269.1" style="stroke:#181818;stroke-width:1;"/><text fill="#000000" font-family="sans-serif" font-size="13" lengthAdjust="spacing" textLength="42.6309" x="199.17" y="222.1051">creates</text></g><?plantuml-src hP3BJiCm44Nt-OfHLWNKY3Mg8bK5fBBYaH-OEDFMrFL4zaHGeFzEOgeaRI9MNNhkqVZS4Iv1678MuHqKsf4IpJRoMsrBTBW3eot9lYHW9nlk1Nw31NzekuOL6a-zH1dqVYxYT5u9BHNRD_r5S1jjT46Wj5E6egX4jSKrGPoLvgMYYf9vxiLX4F0np6OFdqBEeabJ-8u0jAsVArG4otiKVEByiORPxKCAS7ESJf8akOAxbZe9Nvdb76XcDNI8JZ_fFXZzV7GOLXt6oYtOKHnCmtbWlCB24GfDtjkWxzdPNAZidqbyJ6RPC-uDOv76WArWDk2Q3UDiasHD_RDoIVAJ3bgSCTVJQV_ajN7boGytfQrOZQXmhl-eeDIHlm00?></g></svg>