<?plantuml 1.2026.2?><svg xmlns="http://www.w3.org/2000/svg" xmlns:xlink="http://www.w3.org/1999/xlink" contentStyleType="text/css" data-diagram-type="DESCRIPTION" height="571px" preserveAspectRatio="none" style="width:1043px;height:571px;background:#FFFFFF;" version="1.1" viewBox="0 0 1043 571" width="1043px" zoomAndPan="magnify"><defs/><g><!--cluster Abstractions--><g class="cluster" data-qualified-name="Abstractions" data-source-line="10" id="ent0003"><rect fill="none" height="146" rx="2.5" ry="2.5" style="stroke:#181818;stroke-width:1;" width="550" x="334" y="419"/><text fill="#000000" font-family="sans-serif" font-size="14" font-style="italic" lengthAdjust="spacing" textLength="66.9307" x="575.5347" y="435.5332">&#171;External&#187;</text><text fill="#000000" font-family="sans-serif" font-size="14" font-weight="bold" lengthAdjust="spacing" textLength="154.0205" x="531.9897" y="453.1426">TplQueue.Abstractions</text></g><!--cluster Core--><g class="cluster" data-qualified-name="Core" data-source-line="21" id="ent0012"><rect fill="none" height="372" rx="2.5" ry="2.5" style="stroke:#181818;stroke-width:1;" width="773" x="7" y="7"/><text fill="#000000" font-family="sans-serif" font-size="14" font-weight="bold" lengthAdjust="spacing" textLength="100.3447" x="343.3276" y="23.5332">TplQueue.Core</text></g><!--cluster Factories--><g class="cluster" data-qualified-name="Core.Factories" data-source-line="24" id="ent0014"><rect fill="none" height="100" rx="2.5" ry="2.5" style="stroke:#181818;stroke-width:1;" width="479" x="261" y="123"/><text fill="#000000" font-family="sans-serif" font-size="14" font-weight="bold" lengthAdjust="spacing" textLength="62.248" x="469.376" y="139.5332">Factories</text></g><!--cluster Execution--><g class="cluster" data-qualified-name="Core.Execution" data-source-line="30" id="ent0018"><rect fill="none" height="224" rx="2.5" ry="2.5" style="stroke:#181818;stroke-width:1;" width="198" x="39" y="123"/><text fill="#000000" font-family="sans-serif" font-size="14" font-weight="bold" lengthAdjust="spacing" textLength="66.9033" x="104.5483" y="139.5332">Execution</text></g><!--cluster Queues--><g class="cluster" data-qualified-name="Core.Queues" data-source-line="35" id="ent0021"><rect fill="none" height="100" rx="2.5" ry="2.5" style="stroke:#181818;stroke-width:1;" width="366" x="261" y="247"/><text fill="#000000" font-family="sans-serif" font-size="14" font-weight="bold" lengthAdjust="spacing" textLength="51.3516" x="418.3242" y="263.5332">Queues</text></g><!--entity ICoreApi--><g class="entity" data-qualified-name="Abstractions.ICoreApi" data-source-line="11" id="ent0004"><ellipse cx="832" cy="511" fill="#F1F1F1" rx="8" ry="8" style="stroke:#181818;stroke-width:0.5;"/><text fill="#000000" font-family="sans-serif" font-size="14" lengthAdjust="spacing" textLength="54.4688" x="804.7656" y="542.5332">ICoreApi</text></g><!--entity IQFactory--><g class="entity" data-qualified-name="Abstractions.IQFactory" data-source-line="12" id="ent0005"><ellipse cx="779" cy="511" fill="#F1F1F1" rx="8" ry="8" style="stroke:#181818;stroke-width:0.5;"/><text fill="#000000" font-family="sans-serif" font-size="14" lengthAdjust="spacing" textLength="61.4551" x="748.2725" y="542.5332">IQFactory</text></g><!--entity IJobFactory--><g class="entity" data-qualified-name="Abstractions.IJobFactory" data-source-line="13" id="ent0006"><ellipse cx="673" cy="511" fill="#F1F1F1" rx="8" ry="8" style="stroke:#181818;stroke-width:0.5;"/><text fill="#000000" font-family="sans-serif" font-size="14" lengthAdjust="spacing" textLength="73.1377" x="636.4312" y="542.5332">IJobFactory</text></g><!--entity IDataJobFactory--><g class="entity" data-qualified-name="Abstractions.IDataJobFactory" data-source-line="14" id="ent0007"><ellipse cx="726" cy="511" fill="#F1F1F1" rx="8" ry="8" style="stroke:#181818;stroke-width:0.5;"/><text fill="#000000" font-family="sans-serif" font-size="14" lengthAdjust="spacing" textLength="102.71" x="674.645" y="542.5332">IDataJobFactory</text></g><!--entity IParallelQ--><g class="entity" data-qualified-name="Abstractions.IParallelQ" data-source-line="15" id="ent0008"><ellipse cx="620" cy="511" fill="#F1F1F1" rx="8" ry="8" style="stroke:#181818;stroke-width:0.5;"/><text fill="#000000" font-family="sans-serif" font-size="14" lengthAdjust="spacing" textLength="61.4688" x="589.2656" y="542.5332">IParallelQ</text></g><!--entity IFifoQ--><g class="entity" data-qualified-name="Abstractions.IFifoQ" data-source-line="16" id="ent0009"><ellipse cx="567" cy="511" fill="#F1F1F1" rx="8" ry="8" style="stroke:#181818;stroke-width:0.5;"/><text fill="#000000" font-family="sans-serif" font-size="14" lengthAdjust="spacing" textLength="38.1172" x="547.9414" y="542.5332">IFifoQ</text></g><!--entity ICacheQ--><g class="entity" data-qualified-name="Abstractions.ICacheQ" data-source-line="17" id="ent0010"><ellipse cx="367" cy="511" fill="#F1F1F1" rx="8" ry="8" style="stroke:#181818;stroke-width:0.5;"/><text fill="#000000" font-family="sans-serif" font-size="14" lengthAdjust="spacing" textLength="55.248" x="339.376" y="542.5332">ICacheQ</text></g><!--entity IDataJobCache--><g class="entity" data-qualified-name="Abstractions.IDataJobCache" data-source-line="18" id="ent0011"><ellipse cx="467" cy="511" fill="#F1F1F1" rx="8" ry="8" style="stroke:#181818;stroke-width:0.5;"/><text fill="#000000" font-family="sans-serif" font-size="14" lengthAdjust="spacing" textLength="96.5029" x="418.7485" y="542.5332">IDataJobCache</text></g><!--entity CoreApi--><g class="entity" data-qualified-name="Core.CoreApi" data-source-line="22" id="ent0013"><rect fill="#F1F1F1" height="47.6094" rx="2.5" ry="2.5" style="stroke:#181818;stroke-width:0.5;" width="90.5791" x="529.5" y="51"/><rect fill="#F1F1F1" height="10" style="stroke:#181818;stroke-width:0.5;" width="15" x="600.0791" y="56"/><rect fill="#F1F1F1" height="2" style="stroke:#181818;stroke-width:0.5;" width="4" x="598.0791" y="58"/><rect fill="#F1F1F1" height="2" style="stroke:#181818;stroke-width:0.5;" width="4" x="598.0791" y="62"/><text fill="#000000" font-family="sans-serif" font-size="14" lengthAdjust="spacing" textLength="50.5791" x="544.5" y="85.5332">CoreApi</text></g><!--entity CoreQFactory--><g class="entity" data-qualified-name="Core.Factories.CoreQFactory" data-source-line="25" id="ent0015"><rect fill="#F1F1F1" height="47.6094" rx="2.5" ry="2.5" style="stroke:#181818;stroke-width:0.5;" width="127.9102" x="596" y="159"/><rect fill="#F1F1F1" height="10" style="stroke:#181818;stroke-width:0.5;" width="15" x="703.9102" y="164"/><rect fill="#F1F1F1" height="2" style="stroke:#181818;stroke-width:0.5;" width="4" x="701.9102" y="166"/><rect fill="#F1F1F1" height="2" style="stroke:#181818;stroke-width:0.5;" width="4" x="701.9102" y="170"/><text fill="#000000" font-family="sans-serif" font-size="14" lengthAdjust="spacing" textLength="87.9102" x="611" y="193.5332">CoreQFactory</text></g><!--entity JobFactory--><g class="entity" data-qualified-name="Core.Factories.JobFactory" data-source-line="26" id="ent0016"><rect fill="#F1F1F1" height="47.6094" rx="2.5" ry="2.5" style="stroke:#181818;stroke-width:0.5;" width="109.248" x="277.5" y="159"/><rect fill="#F1F1F1" height="10" style="stroke:#181818;stroke-width:0.5;" width="15" x="366.748" y="164"/><rect fill="#F1F1F1" height="2" style="stroke:#181818;stroke-width:0.5;" width="4" x="364.748" y="166"/><rect fill="#F1F1F1" height="2" style="stroke:#181818;stroke-width:0.5;" width="4" x="364.748" y="170"/><text fill="#000000" font-family="sans-serif" font-size="14" lengthAdjust="spacing" textLength="69.248" x="292.5" y="193.5332">JobFactory</text></g><!--entity DataJobFactory--><g class="entity" data-qualified-name="Core.Factories.DataJobFactory" data-source-line="27" id="ent0017"><rect fill="#F1F1F1" height="47.6094" rx="2.5" ry="2.5" style="stroke:#181818;stroke-width:0.5;" width="138.8203" x="421.5" y="159"/><rect fill="#F1F1F1" height="10" style="stroke:#181818;stroke-width:0.5;" width="15" x="540.3203" y="164"/><rect fill="#F1F1F1" height="2" style="stroke:#181818;stroke-width:0.5;" width="4" x="538.3203" y="166"/><rect fill="#F1F1F1" height="2" style="stroke:#181818;stroke-width:0.5;" width="4" x="538.3203" y="170"/><text fill="#000000" font-family="sans-serif" font-size="14" lengthAdjust="spacing" textLength="98.8203" x="436.5" y="193.5332">DataJobFactory</text></g><!--entity JobGraph--><g class="entity" data-qualified-name="Core.Execution.JobGraph" data-source-line="31" id="ent0019"><rect fill="#F1F1F1" height="47.6094" rx="2.5" ry="2.5" style="stroke:#181818;stroke-width:0.5;" width="101.4824" x="119.5" y="283"/><rect fill="#F1F1F1" height="10" style="stroke:#181818;stroke-width:0.5;" width="15" x="200.9824" y="288"/><rect fill="#F1F1F1" height="2" style="stroke:#181818;stroke-width:0.5;" width="4" x="198.9824" y="290"/><rect fill="#F1F1F1" height="2" style="stroke:#181818;stroke-width:0.5;" width="4" x="198.9824" y="294"/><text fill="#000000" font-family="sans-serif" font-size="14" lengthAdjust="spacing" textLength="61.4824" x="134.5" y="317.5332">JobGraph</text></g><!--entity QueueOrchestration--><g class="entity" data-qualified-name="Core.Execution.QueueOrchestration" data-source-line="32" id="ent0020"><rect fill="#F1F1F1" height="47.6094" rx="2.5" ry="2.5" style="stroke:#181818;stroke-width:0.5;" width="166.0684" x="55" y="159"/><rect fill="#F1F1F1" height="10" style="stroke:#181818;stroke-width:0.5;" width="15" x="201.0684" y="164"/><rect fill="#F1F1F1" height="2" style="stroke:#181818;stroke-width:0.5;" width="4" x="199.0684" y="166"/><rect fill="#F1F1F1" height="2" style="stroke:#181818;stroke-width:0.5;" width="4" x="199.0684" y="170"/><text fill="#000000" font-family="sans-serif" font-size="14" lengthAdjust="spacing" textLength="126.0684" x="70" y="193.5332">QueueOrchestration</text></g><!--entity ParallelQ--><g class="entity" data-qualified-name="Core.Queues.ParallelQ" data-source-line="36" id="ent0022"><rect fill="#F1F1F1" height="47.6094" rx="2.5" ry="2.5" style="stroke:#181818;stroke-width:0.5;" width="97.5791" x="513" y="283"/><rect fill="#F1F1F1" height="10" style="stroke:#181818;stroke-width:0.5;" width="15" x="590.5791" y="288"/><rect fill="#F1F1F1" height="2" style="stroke:#181818;stroke-width:0.5;" width="4" x="588.5791" y="290"/><rect fill="#F1F1F1" height="2" style="stroke:#181818;stroke-width:0.5;" width="4" x="588.5791" y="294"/><text fill="#000000" font-family="sans-serif" font-size="14" lengthAdjust="spacing" textLength="57.5791" x="528" y="317.5332">ParallelQ</text></g><!--entity FifoQ--><g class="entity" data-qualified-name="Core.Queues.FifoQ" data-source-line="37" id="ent0023"><rect fill="#F1F1F1" height="47.6094" rx="2.5" ry="2.5" style="stroke:#181818;stroke-width:0.5;" width="74.2275" x="404" y="283"/><rect fill="#F1F1F1" height="10" style="stroke:#181818;stroke-width:0.5;" width="15" x="458.2275" y="288"/><rect fill="#F1F1F1" height="2" style="stroke:#181818;stroke-width:0.5;" width="4" x="456.2275" y="290"/><rect fill="#F1F1F1" height="2" style="stroke:#181818;stroke-width:0.5;" width="4" x="456.2275" y="294"/><text fill="#000000" font-family="sans-serif" font-size="14" lengthAdjust="spacing" textLength="34.2275" x="419" y="317.5332">FifoQ</text></g><!--entity CacheQ--><g class="entity" data-qualified-name="Core.Queues.CacheQ" data-source-line="38" id="ent0024"><rect fill="#F1F1F1" height="47.6094" rx="2.5" ry="2.5" style="stroke:#181818;stroke-width:0.5;" width="91.3584" x="277.5" y="283"/><rect fill="#F1F1F1" height="10" style="stroke:#181818;stroke-width:0.5;" width="15" x="348.8584" y="288"/><rect fill="#F1F1F1" height="2" style="stroke:#181818;stroke-width:0.5;" width="4" x="346.8584" y="290"/><rect fill="#F1F1F1" height="2" style="stroke:#181818;stroke-width:0.5;" width="4" x="346.8584" y="294"/><text fill="#000000" font-family="sans-serif" font-size="14" lengthAdjust="spacing" textLength="51.3584" x="292.5" y="317.5332">CacheQ</text></g><!--entity Consumer--><g class="entity" data-qualified-name="Consumer" data-source-line="8" id="ent0002"><rect fill="#F1F1F1" height="65.2188" rx="2.5" ry="2.5" style="stroke:#181818;stroke-width:0.5;" width="107.3789" x="930.5" y="274.5"/><rect fill="#F1F1F1" height="10" style="stroke:#181818;stroke-width:0.5;" width="15" x="1017.8789" y="279.5"/><rect fill="#F1F1F1" height="2" style="stroke:#181818;stroke-width:0.5;" width="4" x="1015.8789" y="281.5"/><rect fill="#F1F1F1" height="2" style="stroke:#181818;stroke-width:0.5;" width="4" x="1015.8789" y="285.5"/><text fill="#000000" font-family="sans-serif" font-size="14" font-style="italic" lengthAdjust="spacing" textLength="65.3789" x="946.5" y="309.0332">&#171;external&#187;</text><text fill="#000000" font-family="sans-serif" font-size="14" lengthAdjust="spacing" textLength="61.4688" x="948.4551" y="326.6426">consumer</text></g><!--link Consumer to ICoreApi--><g class="link" data-entity-1="ent0002" data-entity-2="ent0004" data-link-type="dependency" data-source-line="42" id="lnk25"><path d="M930.21,334 C887.53,334 835,334 835,334 C835,334 835,459.91 835,495.98" fill="none" id="Consumer-to-ICoreApi" style="stroke:#181818;stroke-width:1;"/><polygon fill="#181818" points="835,501.98,839,492.98,835,496.98,831,492.98,835,501.98" style="stroke:#181818;stroke-width:1;"/><text fill="#000000" font-family="sans-serif" font-size="13" lengthAdjust="spacing" textLength="31.0781" x="803" y="366.8851">binds</text></g><!--link CoreApi to ICoreApi--><g class="link" data-entity-1="ent0013" data-entity-2="ent0004" data-link-type="association" data-source-line="43" id="lnk26"><path d="M620.7,88 C693.83,88 829,88 829,88 C829,88 829,439.91 829,501.77" fill="none" id="CoreApi-ICoreApi" style="stroke:#181818;stroke-width:1;"/></g><!--link CoreApi to CoreQFactory--><g class="link" data-entity-1="ent0013" data-entity-2="ent0015" data-link-type="composition" data-source-line="45" id="lnk27"><path d="M608.25,111.24 C608.25,129.02 608.25,135.08 608.25,152.84" fill="none" id="CoreApi-CoreQFactory" style="stroke:#181818;stroke-width:1;"/><polygon fill="#181818" points="608.25,99.24,604.25,105.24,608.25,111.24,612.25,105.24,608.25,99.24" style="stroke:#181818;stroke-width:1;"/><polygon fill="#181818" points="608.25,158.84,612.25,149.84,608.25,153.84,604.25,149.84,608.25,158.84" style="stroke:#181818;stroke-width:1;"/></g><!--link CoreApi to JobFactory--><g class="link" data-entity-1="ent0013" data-entity-2="ent0016" data-link-type="composition" data-source-line="46" id="lnk28"><path d="M517.29,75 C446.9,75 332,75 332,75 C332,75 332,120.92 332,152.76" fill="none" id="CoreApi-JobFactory" style="stroke:#181818;stroke-width:1;"/><polygon fill="#181818" points="529.29,75,523.29,71,517.29,75,523.29,79,529.29,75" style="stroke:#181818;stroke-width:1;"/><polygon fill="#181818" points="332,158.76,336,149.76,332,153.76,328,149.76,332,158.76" style="stroke:#181818;stroke-width:1;"/></g><!--link CoreApi to DataJobFactory--><g class="link" data-entity-1="ent0013" data-entity-2="ent0017" data-link-type="composition" data-source-line="47" id="lnk29"><path d="M545,111.24 C545,129.02 545,135.08 545,152.84" fill="none" id="CoreApi-DataJobFactory" style="stroke:#181818;stroke-width:1;"/><polygon fill="#181818" points="545,99.24,541,105.24,545,111.24,549,105.24,545,99.24" style="stroke:#181818;stroke-width:1;"/><polygon fill="#181818" points="545,158.84,549,149.84,545,153.84,541,149.84,545,158.84" style="stroke:#181818;stroke-width:1;"/></g><!--link CoreQFactory to IQFactory--><g class="link" data-entity-1="ent0015" data-entity-2="ent0005" data-link-type="association" data-source-line="49" id="lnk30"><path d="M724.18,183 C749.2,183 772,183 772,183 C772,183 772,448.91 772,501.89" fill="none" id="CoreQFactory-IQFactory" style="stroke:#181818;stroke-width:1;"/></g><!--link JobFactory to IJobFactory--><g class="link" data-entity-1="ent0016" data-entity-2="ent0006" data-link-type="association" data-source-line="50" id="lnk31"><path d="M381.25,207.01 C381.25,220.23 381.25,234 381.25,234 C381.25,234 673,234 673,234 C673,234 673,453.72 673,501.78" fill="none" id="JobFactory-IJobFactory" style="stroke:#181818;stroke-width:1;"/></g><!--link DataJobFactory to IDataJobFactory--><g class="link" data-entity-1="ent0017" data-entity-2="ent0007" data-link-type="association" data-source-line="51" id="lnk32"><path d="M544.67,207.28 C544.67,214.73 544.67,221 544.67,221 C544.67,221 720.5,221 720.5,221 C720.5,221 720.5,452.04 720.5,501.68" fill="none" id="DataJobFactory-IDataJobFactory" style="stroke:#181818;stroke-width:1;"/></g><!--link CoreQFactory to ParallelQ--><g class="link" data-entity-1="ent0015" data-entity-2="ent0022" data-link-type="dependency" data-source-line="53" id="lnk33"><path d="M607.25,207.2 C607.25,229.05 607.25,255.03 607.25,276.86" fill="none" id="CoreQFactory-to-ParallelQ" style="stroke:#181818;stroke-width:1;"/><polygon fill="#181818" points="607.25,282.86,611.25,273.86,607.25,277.86,603.25,273.86,607.25,282.86" style="stroke:#181818;stroke-width:1;"/><text fill="#000000" font-family="sans-serif" font-size="13" lengthAdjust="spacing" textLength="42.6309" x="564.25" y="241.5251">creates</text></g><!--link CoreQFactory to FifoQ--><g class="link" data-entity-1="ent0015" data-entity-2="ent0023" data-link-type="dependency" data-source-line="54" id="lnk34"><path d="M603.5,207.22 C603.5,236.25 603.5,281 603.5,281 C603.5,281 459.17,281 459.17,281 C459.17,281 459.17,275.63 459.17,276.71" fill="none" id="CoreQFactory-to-FifoQ" style="stroke:#181818;stroke-width:1;"/><polygon fill="#181818" points="459.17,282.71,463.17,273.71,459.17,277.71,455.17,273.71,459.17,282.71" style="stroke:#181818;stroke-width:1;"/><text fill="#000000" font-family="sans-serif" font-size="13" lengthAdjust="spacing" textLength="42.6309" x="524.37" y="277.4951">creates</text></g><!--link CoreQFactory to CacheQ--><g class="link" data-entity-1="ent0015" data-entity-2="ent0024" data-link-type="dependency" data-source-line="55" id="lnk35"><path d="M599.75,207.22 C599.75,235.66 599.75,279 599.75,279 C599.75,279 323,279 323,279 C323,279 323,274.54 323,276.89" fill="none" id="CoreQFactory-to-CacheQ" style="stroke:#181818;stroke-width:1;"/><polygon fill="#181818" points="323,282.89,327,273.89,323,277.89,319,273.89,323,282.89" style="stroke:#181818;stroke-width:1;"/><text fill="#000000" font-family="sans-serif" font-size="13" lengthAdjust="spacing" textLength="42.6309" x="452.32" y="275.4951">creates</text></g><!--link JobFactory to JobGraph--><g class="link" data-entity-1="ent0016" data-entity-2="ent0019" data-link-type="dependency" data-source-line="57" id="lnk36"><path d="M277.17,175 C266.56,175 258.67,175 258.67,175 C258.67,175 258.67,299 258.67,299 C258.67,299 246.46,299 226.55,299" fill="none" id="JobFactory-to-JobGraph" style="stroke:#181818;stroke-width:1;"/><polygon fill="#181818" points="220.55,299,229.55,303,225.55,299,229.55,295,220.55,299" style="stroke:#181818;stroke-width:1;"/><text fill="#000000" font-family="sans-serif" font-size="13" lengthAdjust="spacing" textLength="70.0908" x="187.67" y="243.3051">creates jobs</text></g><!--link DataJobFactory to JobGraph--><g class="link" data-entity-1="ent0017" data-entity-2="ent0019" data-link-type="dependency" data-source-line="58" id="lnk37"><path d="M440.33,207.21 C440.33,235.06 440.33,277 440.33,277 C440.33,277 200.3,277 200.3,277 C200.3,277 200.3,273.37 200.3,276.78" fill="none" id="DataJobFactory-to-JobGraph" style="stroke:#181818;stroke-width:1;"/><polygon fill="#181818" points="200.3,282.78,204.3,273.78,200.3,277.78,196.3,273.78,200.3,282.78" style="stroke:#181818;stroke-width:1;"/><text fill="#000000" font-family="sans-serif" font-size="13" lengthAdjust="spacing" textLength="99.0044" x="252.32" y="273.4951">creates data jobs</text></g><!--link QueueOrchestration to JobGraph--><g class="link" data-entity-1="ent0020" data-entity-2="ent0019" data-link-type="composition" data-source-line="60" id="lnk38"><path d="M180.1,219.2 C180.1,241.05 180.1,255.03 180.1,276.86" fill="none" id="QueueOrchestration-JobGraph" style="stroke:#181818;stroke-width:1;"/><polygon fill="#181818" points="180.1,207.2,176.1,213.2,180.1,219.2,184.1,213.2,180.1,207.2" style="stroke:#181818;stroke-width:1;"/><polygon fill="#181818" points="180.1,282.86,184.1,273.86,180.1,277.86,176.1,273.86,180.1,282.86" style="stroke:#181818;stroke-width:1;"/></g><!--link QueueOrchestration to ParallelQ--><g class="link" data-entity-1="ent0020" data-entity-2="ent0022" data-link-type="composition" data-source-line="61" id="lnk39"><path d="M159.9,219.2 C159.9,237.68 159.9,248 159.9,248 C159.9,248 528.83,248 528.83,248 C528.83,248 528.83,260.41 528.83,276.66" fill="none" id="QueueOrchestration-ParallelQ" style="stroke:#181818;stroke-width:1;"/><polygon fill="#181818" points="159.9,207.2,155.9,213.2,159.9,219.2,163.9,213.2,159.9,207.2" style="stroke:#181818;stroke-width:1;"/><polygon fill="#181818" points="528.83,282.66,532.83,273.66,528.83,277.66,524.83,273.66,528.83,282.66" style="stroke:#181818;stroke-width:1;"/></g><!--link QueueOrchestration to FifoQ--><g class="link" data-entity-1="ent0020" data-entity-2="ent0023" data-link-type="composition" data-source-line="62" id="lnk40"><path d="M139.7,219.25 C139.7,242.15 139.7,261 139.7,261 C139.7,261 412.75,261 412.75,261 C412.75,261 412.75,265.79 412.75,276.92" fill="none" id="QueueOrchestration-FifoQ" style="stroke:#181818;stroke-width:1;"/><polygon fill="#181818" points="139.7,207.25,135.7,213.25,139.7,219.25,143.7,213.25,139.7,207.25" style="stroke:#181818;stroke-width:1;"/><polygon fill="#181818" points="412.75,282.92,416.75,273.92,412.75,277.92,408.75,273.92,412.75,282.92" style="stroke:#181818;stroke-width:1;"/></g><!--link QueueOrchestration to CacheQ--><g class="link" data-entity-1="ent0020" data-entity-2="ent0024" data-link-type="composition" data-source-line="63" id="lnk41"><path d="M233.16,191 C244.22,191 239.83,191 239.83,191 C239.83,191 239.83,315 239.83,315 C239.83,315 251.8,315 271.04,315" fill="none" id="QueueOrchestration-CacheQ" style="stroke:#181818;stroke-width:1;"/><polygon fill="#181818" points="221.16,191,227.16,195,233.16,191,227.16,187,221.16,191" style="stroke:#181818;stroke-width:1;"/><polygon fill="#181818" points="277.04,315,268.04,311,272.04,315,268.04,319,277.04,315" style="stroke:#181818;stroke-width:1;"/></g><!--link ParallelQ to IParallelQ--><g class="link" data-entity-1="ent0022" data-entity-2="ent0008" data-link-type="association" data-source-line="65" id="lnk42"><path d="M593.5,331.2 C593.5,385.24 593.5,511 593.5,511 C593.5,511 603.09,511 610.73,511" fill="none" id="ParallelQ-IParallelQ" style="stroke:#181818;stroke-width:1;"/></g><!--link FifoQ to IFifoQ--><g class="link" data-entity-1="ent0023" data-entity-2="ent0009" data-link-type="association" data-source-line="66" id="lnk43"><path d="M444.5,331.22 C444.5,334.63 444.5,337 444.5,337 C444.5,337 567,337 567,337 C567,337 567,465.5 567,501.65" fill="none" id="FifoQ-IFifoQ" style="stroke:#181818;stroke-width:1;"/></g><!--link CacheQ to ICacheQ--><g class="link" data-entity-1="ent0024" data-entity-2="ent0010" data-link-type="association" data-source-line="67" id="lnk44"><path d="M361.5,331.2 C361.5,376.37 361.5,471.67 361.5,501.72" fill="none" id="CacheQ-ICacheQ" style="stroke:#181818;stroke-width:1;"/></g><!--link CacheQ to IDataJobCache--><g class="link" data-entity-1="ent0024" data-entity-2="ent0011" data-link-type="aggregation" data-source-line="68" id="lnk45"><path d="M365,343.19 C365,393.33 365,492 365,492 C365,492 457.84,492 460.93,492" fill="none" id="CacheQ-IDataJobCache" style="stroke:#181818;stroke-width:1;"/><polygon fill="none" points="365,331.19,361,337.19,365,343.19,369,337.19,365,331.19" style="stroke:#181818;stroke-width:1;"/><polygon fill="#181818" points="466.93,492,457.93,488,461.93,492,457.93,496,466.93,492" style="stroke:#181818;stroke-width:1;"/><text fill="#000000" font-family="sans-serif" font-size="13" lengthAdjust="spacing" textLength="37.5781" x="327" y="459.0551">leases</text></g><!--link Core to Abstractions--><g class="link" data-entity-1="ent0012" data-entity-2="ent0003" data-link-type="dependency" data-source-line="70" id="lnk46"><path d="M780.299,75 C780.5211,75 780.747,75 780.9765,75 C781.4355,75 781.9093,75 782.3971,75 C783.3727,75 784.4044,75 785.4868,75 C787.6515,75 790.0188,75 792.5447,75 C802.6481,75 815.2887,75 827.6525,75 C852.38,75 876,75 876,75 C876,75 876,178.95 876,285.3362 C876,311.9328 876,338.6816 876,363.9966 C876,376.6541 876,388.9531 876,400.6953 C876,406.5664 876,406.2984 876,411.8664" fill="none" id="Core-to-Abstractions" style="stroke:#181818;stroke-width:1;stroke-dasharray:7,7;"/><polygon fill="#181818" points="876,417.8664,880,408.8664,876,412.8664,872,408.8664,876,417.8664" style="stroke:#181818;stroke-width:1;"/><text fill="#000000" font-family="sans-serif" font-size="13" lengthAdjust="spacing" textLength="124.3062" x="751" y="237.4751">depends on contracts</text></g><?plantuml-src VLJ1ZjiW4Btp5QCSLt8EFQvMaLRfRjLUjb7x0nXFOheO461reoh_Ni0s1jlPez-y6UOz7dPAWrDGA-TK1mqto1nNajXtBZKrj0F19RghHb36jIehs9OswY-N5pXJOJ6hQChUwGL_kQj021Efl8YSm5IdbKJf1ahVYI-avGq2uuPv9aa4s34bRT-XsG6rS1m_uEa9FnmQISNXGCXu8En-Qt7giSVzSssTeL6BZPqvuBjVKZVy8m1S-iypPGZVZyhWi-ObU7hrhSfSI_I7gZVnhzJHUxMVtW0XK9nA-9MVrG8wKjRYQNDoB97Rbl2m_cYLmQXjzdAIvi7KE2p9qRiKo4jw9Zml5UhomahwhJZjvGDP7-vWVPhl-cQeRXTmLFLclDvmVp6Row6Hih5_RdMEJruNMYUpRy7M5BEgEgH4m2FKN3QMJD_L79Q4FOIEmhYYabbJu0lRI3uXd9EcpQG0PotbX53yVAO_DFdZbJ63rA5Taw9Pdn46vp96iUEWELxiJ84_ghQhZRUfZMSDVBAEGZ9rICuzmXo4UumX4lUgOpZ8R5YLF-J1ecfwnACXLNh18w1YcF8Nx6KAf3Pu5b_hVdye_rEFqA16dpdmg_WVOQpO_m00?></g></svg>