<?plantuml 1.2026.2?><svg xmlns="http://www.w3.org/2000/svg" xmlns:xlink="http://www.w3.org/1999/xlink" contentStyleType="text/css" data-diagram-type="CLASS" height="821px" preserveAspectRatio="none" style="width:407px;height:821px;background:#FFFFFF;" version="1.1" viewBox="0 0 407 821" width="407px" zoomAndPan="magnify"><defs/><g><!--cluster TplQueue--><g class="cluster" data-qualified-name="TplQueue" data-source-line="8" id="ent0004"><path d="M8.5,6 L74.0586,6 A3.75,3.75 0 0 1 76.5586,8.5 L83.5586,29.6094 L397.5,29.6094 A2.5,2.5 0 0 1 400,32.1094 L400,811.5 A2.5,2.5 0 0 1 397.5,814 L8.5,814 A2.5,2.5 0 0 1 6,811.5 L6,8.5 A2.5,2.5 0 0 1 8.5,6" fill="none" style="stroke:#000000;stroke-width:1.5;"/><line style="stroke:#000000;stroke-width:1.5;" x1="6" x2="83.5586" y1="29.6094" y2="29.6094"/><text fill="#000000" font-family="sans-serif" font-size="14" font-weight="bold" lengthAdjust="spacing" textLength="64.5586" x="10" y="22.5332">TplQueue</text></g><!--cluster Abstractions--><g class="cluster" data-qualified-name="TplQueue.Abstractions" data-source-line="7" id="ent0002"><path d="M141.5,555 L228.0723,555 A3.75,3.75 0 0 1 230.5723,557.5 L237.5723,578.6094 L336.5,578.6094 A2.5,2.5 0 0 1 339,581.1094 L339,787.5 A2.5,2.5 0 0 1 336.5,790 L141.5,790 A2.5,2.5 0 0 1 139,787.5 L139,557.5 A2.5,2.5 0 0 1 141.5,555" fill="none" style="stroke:#000000;stroke-width:1.5;"/><line style="stroke:#000000;stroke-width:1.5;" x1="139" x2="237.5723" y1="578.6094" y2="578.6094"/><text fill="#000000" font-family="sans-serif" font-size="14" font-weight="bold" lengthAdjust="spacing" textLength="85.5723" x="143" y="571.5332">Abstractions</text><text fill="#000000" font-family="sans-serif" font-size="14" font-style="italic" lengthAdjust="spacing" textLength="66.9307" x="209.5347" y="595.1426">&#171;External&#187;</text></g><!--cluster Core--><g class="cluster" data-qualified-name="TplQueue.Core" data-source-line="15" id="ent0006"><path d="M32.5,50 L65.3965,50 A3.75,3.75 0 0 1 67.8965,52.5 L74.8965,73.6094 L373.5,73.6094 A2.5,2.5 0 0 1 376,76.1094 L376,528.5 A2.5,2.5 0 0 1 373.5,531 L32.5,531 A2.5,2.5 0 0 1 30,528.5 L30,52.5 A2.5,2.5 0 0 1 32.5,50" fill="none" style="stroke:#000000;stroke-width:1.5;"/><line style="stroke:#000000;stroke-width:1.5;" x1="30" x2="74.8965" y1="73.6094" y2="73.6094"/><text fill="#000000" font-family="sans-serif" font-size="14" font-weight="bold" lengthAdjust="spacing" textLength="31.8965" x="34" y="66.5332">Core</text></g><!--class IParallelQ--><g class="entity" data-qualified-name="TplQueue.Abstractions.IParallelQ" data-source-line="8" id="ent0003"><rect fill="#F1F1F1" height="43.6094" rx="2.5" ry="2.5" style="stroke:#181818;stroke-width:0.5;" width="67.4688" x="180.5" y="730"/><text fill="#000000" font-family="sans-serif" font-size="14" font-style="italic" lengthAdjust="spacing" textLength="61.4688" x="183.5" y="749.5332">IParallelQ</text><line style="stroke:#181818;stroke-width:0.5;" x1="181.5" x2="246.9688" y1="757.6094" y2="757.6094"/><line style="stroke:#181818;stroke-width:0.5;" x1="181.5" x2="246.9688" y1="765.6094" y2="765.6094"/></g><!--class IParallelJobQAdapter--><g class="entity" data-qualified-name="TplQueue.Abstractions.IParallelJobQAdapter" data-source-line="10" id="ent0005"><rect fill="#F1F1F1" height="61.2188" rx="2.5" ry="2.5" style="stroke:#181818;stroke-width:0.5;" width="168.0029" x="155" y="609"/><text fill="#000000" font-family="sans-serif" font-size="14" font-style="italic" lengthAdjust="spacing" textLength="133.0752" x="172.4639" y="628.5332">IParallelJobQAdapter</text><line style="stroke:#181818;stroke-width:0.5;" x1="156" x2="322.0029" y1="636.6094" y2="636.6094"/><line style="stroke:#181818;stroke-width:0.5;" x1="156" x2="322.0029" y1="644.6094" y2="644.6094"/><text fill="#000000" font-family="sans-serif" font-size="14" lengthAdjust="spacing" textLength="156.0029" x="161" y="663.1426">+GetInnerQ() : IParallelQ</text></g><!--class ParallelQAdapter--><g class="entity" data-qualified-name="TplQueue.Core.ParallelQAdapter" data-source-line="16" id="ent0007"><rect fill="#F1F1F1" height="325.3594" rx="2.5" ry="2.5" style="stroke:#181818;stroke-width:0.5;" width="313.5742" x="46" y="190"/><text fill="#000000" font-family="sans-serif" font-size="14" lengthAdjust="spacing" textLength="106.6133" x="149.4805" y="209.5332">ParallelQAdapter</text><line style="stroke:#181818;stroke-width:0.5;" x1="47" x2="358.5742" y1="217.6094" y2="217.6094"/><text fill="#000000" font-family="sans-serif" font-size="14" lengthAdjust="spacing" textLength="301.5742" x="52" y="236.1426">+OnJobEventChanged : Func&lt;IJobEvent, Task&gt;</text><text fill="#000000" font-family="sans-serif" font-size="14" lengthAdjust="spacing" textLength="115.5684" x="52" y="253.752">+IsDisposed : bool</text><text fill="#000000" font-family="sans-serif" font-size="14" lengthAdjust="spacing" textLength="91.4238" x="52" y="271.3613">+Name : string</text><text fill="#000000" font-family="sans-serif" font-size="14" lengthAdjust="spacing" textLength="129.541" x="52" y="288.9707">+MaxParallelism : int</text><text fill="#000000" font-family="sans-serif" font-size="14" lengthAdjust="spacing" textLength="259.4717" x="52" y="306.5801">+RetryPolicyFactory : Func&lt;IRetryPolicy&gt;</text><text fill="#000000" font-family="sans-serif" font-size="14" lengthAdjust="spacing" textLength="191.8232" x="52" y="324.1895">+Semaphore : SemaphoreSlim</text><text fill="#000000" font-family="sans-serif" font-size="14" lengthAdjust="spacing" textLength="103.127" x="52" y="341.7988">+QueueId : Guid</text><line style="stroke:#181818;stroke-width:0.5;" x1="47" x2="358.5742" y1="348.875" y2="348.875"/><text fill="#000000" font-family="sans-serif" font-size="14" lengthAdjust="spacing" textLength="105.4307" x="52" y="367.4082">+Dispose() : void</text><text fill="#000000" font-family="sans-serif" font-size="14" lengthAdjust="spacing" textLength="156.0029" x="52" y="385.0176">+GetInnerQ() : IParallelQ</text><text fill="#000000" font-family="sans-serif" font-size="14" lengthAdjust="spacing" textLength="158.3613" x="52" y="402.627">+Enqueue(...) : IParallelQ</text><text fill="#000000" font-family="sans-serif" font-size="14" lengthAdjust="spacing" textLength="181.6992" x="52" y="420.2363">+EnqueueFifo(...) : IParallelQ</text><text fill="#000000" font-family="sans-serif" font-size="14" lengthAdjust="spacing" textLength="149.0098" x="52" y="437.8457">+ResumePolling() : void</text><text fill="#000000" font-family="sans-serif" font-size="14" lengthAdjust="spacing" textLength="94.5479" x="52" y="455.4551">+Pause() : void</text><text fill="#000000" font-family="sans-serif" font-size="14" lengthAdjust="spacing" textLength="87.5068" x="52" y="473.0645">+Wait() : Task</text><text fill="#000000" font-family="sans-serif" font-size="14" lengthAdjust="spacing" textLength="247.7754" x="52" y="490.6738">+SetRetryPolicyFactory(retryPolicy) : IQ</text><text fill="#000000" font-family="sans-serif" font-size="14" lengthAdjust="spacing" textLength="219.0439" x="52" y="508.2832">+Subscribe(observer) : IDisposable</text></g><!--class CacheQ--><g class="entity" data-qualified-name="TplQueue.Core.CacheQ" data-source-line="35" id="ent0008"><rect fill="#F1F1F1" height="43.6094" rx="2.5" ry="2.5" style="stroke:#181818;stroke-width:0.5;" width="57.3584" x="174.5" y="86"/><text fill="#000000" font-family="sans-serif" font-size="14" lengthAdjust="spacing" textLength="51.3584" x="177.5" y="105.5332">CacheQ</text><line style="stroke:#181818;stroke-width:0.5;" x1="175.5" x2="230.8584" y1="113.6094" y2="113.6094"/><line style="stroke:#181818;stroke-width:0.5;" x1="175.5" x2="230.8584" y1="121.6094" y2="121.6094"/></g><!--link IParallelJobQAdapter to IParallelQ--><g class="link" data-entity-1="ent0005" data-entity-2="ent0003" data-link-type="extension" data-source-line="38" id="lnk9"><path codeLine="38" d="M214,670.24 C214,689.11 214,694.83 214,711.86" fill="none" id="IParallelJobQAdapter-to-IParallelQ" style="stroke:#181818;stroke-width:1;"/><polygon fill="none" points="214,729.86,220,711.86,208,711.86,214,729.86" style="stroke:#181818;stroke-width:1;"/></g><!--link ParallelQAdapter to IParallelJobQAdapter--><g class="link" data-entity-1="ent0007" data-entity-2="ent0005" data-link-type="extension" data-source-line="39" id="lnk10"><path codeLine="39" d="M239,515.29 C239,551.22 239,567.51 239,590.92" fill="none" id="ParallelQAdapter-to-IParallelJobQAdapter" style="stroke:#181818;stroke-width:1;stroke-dasharray:7,7;"/><polygon fill="none" points="239,608.92,245,590.92,233,590.92,239,608.92" style="stroke:#181818;stroke-width:1;"/></g><!--reverse link ParallelQAdapter to IParallelQ--><g class="link" data-entity-1="ent0007" data-entity-2="ent0003" data-link-type="composition" data-source-line="40" id="lnk11"><path codeLine="40" d="M100.5,527.28 C100.5,637.82 100.5,752 100.5,752 C100.5,752 146.8,752 180.25,752" fill="none" id="ParallelQAdapter-backto-IParallelQ" style="stroke:#181818;stroke-width:1;"/><polygon fill="#181818" points="100.5,515.28,96.5,521.28,100.5,527.28,104.5,521.28,100.5,515.28" style="stroke:#181818;stroke-width:1;"/><text fill="#000000" font-family="sans-serif" font-size="13" lengthAdjust="spacing" textLength="34.6772" x="65.5" y="670.0151">wraps</text></g><!--link CacheQ to ParallelQAdapter--><g class="link" data-entity-1="ent0008" data-entity-2="ent0007" data-link-type="extension" data-source-line="41" id="lnk12"><path codeLine="41" d="M203,130.13 C203,145.12 203,148.43 203,171.99" fill="none" id="CacheQ-to-ParallelQAdapter" style="stroke:#181818;stroke-width:1;"/><polygon fill="none" points="203,189.99,209,171.99,197,171.99,203,189.99" style="stroke:#181818;stroke-width:1;"/></g><?plantuml-src VL9TRzf047pthrZnH3-m-bmX94GXSgMq42BrUNrUy8dphNDt9g5j_dlNPo0MqBpvPdPtPiSRk8R0a7C8N46X7QcWsIP-fssD3Yimsb8ur0JiGiazmfTOyBEsMzYWyTHZb47lfo4udJU1CiLshNyJV4bANH0exPIX9AbHxN1BC7YipQgXXj9fxeF3QC0FO3oUlmHo5ira0dyI06tbkK55a2r5nnWog-Gs_ftprRJ0MeZO2l3fZa9cBRdLy0DyxKy0U4rURzcPiQD1R8yBmRdbOl9FAtBpFTamAz5kgP3vYyQgSNR2FyCZ-jsaAy_yD-rhzh4kPpOT_0Ch4a0Ia4Wxw1vVJfhQLqBAfXtpGC4TbcoqEYmaC7Q7isQFEWgkgSAwb6MavlozDhhgwBXirfgvQtJHOKU7CQezdz1t8XHsRf_QISCqJT-X5th3_ojv8DzK9DxbvhONsajihlpyGXqYrAPxsZLSPpDqRr3KFUgjczmhEL8QSkx9xSb5jbiUSpdIzZRE_t-6ggHLUoitxsmq-ZlfhtHrBcdQB-YrNfT-78rweyJKiyFQ9vs3Jkcovny0?></g></svg>