<?plantuml 1.2026.2?><svg xmlns="http://www.w3.org/2000/svg" xmlns:xlink="http://www.w3.org/1999/xlink" contentStyleType="text/css" data-diagram-type="CLASS" height="858px" preserveAspectRatio="none" style="width:973px;height:858px;background:#FFFFFF;" version="1.1" viewBox="0 0 973 858" width="973px" zoomAndPan="magnify"><defs/><g><!--cluster TplQueue--><g class="cluster" data-qualified-name="TplQueue" data-source-line="8" id="ent0004"><path d="M8.5,6 L74.0586,6 A3.75,3.75 0 0 1 76.5586,8.5 L83.5586,29.6094 L963.5,29.6094 A2.5,2.5 0 0 1 966,32.1094 L966,848.5 A2.5,2.5 0 0 1 963.5,851 L8.5,851 A2.5,2.5 0 0 1 6,848.5 L6,8.5 A2.5,2.5 0 0 1 8.5,6" fill="none" style="stroke:#000000;stroke-width:1.5;"/><line style="stroke:#000000;stroke-width:1.5;" x1="6" x2="83.5586" y1="29.6094" y2="29.6094"/><text fill="#000000" font-family="sans-serif" font-size="14" font-weight="bold" lengthAdjust="spacing" textLength="64.5586" x="10" y="22.5332">TplQueue</text></g><!--cluster Abstractions--><g class="cluster" data-qualified-name="TplQueue.Abstractions" data-source-line="7" id="ent0002"><path d="M341.5,608 L428.0723,608 A3.75,3.75 0 0 1 430.5723,610.5 L437.5723,631.6094 L731.5,631.6094 A2.5,2.5 0 0 1 734,634.1094 L734,824.5 A2.5,2.5 0 0 1 731.5,827 L341.5,827 A2.5,2.5 0 0 1 339,824.5 L339,610.5 A2.5,2.5 0 0 1 341.5,608" fill="none" style="stroke:#000000;stroke-width:1.5;"/><line style="stroke:#000000;stroke-width:1.5;" x1="339" x2="437.5723" y1="631.6094" y2="631.6094"/><text fill="#000000" font-family="sans-serif" font-size="14" font-weight="bold" lengthAdjust="spacing" textLength="85.5723" x="343" y="624.5332">Abstractions</text><text fill="#000000" font-family="sans-serif" font-size="14" font-style="italic" lengthAdjust="spacing" textLength="66.9307" x="507.0347" y="648.1426">&#171;External&#187;</text></g><!--cluster Core--><g class="cluster" data-qualified-name="TplQueue.Core" data-source-line="20" id="ent0006"><path d="M32.5,50 L65.3965,50 A3.75,3.75 0 0 1 67.8965,52.5 L74.8965,73.6094 L926.5,73.6094 A2.5,2.5 0 0 1 929,76.1094 L929,581.5 A2.5,2.5 0 0 1 926.5,584 L32.5,584 A2.5,2.5 0 0 1 30,581.5 L30,52.5 A2.5,2.5 0 0 1 32.5,50" fill="none" style="stroke:#000000;stroke-width:1.5;"/><line style="stroke:#000000;stroke-width:1.5;" x1="30" x2="74.8965" y1="73.6094" y2="73.6094"/><text fill="#000000" font-family="sans-serif" font-size="14" font-weight="bold" lengthAdjust="spacing" textLength="31.8965" x="34" y="66.5332">Core</text></g><!--class IQ--><g class="entity" data-qualified-name="TplQueue.Abstractions.IQ" data-source-line="8" id="ent0003"><rect fill="#F1F1F1" height="149.2656" rx="2.5" ry="2.5" style="stroke:#181818;stroke-width:0.5;" width="259.7754" x="458" y="662"/><text fill="#000000" font-family="sans-serif" font-size="14" font-style="italic" lengthAdjust="spacing" textLength="14.7793" x="580.498" y="681.5332">IQ</text><line style="stroke:#181818;stroke-width:0.5;" x1="459" x2="716.7754" y1="689.6094" y2="689.6094"/><line style="stroke:#181818;stroke-width:0.5;" x1="459" x2="716.7754" y1="697.6094" y2="697.6094"/><text fill="#000000" font-family="sans-serif" font-size="14" lengthAdjust="spacing" textLength="149.0098" x="464" y="716.1426">+ResumePolling() : void</text><text fill="#000000" font-family="sans-serif" font-size="14" lengthAdjust="spacing" textLength="94.5479" x="464" y="733.752">+Pause() : void</text><text fill="#000000" font-family="sans-serif" font-size="14" lengthAdjust="spacing" textLength="166.9268" x="464" y="751.3613">+Enqueue(jobRoot, ct) : IQ</text><text fill="#000000" font-family="sans-serif" font-size="14" lengthAdjust="spacing" textLength="87.5068" x="464" y="768.9707">+Wait() : Task</text><text fill="#000000" font-family="sans-serif" font-size="14" lengthAdjust="spacing" textLength="247.7754" x="464" y="786.5801">+SetRetryPolicyFactory(retryPolicy) : IQ</text><text fill="#000000" font-family="sans-serif" font-size="14" lengthAdjust="spacing" textLength="219.0439" x="464" y="804.1895">+Subscribe(observer) : IDisposable</text></g><!--class IJobEvent--><g class="entity" data-qualified-name="TplQueue.Abstractions.IJobEvent" data-source-line="17" id="ent0005"><rect fill="#F1F1F1" height="43.6094" rx="2.5" ry="2.5" style="stroke:#181818;stroke-width:0.5;" width="68.2617" x="355" y="714.5"/><text fill="#000000" font-family="sans-serif" font-size="14" font-style="italic" lengthAdjust="spacing" textLength="62.2617" x="358" y="734.0332">IJobEvent</text><line style="stroke:#181818;stroke-width:0.5;" x1="356" x2="422.2617" y1="742.1094" y2="742.1094"/><line style="stroke:#181818;stroke-width:0.5;" x1="356" x2="422.2617" y1="750.1094" y2="750.1094"/></g><!--class JobObserverHub--><g class="entity" data-qualified-name="TplQueue.Core.JobObserverHub" data-source-line="21" id="ent0007"><rect fill="#F1F1F1" height="131.6563" rx="2.5" ry="2.5" style="stroke:#181818;stroke-width:0.5;" width="270.6992" x="46.5" y="436"/><text fill="#000000" font-family="sans-serif" font-size="14" lengthAdjust="spacing" textLength="105.8271" x="128.936" y="455.5332">JobObserverHub</text><line style="stroke:#181818;stroke-width:0.5;" x1="47.5" x2="316.1992" y1="463.6094" y2="463.6094"/><line style="stroke:#181818;stroke-width:0.5;" x1="47.5" x2="316.1992" y1="471.6094" y2="471.6094"/><text fill="#000000" font-family="sans-serif" font-size="14" lengthAdjust="spacing" textLength="162.2441" x="52.5" y="490.1426">+JobObserverHub(logger)</text><text fill="#000000" font-family="sans-serif" font-size="14" lengthAdjust="spacing" textLength="219.0439" x="52.5" y="507.752">+Subscribe(observer) : IDisposable</text><text fill="#000000" font-family="sans-serif" font-size="14" lengthAdjust="spacing" textLength="231.4785" x="52.5" y="525.3613">+Publish(evt, onObserverError) : void</text><text fill="#000000" font-family="sans-serif" font-size="14" lengthAdjust="spacing" textLength="258.6992" x="52.5" y="542.9707">+PublishError(ex, onObserverError) : void</text><text fill="#000000" font-family="sans-serif" font-size="14" lengthAdjust="spacing" textLength="105.4307" x="52.5" y="560.5801">+Dispose() : void</text></g><!--class AsyncOrderedQueueOfJobNode--><g class="entity" data-qualified-name="TplQueue.Core.AsyncOrderedQueueOfJobNode" data-source-line="29" id="ent0008"><rect fill="#F1F1F1" height="78.8281" rx="2.5" ry="2.5" style="stroke:#181818;stroke-width:0.5;" width="560.249" x="353" y="462.5"/><text fill="#000000" font-family="sans-serif" font-size="14" lengthAdjust="spacing" textLength="131.5166" x="539.6816" y="482.0332">AsyncOrderedQueue</text><rect fill="#FFFFFF" height="17.0938" style="stroke:#181818;stroke-width:1;stroke-dasharray:2,2;" width="53.3691" x="862.8799" y="459.5"/><text fill="#000000" font-family="sans-serif" font-size="12" font-style="italic" lengthAdjust="spacing" textLength="51.3691" x="863.8799" y="472.957">IJobNode</text><line style="stroke:#181818;stroke-width:0.5;" x1="354" x2="912.249" y1="490.1094" y2="490.1094"/><line style="stroke:#181818;stroke-width:0.5;" x1="354" x2="912.249" y1="498.1094" y2="498.1094"/><text fill="#000000" font-family="sans-serif" font-size="14" lengthAdjust="spacing" textLength="426.0908" x="359" y="516.6426">+Enqueue(item, jobRootId, isFifo, queueId, cancellationToken) : bool</text><text fill="#000000" font-family="sans-serif" font-size="14" lengthAdjust="spacing" textLength="548.249" x="359" y="534.252">+DequeueAsync(cancellationToken) : Task&lt;(IJobNode, Guid, CancellationToken, bool)&gt;</text></g><!--class QAbstract--><g class="entity" data-qualified-name="TplQueue.Core.QAbstract" data-source-line="34" id="ent0009"><rect fill="#F1F1F1" height="290.1406" rx="2.5" ry="2.5" style="stroke:#181818;stroke-width:0.5;" width="259.7754" x="503" y="86"/><text fill="#000000" font-family="sans-serif" font-size="14" font-style="italic" lengthAdjust="spacing" textLength="62.2412" x="601.7671" y="105.5332">QAbstract</text><line style="stroke:#181818;stroke-width:0.5;" x1="504" x2="761.7754" y1="113.6094" y2="113.6094"/><text fill="#000000" font-family="sans-serif" font-size="14" lengthAdjust="spacing" textLength="45.5205" x="509" y="132.1426">+Name</text><text fill="#000000" font-family="sans-serif" font-size="14" lengthAdjust="spacing" textLength="103.0859" x="509" y="149.752">+MaxParallelism</text><text fill="#000000" font-family="sans-serif" font-size="14" lengthAdjust="spacing" textLength="125.6445" x="509" y="167.3613">+RetryPolicyFactory</text><text fill="#000000" font-family="sans-serif" font-size="14" lengthAdjust="spacing" textLength="80.5547" x="509" y="184.9707">+Semaphore</text><text fill="#000000" font-family="sans-serif" font-size="14" lengthAdjust="spacing" textLength="77.4307" x="509" y="202.5801">+IsDisposed</text><text fill="#000000" font-family="sans-serif" font-size="14" lengthAdjust="spacing" textLength="142.0508" x="509" y="220.1895">+OnJobEventChanged</text><text fill="#000000" font-family="sans-serif" font-size="14" lengthAdjust="spacing" textLength="61.8857" x="509" y="237.7988">+QueueId</text><line style="stroke:#181818;stroke-width:0.5;" x1="504" x2="761.7754" y1="244.875" y2="244.875"/><text fill="#000000" font-family="sans-serif" font-size="14" lengthAdjust="spacing" textLength="149.0098" x="509" y="263.4082">+ResumePolling() : void</text><text fill="#000000" font-family="sans-serif" font-size="14" lengthAdjust="spacing" textLength="94.5479" x="509" y="281.0176">+Pause() : void</text><text fill="#000000" font-family="sans-serif" font-size="14" lengthAdjust="spacing" textLength="219.0439" x="509" y="298.627">+Subscribe(observer) : IDisposable</text><text fill="#000000" font-family="sans-serif" font-size="14" lengthAdjust="spacing" textLength="166.9268" x="509" y="316.2363">+Enqueue(jobRoot, ct) : IQ</text><text fill="#000000" font-family="sans-serif" font-size="14" lengthAdjust="spacing" textLength="105.4307" x="509" y="333.8457">+Dispose() : void</text><text fill="#000000" font-family="sans-serif" font-size="14" lengthAdjust="spacing" textLength="87.5068" x="509" y="351.4551">+Wait() : Task</text><text fill="#000000" font-family="sans-serif" font-size="14" lengthAdjust="spacing" textLength="247.7754" x="509" y="369.0645">+SetRetryPolicyFactory(retryPolicy) : IQ</text></g><!--link QAbstract to IQ--><g class="link" data-entity-1="ent0009" data-entity-2="ent0003" data-link-type="extension" data-source-line="52" id="lnk10"><path codeLine="52" d="M502.84,231 C422.72,231 335.25,231 335.25,231 C335.25,231 335.25,689 335.25,689 C335.25,689 377.99,689 439.92,689" fill="none" id="QAbstract-to-IQ" style="stroke:#181818;stroke-width:1;stroke-dasharray:7,7;"/><polygon fill="none" points="457.92,689,439.92,683,439.92,695,457.92,689" style="stroke:#181818;stroke-width:1;"/></g><!--reverse link QAbstract to AsyncOrderedQueueOfJobNode--><g class="link" data-entity-1="ent0009" data-entity-2="ent0008" data-link-type="composition" data-source-line="53" id="lnk11"><path codeLine="53" d="M676.33,388.02 C676.33,419.86 676.33,438.99 676.33,462.34" fill="none" id="QAbstract-backto-AsyncOrderedQueueOfJobNode" style="stroke:#181818;stroke-width:1;"/><polygon fill="#181818" points="676.33,376.02,672.33,382.02,676.33,388.02,680.33,382.02,676.33,376.02" style="stroke:#181818;stroke-width:1;"/></g><!--reverse link QAbstract to JobObserverHub--><g class="link" data-entity-1="ent0009" data-entity-2="ent0007" data-link-type="composition" data-source-line="54" id="lnk12"><path codeLine="54" d="M589.67,388.16 C589.67,428.75 589.67,450 589.67,450 C589.67,450 436.34,450 317.75,450" fill="none" id="QAbstract-backto-JobObserverHub" style="stroke:#181818;stroke-width:1;"/><polygon fill="#181818" points="589.67,376.16,585.67,382.16,589.67,388.16,593.67,382.16,589.67,376.16" style="stroke:#181818;stroke-width:1;"/></g><!--link JobObserverHub to IJobEvent--><g class="link" data-entity-1="ent0007" data-entity-2="ent0005" data-link-type="dependency" data-source-line="56" id="lnk13"><path codeLine="56" d="M317.76,555 C356.78,555 389,555 389,555 C389,555 389,659.78 389,708.24" fill="none" id="JobObserverHub-to-IJobEvent" style="stroke:#181818;stroke-width:1;stroke-dasharray:7,7;"/><polygon fill="#181818" points="389,714.24,393,705.24,389,709.24,385,705.24,389,714.24" style="stroke:#181818;stroke-width:1;"/></g><?plantuml-src fLDDZzCm4BtdLunwoaAsueogIglIXIAn_PJsx3ZJnDJn1DifBT3_ZkF4QXigTWL7pnlFp7lpnb85bY0bQwc4J6ZaLf2Ap4weYcbMWXGAxR5286qBkW1CmJBwBbGEMoODNY1SCcCUhDKYhItEEAcr-87mBYf4Xi25vXAZg69yntA4mQQIonfh73wanchc1p0368sc1ujQCJaUmyy8G2Ztt3AEC5lw0C3R5Pgwn0L9DsOUty5xs9F8Mcp1QeEzs5HzQrh5NobT4Ta4k6qIPiiMVcR2-XyRPdPjQ8rsXLOVNG_1ZuzkFDB7M9z3b__NTMgueuqnfGRr7hL7FmXJaM6femrmYgwvVAPqkaTbezCjJIQaSU3PUbN1PS-xqf_gDCXm7OqbvRbh_VgP6hNgL0fJnBXtgf0AvQPQa-xfscPw9CR32zbjdwizU0LQEeC7SrHyhZFKc7d6eqQG9yfmF01cu0zylktmm3siL5Wi4-WMEyiI4EPHR2a13pS1pXH7ALbZi0tjK3KpfKIocnHzfkyOtynjN36Amu09VAo5AplffoQ-wDquK6MThplEo-3pmE29bTqIlh33mfsGbEWKBeF5--uBnYnPLJXxjC-PwPJkT9-hOAn9mLGUmijMZ7-xdbTQwOKZk-68_pszKtCyPrs7mr_Z1ZX7tjpV_yLAlSJhQugYtiqDX-FprVu6?></g></svg>