<?plantuml 1.2026.2?><svg xmlns="http://www.w3.org/2000/svg" xmlns:xlink="http://www.w3.org/1999/xlink" contentStyleType="text/css" data-diagram-type="CLASS" height="334px" preserveAspectRatio="none" style="width:652px;height:334px;background:#FFFFFF;" version="1.1" viewBox="0 0 652 334" width="652px" zoomAndPan="magnify"><defs/><g><!--cluster TplQueue--><g class="cluster" data-qualified-name="TplQueue" data-source-line="8" id="ent0004"><path d="M8.5,6 L74.0586,6 A3.75,3.75 0 0 1 76.5586,8.5 L83.5586,29.6094 L642.5,29.6094 A2.5,2.5 0 0 1 645,32.1094 L645,325 A2.5,2.5 0 0 1 642.5,327.5 L8.5,327.5 A2.5,2.5 0 0 1 6,325 L6,8.5 A2.5,2.5 0 0 1 8.5,6" fill="none" style="stroke:#000000;stroke-width:1.5;"/><line style="stroke:#000000;stroke-width:1.5;" x1="6" x2="83.5586" y1="29.6094" y2="29.6094"/><text fill="#000000" font-family="sans-serif" font-size="14" font-weight="bold" lengthAdjust="spacing" textLength="64.5586" x="10" y="22.5332">TplQueue</text></g><!--cluster Abstractions--><g class="cluster" data-qualified-name="TplQueue.Abstractions" data-source-line="7" id="ent0002"><path d="M428.5,181 L515.0723,181 A3.75,3.75 0 0 1 517.5723,183.5 L524.5723,204.6094 L618.5,204.6094 A2.5,2.5 0 0 1 621,207.1094 L621,292.5 A2.5,2.5 0 0 1 618.5,295 L428.5,295 A2.5,2.5 0 0 1 426,292.5 L426,183.5 A2.5,2.5 0 0 1 428.5,181" fill="none" style="stroke:#000000;stroke-width:1.5;"/><line style="stroke:#000000;stroke-width:1.5;" x1="426" x2="524.5723" y1="204.6094" y2="204.6094"/><text fill="#000000" font-family="sans-serif" font-size="14" font-weight="bold" lengthAdjust="spacing" textLength="85.5723" x="430" y="197.5332">Abstractions</text><text fill="#000000" font-family="sans-serif" font-size="14" font-style="italic" lengthAdjust="spacing" textLength="66.9307" x="494.0347" y="221.1426">&#171;External&#187;</text></g><!--cluster Core--><g class="cluster" data-qualified-name="TplQueue.Core" data-source-line="12" id="ent0006"><path d="M32.5,50 L65.3965,50 A3.75,3.75 0 0 1 67.8965,52.5 L74.8965,73.6094 L399.5,73.6094 A2.5,2.5 0 0 1 402,76.1094 L402,301 A2.5,2.5 0 0 1 399.5,303.5 L32.5,303.5 A2.5,2.5 0 0 1 30,301 L30,52.5 A2.5,2.5 0 0 1 32.5,50" fill="none" style="stroke:#000000;stroke-width:1.5;"/><line style="stroke:#000000;stroke-width:1.5;" x1="30" x2="74.8965" y1="73.6094" y2="73.6094"/><text fill="#000000" font-family="sans-serif" font-size="14" font-weight="bold" lengthAdjust="spacing" textLength="31.8965" x="34" y="66.5332">Core</text></g><!--class IJobNode--><g class="entity" data-qualified-name="TplQueue.Abstractions.IJobNode" data-source-line="8" id="ent0003"><rect fill="#F1F1F1" height="43.6094" rx="2.5" ry="2.5" style="stroke:#181818;stroke-width:0.5;" width="65.9307" x="539" y="235"/><text fill="#000000" font-family="sans-serif" font-size="14" font-style="italic" lengthAdjust="spacing" textLength="59.9307" x="542" y="254.5332">IJobNode</text><line style="stroke:#181818;stroke-width:0.5;" x1="540" x2="603.9307" y1="262.6094" y2="262.6094"/><line style="stroke:#181818;stroke-width:0.5;" x1="540" x2="603.9307" y1="270.6094" y2="270.6094"/></g><!--class IJobRoot--><g class="entity" data-qualified-name="TplQueue.Abstractions.IJobRoot" data-source-line="9" id="ent0005"><rect fill="#F1F1F1" height="43.6094" rx="2.5" ry="2.5" style="stroke:#181818;stroke-width:0.5;" width="62.0342" x="442" y="235"/><text fill="#000000" font-family="sans-serif" font-size="14" font-style="italic" lengthAdjust="spacing" textLength="56.0342" x="445" y="254.5332">IJobRoot</text><line style="stroke:#181818;stroke-width:0.5;" x1="443" x2="503.0342" y1="262.6094" y2="262.6094"/><line style="stroke:#181818;stroke-width:0.5;" x1="443" x2="503.0342" y1="270.6094" y2="270.6094"/></g><!--class IJobGraphExpander--><g class="entity" data-qualified-name="TplQueue.Core.IJobGraphExpander" data-source-line="13" id="ent0007"><rect fill="#F1F1F1" height="61.2188" rx="2.5" ry="2.5" style="stroke:#181818;stroke-width:0.5;" width="340.0293" x="46" y="226.5"/><text fill="#000000" font-family="sans-serif" font-size="14" font-style="italic" lengthAdjust="spacing" textLength="125.3027" x="153.3633" y="246.0332">IJobGraphExpander</text><line style="stroke:#181818;stroke-width:0.5;" x1="47" x2="385.0293" y1="254.1094" y2="254.1094"/><line style="stroke:#181818;stroke-width:0.5;" x1="47" x2="385.0293" y1="262.1094" y2="262.1094"/><text fill="#000000" font-family="sans-serif" font-size="14" lengthAdjust="spacing" textLength="328.0293" x="52" y="280.6426">+ExpandGraph(jobRoot) : IReadOnlyList&lt;IJobNode&gt;</text></g><!--class JobGraphExpander--><g class="entity" data-qualified-name="TplQueue.Core.JobGraphExpander" data-source-line="17" id="ent0008"><rect fill="#F1F1F1" height="78.8281" rx="2.5" ry="2.5" style="stroke:#181818;stroke-width:0.5;" width="340.0293" x="46" y="86"/><text fill="#000000" font-family="sans-serif" font-size="14" lengthAdjust="spacing" textLength="121.4131" x="155.3081" y="105.5332">JobGraphExpander</text><line style="stroke:#181818;stroke-width:0.5;" x1="47" x2="385.0293" y1="113.6094" y2="113.6094"/><line style="stroke:#181818;stroke-width:0.5;" x1="47" x2="385.0293" y1="121.6094" y2="121.6094"/><text fill="#000000" font-family="sans-serif" font-size="14" lengthAdjust="spacing" textLength="196.4922" x="52" y="140.1426">+Create() : IJobGraphExpander</text><text fill="#000000" font-family="sans-serif" font-size="14" lengthAdjust="spacing" textLength="328.0293" x="52" y="157.752">+ExpandGraph(jobRoot) : IReadOnlyList&lt;IJobNode&gt;</text></g><!--link JobGraphExpander to IJobGraphExpander--><g class="link" data-entity-1="ent0008" data-entity-2="ent0007" data-link-type="extension" data-source-line="23" id="lnk9"><path codeLine="23" d="M216,165.31 C216,184.81 216,189.94 216,208.09" fill="none" id="JobGraphExpander-to-IJobGraphExpander" style="stroke:#181818;stroke-width:1;stroke-dasharray:7,7;"/><polygon fill="none" points="216,226.09,222,208.09,210,208.09,216,226.09" style="stroke:#181818;stroke-width:1;"/></g><!--link JobGraphExpander to IJobRoot--><g class="link" data-entity-1="ent0008" data-entity-2="ent0005" data-link-type="dependency" data-source-line="24" id="lnk10"><path codeLine="24" d="M386.35,139.5 C433.98,139.5 473,139.5 473,139.5 C473,139.5 473,194.86 473,228.9" fill="none" id="JobGraphExpander-to-IJobRoot" style="stroke:#181818;stroke-width:1;stroke-dasharray:7,7;"/><polygon fill="#181818" points="473,234.9,477,225.9,473,229.9,469,225.9,473,234.9" style="stroke:#181818;stroke-width:1;"/></g><!--link JobGraphExpander to IJobNode--><g class="link" data-entity-1="ent0008" data-entity-2="ent0003" data-link-type="dependency" data-source-line="25" id="lnk11"><path codeLine="25" d="M386.18,112.5 C477.71,112.5 572,112.5 572,112.5 C572,112.5 572,188.21 572,228.74" fill="none" id="JobGraphExpander-to-IJobNode" style="stroke:#181818;stroke-width:1;stroke-dasharray:7,7;"/><polygon fill="#181818" points="572,234.74,576,225.74,572,229.74,568,225.74,572,234.74" style="stroke:#181818;stroke-width:1;"/></g><?plantuml-src dP3FJiCm38VlUGghfo6aYZEg8atJX8eGYC4Bk8ctXcLnbBXYuy-xKreX9jPTE3e_v_ji2qSGXeP5U0VM9JBYEAYyTI5YmXru5qWEaO2Jj7mKv1OjlxgmWJNwJ4U9yPZpN2IvfXEg3OSdzqPmfLfd2OnBnfDI4SqMDmJ5S_IF7NLKpfii2OS1SW5LjTmBfO1UQtXN02xqvHeDGNtBpJrREdbSCOlwd68lE54nWRb96DlbFcAmb8OSu7AiXsZsCb8lu1hg5Q5z2Fvmvx9KFqFe_a-lX75jECTS94AXsS3vs_DlQ-yzyPNbXvvGJFJftvkTJRzTNm00?></g></svg>