<?plantuml 1.2026.2?><svg xmlns="http://www.w3.org/2000/svg" xmlns:xlink="http://www.w3.org/1999/xlink" contentStyleType="text/css" data-diagram-type="CLASS" height="517px" preserveAspectRatio="none" style="width:724px;height:517px;background:#FFFFFF;" version="1.1" viewBox="0 0 724 517" width="724px" zoomAndPan="magnify"><defs/><g><!--cluster TplQueue--><g class="cluster" data-qualified-name="TplQueue" data-source-line="8" id="ent0004"><path d="M8.5,6 L74.0586,6 A3.75,3.75 0 0 1 76.5586,8.5 L83.5586,29.6094 L714.5,29.6094 A2.5,2.5 0 0 1 717,32.1094 L717,507.5 A2.5,2.5 0 0 1 714.5,510 L8.5,510 A2.5,2.5 0 0 1 6,507.5 L6,8.5 A2.5,2.5 0 0 1 8.5,6" fill="none" style="stroke:#000000;stroke-width:1.5;"/><line style="stroke:#000000;stroke-width:1.5;" x1="6" x2="83.5586" y1="29.6094" y2="29.6094"/><text fill="#000000" font-family="sans-serif" font-size="14" font-weight="bold" lengthAdjust="spacing" textLength="64.5586" x="10" y="22.5332">TplQueue</text></g><!--cluster Abstractions--><g class="cluster" data-qualified-name="TplQueue.Abstractions" data-source-line="7" id="ent0002"><path d="M320.5,216 L407.0723,216 A3.75,3.75 0 0 1 409.5723,218.5 L416.5723,239.6094 L690.5,239.6094 A2.5,2.5 0 0 1 693,242.1094 L693,483.5 A2.5,2.5 0 0 1 690.5,486 L320.5,486 A2.5,2.5 0 0 1 318,483.5 L318,218.5 A2.5,2.5 0 0 1 320.5,216" fill="none" style="stroke:#000000;stroke-width:1.5;"/><line style="stroke:#000000;stroke-width:1.5;" x1="318" x2="416.5723" y1="239.6094" y2="239.6094"/><text fill="#000000" font-family="sans-serif" font-size="14" font-weight="bold" lengthAdjust="spacing" textLength="85.5723" x="322" y="232.5332">Abstractions</text><text fill="#000000" font-family="sans-serif" font-size="14" font-style="italic" lengthAdjust="spacing" textLength="66.9307" x="476.0347" y="256.1426">&#171;External&#187;</text></g><!--cluster Core--><g class="cluster" data-qualified-name="TplQueue.Core" data-source-line="19" id="ent0008"><path d="M32.5,50 L65.3965,50 A3.75,3.75 0 0 1 67.8965,52.5 L74.8965,73.6094 L291.5,73.6094 A2.5,2.5 0 0 1 294,76.1094 L294,353.5 A2.5,2.5 0 0 1 291.5,356 L32.5,356 A2.5,2.5 0 0 1 30,353.5 L30,52.5 A2.5,2.5 0 0 1 32.5,50" fill="none" style="stroke:#000000;stroke-width:1.5;"/><line style="stroke:#000000;stroke-width:1.5;" x1="30" x2="74.8965" y1="73.6094" y2="73.6094"/><text fill="#000000" font-family="sans-serif" font-size="14" font-weight="bold" lengthAdjust="spacing" textLength="31.8965" x="34" y="66.5332">Core</text></g><!--class IQFactory--><g class="entity" data-qualified-name="TplQueue.Abstractions.IQFactory" data-source-line="8" id="ent0003"><rect fill="#F1F1F1" height="96.4375" rx="2.5" ry="2.5" style="stroke:#181818;stroke-width:0.5;" width="160.9961" x="334.5" y="270"/><text fill="#000000" font-family="sans-serif" font-size="14" font-style="italic" lengthAdjust="spacing" textLength="61.4551" x="384.2705" y="289.5332">IQFactory</text><line style="stroke:#181818;stroke-width:0.5;" x1="335.5" x2="494.4961" y1="297.6094" y2="297.6094"/><line style="stroke:#181818;stroke-width:0.5;" x1="335.5" x2="494.4961" y1="305.6094" y2="305.6094"/><text fill="#000000" font-family="sans-serif" font-size="14" lengthAdjust="spacing" textLength="148.9961" x="340.5" y="324.1426">+Parallel(...) : IParallelQ</text><text fill="#000000" font-family="sans-serif" font-size="14" lengthAdjust="spacing" textLength="102.293" x="340.5" y="341.752">+Fifo(...) : IFifoQ</text><text fill="#000000" font-family="sans-serif" font-size="14" lengthAdjust="spacing" textLength="147.4443" x="340.5" y="359.3613">+CacheQ(...) : ICacheQ</text></g><!--class IParallelQ--><g class="entity" data-qualified-name="TplQueue.Abstractions.IParallelQ" data-source-line="14" id="ent0005"><rect fill="#F1F1F1" height="43.6094" rx="2.5" ry="2.5" style="stroke:#181818;stroke-width:0.5;" width="67.4688" x="530.5" y="296"/><text fill="#000000" font-family="sans-serif" font-size="14" font-style="italic" lengthAdjust="spacing" textLength="61.4688" x="533.5" y="315.5332">IParallelQ</text><line style="stroke:#181818;stroke-width:0.5;" x1="531.5" x2="596.9688" y1="323.6094" y2="323.6094"/><line style="stroke:#181818;stroke-width:0.5;" x1="531.5" x2="596.9688" y1="331.6094" y2="331.6094"/></g><!--class IFifoQ--><g class="entity" data-qualified-name="TplQueue.Abstractions.IFifoQ" data-source-line="15" id="ent0006"><rect fill="#F1F1F1" height="43.6094" rx="2.5" ry="2.5" style="stroke:#181818;stroke-width:0.5;" width="44.1172" x="633" y="296"/><text fill="#000000" font-family="sans-serif" font-size="14" font-style="italic" lengthAdjust="spacing" textLength="38.1172" x="636" y="315.5332">IFifoQ</text><line style="stroke:#181818;stroke-width:0.5;" x1="634" x2="676.1172" y1="323.6094" y2="323.6094"/><line style="stroke:#181818;stroke-width:0.5;" x1="634" x2="676.1172" y1="331.6094" y2="331.6094"/></g><!--class ICacheQ--><g class="entity" data-qualified-name="TplQueue.Abstractions.ICacheQ" data-source-line="16" id="ent0007"><rect fill="#F1F1F1" height="43.6094" rx="2.5" ry="2.5" style="stroke:#181818;stroke-width:0.5;" width="61.248" x="533.5" y="426"/><text fill="#000000" font-family="sans-serif" font-size="14" font-style="italic" lengthAdjust="spacing" textLength="55.248" x="536.5" y="445.5332">ICacheQ</text><line style="stroke:#181818;stroke-width:0.5;" x1="534.5" x2="593.748" y1="453.6094" y2="453.6094"/><line style="stroke:#181818;stroke-width:0.5;" x1="534.5" x2="593.748" y1="461.6094" y2="461.6094"/></g><!--class CoreQFactory--><g class="entity" data-qualified-name="TplQueue.Core.CoreQFactory" data-source-line="20" id="ent0009"><rect fill="#F1F1F1" height="114.0469" rx="2.5" ry="2.5" style="stroke:#181818;stroke-width:0.5;" width="160.9961" x="100.5" y="86"/><text fill="#000000" font-family="sans-serif" font-size="14" lengthAdjust="spacing" textLength="87.9102" x="137.043" y="105.5332">CoreQFactory</text><line style="stroke:#181818;stroke-width:0.5;" x1="101.5" x2="260.4961" y1="113.6094" y2="113.6094"/><line style="stroke:#181818;stroke-width:0.5;" x1="101.5" x2="260.4961" y1="121.6094" y2="121.6094"/><text fill="#000000" font-family="sans-serif" font-size="14" lengthAdjust="spacing" textLength="132.6445" x="106.5" y="140.1426">+Create() : IQFactory</text><text fill="#000000" font-family="sans-serif" font-size="14" lengthAdjust="spacing" textLength="148.9961" x="106.5" y="157.752">+Parallel(...) : IParallelQ</text><text fill="#000000" font-family="sans-serif" font-size="14" lengthAdjust="spacing" textLength="102.293" x="106.5" y="175.3613">+Fifo(...) : IFifoQ</text><text fill="#000000" font-family="sans-serif" font-size="14" lengthAdjust="spacing" textLength="147.4443" x="106.5" y="192.9707">+CacheQ(...) : ICacheQ</text></g><!--class ParallelQ--><g class="entity" data-qualified-name="TplQueue.Core.ParallelQ" data-source-line="27" id="ent0010"><rect fill="#F1F1F1" height="43.6094" rx="2.5" ry="2.5" style="stroke:#181818;stroke-width:0.5;" width="63.5791" x="46" y="296"/><text fill="#000000" font-family="sans-serif" font-size="14" lengthAdjust="spacing" textLength="57.5791" x="49" y="315.5332">ParallelQ</text><line style="stroke:#181818;stroke-width:0.5;" x1="47" x2="108.5791" y1="323.6094" y2="323.6094"/><line style="stroke:#181818;stroke-width:0.5;" x1="47" x2="108.5791" y1="331.6094" y2="331.6094"/></g><!--class FifoQ--><g class="entity" data-qualified-name="TplQueue.Core.FifoQ" data-source-line="28" id="ent0011"><rect fill="#F1F1F1" height="43.6094" rx="2.5" ry="2.5" style="stroke:#181818;stroke-width:0.5;" width="40.2275" x="145" y="296"/><text fill="#000000" font-family="sans-serif" font-size="14" lengthAdjust="spacing" textLength="34.2275" x="148" y="315.5332">FifoQ</text><line style="stroke:#181818;stroke-width:0.5;" x1="146" x2="184.2275" y1="323.6094" y2="323.6094"/><line style="stroke:#181818;stroke-width:0.5;" x1="146" x2="184.2275" y1="331.6094" y2="331.6094"/></g><!--class CacheQ--><g class="entity" data-qualified-name="TplQueue.Core.CacheQ" data-source-line="29" id="ent0012"><rect fill="#F1F1F1" height="43.6094" rx="2.5" ry="2.5" style="stroke:#181818;stroke-width:0.5;" width="57.3584" x="220.5" y="296"/><text fill="#000000" font-family="sans-serif" font-size="14" lengthAdjust="spacing" textLength="51.3584" x="223.5" y="315.5332">CacheQ</text><line style="stroke:#181818;stroke-width:0.5;" x1="221.5" x2="276.8584" y1="323.6094" y2="323.6094"/><line style="stroke:#181818;stroke-width:0.5;" x1="221.5" x2="276.8584" y1="331.6094" y2="331.6094"/></g><!--link CoreQFactory to IQFactory--><g class="link" data-entity-1="ent0009" data-entity-2="ent0003" data-link-type="extension" data-source-line="32" id="lnk13"><path codeLine="32" d="M247.83,200.35 C247.83,239.01 247.83,283 247.83,283 C247.83,283 273.61,283 316.35,283" fill="none" id="CoreQFactory-to-IQFactory" style="stroke:#181818;stroke-width:1;stroke-dasharray:7,7;"/><polygon fill="none" points="334.35,283,316.35,277,316.35,289,334.35,283" style="stroke:#181818;stroke-width:1;"/></g><!--link CoreQFactory to ParallelQ--><g class="link" data-entity-1="ent0009" data-entity-2="ent0010" data-link-type="dependency" data-source-line="33" id="lnk14"><path codeLine="33" d="M105.25,200.3 C105.25,233 105.25,266.11 105.25,289.99" fill="none" id="CoreQFactory-to-ParallelQ" style="stroke:#181818;stroke-width:1;stroke-dasharray:7,7;"/><polygon fill="#181818" points="105.25,295.99,109.25,286.99,105.25,290.99,101.25,286.99,105.25,295.99" style="stroke:#181818;stroke-width:1;"/><text fill="#000000" font-family="sans-serif" font-size="13" lengthAdjust="spacing" textLength="42.6309" x="62.25" y="244.6451">creates</text></g><!--link CoreQFactory to FifoQ--><g class="link" data-entity-1="ent0009" data-entity-2="ent0011" data-link-type="dependency" data-source-line="34" id="lnk15"><path codeLine="34" d="M165,200.3 C165,233 165,266.11 165,289.99" fill="none" id="CoreQFactory-to-FifoQ" style="stroke:#181818;stroke-width:1;stroke-dasharray:7,7;"/><polygon fill="#181818" points="165,295.99,169,286.99,165,290.99,161,286.99,165,295.99" style="stroke:#181818;stroke-width:1;"/><text fill="#000000" font-family="sans-serif" font-size="13" lengthAdjust="spacing" textLength="42.6309" x="122" y="244.6451">creates</text></g><!--link CoreQFactory to CacheQ--><g class="link" data-entity-1="ent0009" data-entity-2="ent0012" data-link-type="dependency" data-source-line="35" id="lnk16"><path codeLine="35" d="M234.17,200.3 C234.17,233 234.17,266.11 234.17,289.99" fill="none" id="CoreQFactory-to-CacheQ" style="stroke:#181818;stroke-width:1;stroke-dasharray:7,7;"/><polygon fill="#181818" points="234.17,295.99,238.17,286.99,234.17,290.99,230.17,286.99,234.17,295.99" style="stroke:#181818;stroke-width:1;"/><text fill="#000000" font-family="sans-serif" font-size="13" lengthAdjust="spacing" textLength="42.6309" x="191.17" y="244.6451">creates</text></g><?plantuml-src jL3BJiCm4BpdArOv5I5Pd54LgOgeb1iH_C36sJHMNJkoDu82_NTIvr6t86uSTsOy3xFjW2rKbjaUe5QE92jh4hzNfaE71z3A41yx0kkujH7XMwpjcp8xQ51xYXYfqViDirDLprH8QrxK1y53qggQG2edDIL9XtAFEuBqjTDbJps9JUNPOIZWKrYldzwPd46TPV2P02Wpd0rAWgBS3ZBhZW47k7yUShKclH92tC4Z53DGZlnMDNRXpiU4voXRAXTcF0Vgb5pdnNOHF3j5q6Hn-crVRXsbeNBu8JZVjqjoHyYq2dLcxXytZaLYfn6Ptqz5br5NbONuogAMDrnsiHroPTZbVuf2qb-2CVoY-0O0?></g></svg>