<?plantuml 1.2026.2?><svg xmlns="http://www.w3.org/2000/svg" xmlns:xlink="http://www.w3.org/1999/xlink" contentStyleType="text/css" data-diagram-type="CLASS" height="439px" preserveAspectRatio="none" style="width:806px;height:439px;background:#FFFFFF;" version="1.1" viewBox="0 0 806 439" width="806px" zoomAndPan="magnify"><defs/><g><!--cluster TplQueue--><g class="cluster" data-qualified-name="TplQueue" data-source-line="8" id="ent0004"><path d="M8.5,6 L74.0586,6 A3.75,3.75 0 0 1 76.5586,8.5 L83.5586,29.6094 L796.5,29.6094 A2.5,2.5 0 0 1 799,32.1094 L799,429.5 A2.5,2.5 0 0 1 796.5,432 L8.5,432 A2.5,2.5 0 0 1 6,429.5 L6,8.5 A2.5,2.5 0 0 1 8.5,6" fill="none" style="stroke:#000000;stroke-width:1.5;"/><line style="stroke:#000000;stroke-width:1.5;" x1="6" x2="83.5586" y1="29.6094" y2="29.6094"/><text fill="#000000" font-family="sans-serif" font-size="14" font-weight="bold" lengthAdjust="spacing" textLength="64.5586" x="10" y="22.5332">TplQueue</text></g><!--cluster Abstractions--><g class="cluster" data-qualified-name="TplQueue.Abstractions" data-source-line="7" id="ent0002"><path d="M545.5,276.5 L632.0723,276.5 A3.75,3.75 0 0 1 634.5723,279 L641.5723,300.1094 L772.5,300.1094 A2.5,2.5 0 0 1 775,302.6094 L775,388 A2.5,2.5 0 0 1 772.5,390.5 L545.5,390.5 A2.5,2.5 0 0 1 543,388 L543,279 A2.5,2.5 0 0 1 545.5,276.5" fill="none" style="stroke:#000000;stroke-width:1.5;"/><line style="stroke:#000000;stroke-width:1.5;" x1="543" x2="641.5723" y1="300.1094" y2="300.1094"/><text fill="#000000" font-family="sans-serif" font-size="14" font-weight="bold" lengthAdjust="spacing" textLength="85.5723" x="547" y="293.0332">Abstractions</text><text fill="#000000" font-family="sans-serif" font-size="14" font-style="italic" lengthAdjust="spacing" textLength="66.9307" x="629.5347" y="316.6426">&#171;External&#187;</text></g><!--cluster Core--><g class="cluster" data-qualified-name="TplQueue.Core" data-source-line="12" id="ent0006"><path d="M32.5,50 L65.3965,50 A3.75,3.75 0 0 1 67.8965,52.5 L74.8965,73.6094 L516.5,73.6094 A2.5,2.5 0 0 1 519,76.1094 L519,405.5 A2.5,2.5 0 0 1 516.5,408 L32.5,408 A2.5,2.5 0 0 1 30,405.5 L30,52.5 A2.5,2.5 0 0 1 32.5,50" fill="none" style="stroke:#000000;stroke-width:1.5;"/><line style="stroke:#000000;stroke-width:1.5;" x1="30" x2="74.8965" y1="73.6094" y2="73.6094"/><text fill="#000000" font-family="sans-serif" font-size="14" font-weight="bold" lengthAdjust="spacing" textLength="31.8965" x="34" y="66.5332">Core</text></g><!--class ICacheQ--><g class="entity" data-qualified-name="TplQueue.Abstractions.ICacheQ" data-source-line="8" id="ent0003"><rect fill="#F1F1F1" height="43.6094" rx="2.5" ry="2.5" style="stroke:#181818;stroke-width:0.5;" width="61.248" x="697.5" y="330.5"/><text fill="#000000" font-family="sans-serif" font-size="14" font-style="italic" lengthAdjust="spacing" textLength="55.248" x="700.5" y="350.0332">ICacheQ</text><line style="stroke:#181818;stroke-width:0.5;" x1="698.5" x2="757.748" y1="358.1094" y2="358.1094"/><line style="stroke:#181818;stroke-width:0.5;" x1="698.5" x2="757.748" y1="366.1094" y2="366.1094"/></g><!--class IDataJobCache--><g class="entity" data-qualified-name="TplQueue.Abstractions.IDataJobCache" data-source-line="9" id="ent0005"><rect fill="#F1F1F1" height="43.6094" rx="2.5" ry="2.5" style="stroke:#181818;stroke-width:0.5;" width="102.5029" x="559.5" y="330.5"/><text fill="#000000" font-family="sans-serif" font-size="14" font-style="italic" lengthAdjust="spacing" textLength="96.5029" x="562.5" y="350.0332">IDataJobCache</text><line style="stroke:#181818;stroke-width:0.5;" x1="560.5" x2="661.0029" y1="358.1094" y2="358.1094"/><line style="stroke:#181818;stroke-width:0.5;" x1="560.5" x2="661.0029" y1="366.1094" y2="366.1094"/></g><!--class AsyncAutoResetEvent--><g class="entity" data-qualified-name="TplQueue.Core.AsyncAutoResetEvent" data-source-line="13" id="ent0007"><rect fill="#F1F1F1" height="78.8281" rx="2.5" ry="2.5" style="stroke:#181818;stroke-width:0.5;" width="308.4678" x="46" y="313"/><text fill="#000000" font-family="sans-serif" font-size="14" lengthAdjust="spacing" textLength="139.2959" x="130.5859" y="332.5332">AsyncAutoResetEvent</text><line style="stroke:#181818;stroke-width:0.5;" x1="47" x2="353.4678" y1="340.6094" y2="340.6094"/><line style="stroke:#181818;stroke-width:0.5;" x1="47" x2="353.4678" y1="348.6094" y2="348.6094"/><text fill="#000000" font-family="sans-serif" font-size="14" lengthAdjust="spacing" textLength="296.4678" x="52" y="367.1426">+WaitAsync(cancellationToken = default) : Task</text><text fill="#000000" font-family="sans-serif" font-size="14" lengthAdjust="spacing" textLength="75.8652" x="52" y="384.752">+Set() : void</text></g><!--class ParallelQAdapter--><g class="entity" data-qualified-name="TplQueue.Core.ParallelQAdapter" data-source-line="18" id="ent0008"><rect fill="#F1F1F1" height="43.6094" rx="2.5" ry="2.5" style="stroke:#181818;stroke-width:0.5;" width="112.6133" x="389.5" y="330.5"/><text fill="#000000" font-family="sans-serif" font-size="14" lengthAdjust="spacing" textLength="106.6133" x="392.5" y="350.0332">ParallelQAdapter</text><line style="stroke:#181818;stroke-width:0.5;" x1="390.5" x2="501.1133" y1="358.1094" y2="358.1094"/><line style="stroke:#181818;stroke-width:0.5;" x1="390.5" x2="501.1133" y1="366.1094" y2="366.1094"/></g><!--class CacheQ--><g class="entity" data-qualified-name="TplQueue.Core.CacheQ" data-source-line="20" id="ent0009"><rect fill="#F1F1F1" height="166.875" rx="2.5" ry="2.5" style="stroke:#181818;stroke-width:0.5;" width="265.3125" x="237.5" y="86"/><text fill="#000000" font-family="sans-serif" font-size="14" lengthAdjust="spacing" textLength="51.3584" x="344.4771" y="105.5332">CacheQ</text><line style="stroke:#181818;stroke-width:0.5;" x1="238.5" x2="501.8125" y1="113.6094" y2="113.6094"/><text fill="#000000" font-family="sans-serif" font-size="14" lengthAdjust="spacing" textLength="137.3545" x="243.5" y="132.1426">+LeasingPulseMs : int</text><line style="stroke:#181818;stroke-width:0.5;" x1="238.5" x2="501.8125" y1="139.2188" y2="139.2188"/><text fill="#000000" font-family="sans-serif" font-size="14" lengthAdjust="spacing" textLength="253.3125" x="243.5" y="157.752">+Create(logger, cache, queue) : CacheQ</text><text fill="#000000" font-family="sans-serif" font-size="14" lengthAdjust="spacing" textLength="207.3955" x="243.5" y="175.3613">+Enqueue(jobRoot, ct) : ICacheQ</text><text fill="#000000" font-family="sans-serif" font-size="14" lengthAdjust="spacing" textLength="230.7334" x="243.5" y="192.9707">+EnqueueFifo(jobRoot, ct) : ICacheQ</text><text fill="#000000" font-family="sans-serif" font-size="14" lengthAdjust="spacing" textLength="149.0098" x="243.5" y="210.5801">+ResumePolling() : void</text><text fill="#000000" font-family="sans-serif" font-size="14" lengthAdjust="spacing" textLength="94.5479" x="243.5" y="228.1895">+Pause() : void</text><text fill="#000000" font-family="sans-serif" font-size="14" lengthAdjust="spacing" textLength="105.4307" x="243.5" y="245.7988">+Dispose() : void</text></g><!--link CacheQ to ParallelQAdapter--><g class="link" data-entity-1="ent0009" data-entity-2="ent0008" data-link-type="extension" data-source-line="31" id="lnk10"><path codeLine="31" d="M446,253.23 C446,281.66 446,293.09 446,312.45" fill="none" id="CacheQ-to-ParallelQAdapter" style="stroke:#181818;stroke-width:1;"/><polygon fill="none" points="446,330.45,452,312.45,440,312.45,446,330.45" style="stroke:#181818;stroke-width:1;"/></g><!--link CacheQ to ICacheQ--><g class="link" data-entity-1="ent0009" data-entity-2="ent0003" data-link-type="extension" data-source-line="32" id="lnk11"><path codeLine="32" d="M502.54,142 C604.48,142 728,142 728,142 C728,142 728,258.33 728,312.37" fill="none" id="CacheQ-to-ICacheQ" style="stroke:#181818;stroke-width:1;stroke-dasharray:7,7;"/><polygon fill="none" points="728,330.37,734,312.37,722,312.37,728,330.37" style="stroke:#181818;stroke-width:1;"/></g><!--reverse link CacheQ to IDataJobCache--><g class="link" data-entity-1="ent0009" data-entity-2="ent0005" data-link-type="aggregation" data-source-line="33" id="lnk12"><path codeLine="33" d="M514.84,198 C570.71,198 611,198 611,198 C611,198 611,287.64 611,330.36" fill="none" id="CacheQ-backto-IDataJobCache" style="stroke:#181818;stroke-width:1;"/><polygon fill="none" points="502.84,198,508.84,202,514.84,198,508.84,194,502.84,198" style="stroke:#181818;stroke-width:1;"/><text fill="#000000" font-family="sans-serif" font-size="13" lengthAdjust="spacing" textLength="69.3799" x="541" y="206.5951">lease cache</text></g><!--reverse link CacheQ to AsyncAutoResetEvent--><g class="link" data-entity-1="ent0009" data-entity-2="ent0007" data-link-type="composition" data-source-line="34" id="lnk13"><path codeLine="34" d="M295.75,265.23 C295.75,285.94 295.75,295.18 295.75,312.67" fill="none" id="CacheQ-backto-AsyncAutoResetEvent" style="stroke:#181818;stroke-width:1;"/><polygon fill="#181818" points="295.75,253.23,291.75,259.23,295.75,265.23,299.75,259.23,295.75,253.23" style="stroke:#181818;stroke-width:1;"/><text fill="#000000" font-family="sans-serif" font-size="13" lengthAdjust="spacing" textLength="68.6563" x="226.75" y="279.4451">lease signal</text></g><?plantuml-src VL9DJm913BtlhsWuuGV4ir6I3MA2qGIKn7DtjYmZmtITwVhjVxUxi0fAFCvxh-thwmYN80mPY_0ASXl8Y6MVnANr9GPSWREUvBKau20BtYBY0dD-jhw0ERf8Munn66Cg4cnM2OqD-plxHd2IB6nEO6mmZfAaHBF4Wg0pAzsqeehwQHObO6CWTk3iRFGY53owmG3U4m3hzJb7Gp0UebdGT1UxGC4hpXeg-TpNVyY1EashnY6ayTMRj1A-fKWoUY8l3GjmT8zM6hfhq1jo3cjNCrwIXtF8QOwLamCuXHd6vRhaZgHR8qziSqNKGJjdegauHswQvbYgtnzclKSxz9emQfwJIkEyYTfAjripmq0er7LS51IEmTHbn_1ORrMF_8v3fIFVmDq7pcwPHSMDp_4UpQMTyxywpQLQqOITVe9YUpdb9bX5-eLTs5ZoBlfPdsApPg_tCVWRneRizvLifsymxlLsxwfzdOP4wmHQsQ7Azjso5KTRw2_w0W00?></g></svg>