<?plantuml 1.2026.2?><svg xmlns="http://www.w3.org/2000/svg" xmlns:xlink="http://www.w3.org/1999/xlink" contentStyleType="text/css" data-diagram-type="CLASS" height="481px" preserveAspectRatio="none" style="width:669px;height:481px;background:#FFFFFF;" version="1.1" viewBox="0 0 669 481" width="669px" zoomAndPan="magnify"><defs/><g><!--cluster TplQueue--><g class="cluster" data-qualified-name="TplQueue" data-source-line="8" id="ent0004"><path d="M8.5,6 L74.0586,6 A3.75,3.75 0 0 1 76.5586,8.5 L83.5586,29.6094 L659.5,29.6094 A2.5,2.5 0 0 1 662,32.1094 L662,471.5 A2.5,2.5 0 0 1 659.5,474 L8.5,474 A2.5,2.5 0 0 1 6,471.5 L6,8.5 A2.5,2.5 0 0 1 8.5,6" fill="none" style="stroke:#000000;stroke-width:1.5;"/><line style="stroke:#000000;stroke-width:1.5;" x1="6" x2="83.5586" y1="29.6094" y2="29.6094"/><text fill="#000000" font-family="sans-serif" font-size="14" font-weight="bold" lengthAdjust="spacing" textLength="64.5586" x="10" y="22.5332">TplQueue</text></g><!--cluster Abstractions--><g class="cluster" data-qualified-name="TplQueue.Abstractions" data-source-line="7" id="ent0002"><path d="M342.5,198 L429.0723,198 A3.75,3.75 0 0 1 431.5723,200.5 L438.5723,221.6094 L635.5,221.6094 A2.5,2.5 0 0 1 638,224.1094 L638,447.5 A2.5,2.5 0 0 1 635.5,450 L342.5,450 A2.5,2.5 0 0 1 340,447.5 L340,200.5 A2.5,2.5 0 0 1 342.5,198" fill="none" style="stroke:#000000;stroke-width:1.5;"/><line style="stroke:#000000;stroke-width:1.5;" x1="340" x2="438.5723" y1="221.6094" y2="221.6094"/><text fill="#000000" font-family="sans-serif" font-size="14" font-weight="bold" lengthAdjust="spacing" textLength="85.5723" x="344" y="214.5332">Abstractions</text><text fill="#000000" font-family="sans-serif" font-size="14" font-style="italic" lengthAdjust="spacing" textLength="66.9307" x="459.5347" y="238.1426">&#171;External&#187;</text></g><!--cluster Core--><g class="cluster" data-qualified-name="TplQueue.Core" data-source-line="20" id="ent0008"><path d="M32.5,50 L65.3965,50 A3.75,3.75 0 0 1 67.8965,52.5 L74.8965,73.6094 L313.5,73.6094 A2.5,2.5 0 0 1 316,76.1094 L316,325.5 A2.5,2.5 0 0 1 313.5,328 L32.5,328 A2.5,2.5 0 0 1 30,325.5 L30,52.5 A2.5,2.5 0 0 1 32.5,50" fill="none" style="stroke:#000000;stroke-width:1.5;"/><line style="stroke:#000000;stroke-width:1.5;" x1="30" x2="74.8965" y1="73.6094" y2="73.6094"/><text fill="#000000" font-family="sans-serif" font-size="14" font-weight="bold" lengthAdjust="spacing" textLength="31.8965" x="34" y="66.5332">Core</text></g><!--class IJobRootFactory--><g class="entity" data-qualified-name="TplQueue.Abstractions.IJobRootFactory" data-source-line="8" id="ent0003"><rect fill="#F1F1F1" height="61.2188" rx="2.5" ry="2.5" style="stroke:#181818;stroke-width:0.5;" width="161.0166" x="460.5" y="373"/><text fill="#000000" font-family="sans-serif" font-size="14" font-style="italic" lengthAdjust="spacing" textLength="102.71" x="489.6533" y="392.5332">IJobRootFactory</text><line style="stroke:#181818;stroke-width:0.5;" x1="461.5" x2="620.5166" y1="400.6094" y2="400.6094"/><line style="stroke:#181818;stroke-width:0.5;" x1="461.5" x2="620.5166" y1="408.6094" y2="408.6094"/><text fill="#000000" font-family="sans-serif" font-size="14" lengthAdjust="spacing" textLength="149.0166" x="466.5" y="427.1426">+JobRoot(...) : IJobRoot</text></g><!--class IJobFactory--><g class="entity" data-qualified-name="TplQueue.Abstractions.IJobFactory" data-source-line="12" id="ent0005"><rect fill="#F1F1F1" height="61.2188" rx="2.5" ry="2.5" style="stroke:#181818;stroke-width:0.5;" width="101.8721" x="520" y="252"/><text fill="#000000" font-family="sans-serif" font-size="14" font-style="italic" lengthAdjust="spacing" textLength="73.1377" x="534.3672" y="271.5332">IJobFactory</text><line style="stroke:#181818;stroke-width:0.5;" x1="521" x2="620.8721" y1="279.6094" y2="279.6094"/><line style="stroke:#181818;stroke-width:0.5;" x1="521" x2="620.8721" y1="287.6094" y2="287.6094"/><text fill="#000000" font-family="sans-serif" font-size="14" lengthAdjust="spacing" textLength="89.8721" x="526" y="306.1426">+Job(...) : IJob</text></g><!--class IJob--><g class="entity" data-qualified-name="TplQueue.Abstractions.IJob" data-source-line="16" id="ent0006"><rect fill="#F1F1F1" height="43.6094" rx="2.5" ry="2.5" style="stroke:#181818;stroke-width:0.5;" width="32.4619" x="453" y="260.5"/><text fill="#000000" font-family="sans-serif" font-size="14" font-style="italic" lengthAdjust="spacing" textLength="26.4619" x="456" y="280.0332">IJob</text><line style="stroke:#181818;stroke-width:0.5;" x1="454" x2="484.4619" y1="288.1094" y2="288.1094"/><line style="stroke:#181818;stroke-width:0.5;" x1="454" x2="484.4619" y1="296.1094" y2="296.1094"/></g><!--class IJobRoot--><g class="entity" data-qualified-name="TplQueue.Abstractions.IJobRoot" data-source-line="17" id="ent0007"><rect fill="#F1F1F1" height="43.6094" rx="2.5" ry="2.5" style="stroke:#181818;stroke-width:0.5;" width="62.0342" x="356" y="260.5"/><text fill="#000000" font-family="sans-serif" font-size="14" font-style="italic" lengthAdjust="spacing" textLength="56.0342" x="359" y="280.0332">IJobRoot</text><line style="stroke:#181818;stroke-width:0.5;" x1="357" x2="417.0342" y1="288.1094" y2="288.1094"/><line style="stroke:#181818;stroke-width:0.5;" x1="357" x2="417.0342" y1="296.1094" y2="296.1094"/></g><!--class JobFactory--><g class="entity" data-qualified-name="TplQueue.Core.JobFactory" data-source-line="21" id="ent0009"><rect fill="#F1F1F1" height="96.4375" rx="2.5" ry="2.5" style="stroke:#181818;stroke-width:0.5;" width="161.0166" x="98.5" y="86"/><text fill="#000000" font-family="sans-serif" font-size="14" lengthAdjust="spacing" textLength="69.248" x="144.3843" y="105.5332">JobFactory</text><line style="stroke:#181818;stroke-width:0.5;" x1="99.5" x2="258.5166" y1="113.6094" y2="113.6094"/><line style="stroke:#181818;stroke-width:0.5;" x1="99.5" x2="258.5166" y1="121.6094" y2="121.6094"/><text fill="#000000" font-family="sans-serif" font-size="14" lengthAdjust="spacing" textLength="144.3271" x="104.5" y="140.1426">+Create() : IJobFactory</text><text fill="#000000" font-family="sans-serif" font-size="14" lengthAdjust="spacing" textLength="89.8721" x="104.5" y="157.752">+Job(...) : IJob</text><text fill="#000000" font-family="sans-serif" font-size="14" lengthAdjust="spacing" textLength="149.0166" x="104.5" y="175.3613">+JobRoot(...) : IJobRoot</text></g><!--class Job--><g class="entity" data-qualified-name="TplQueue.Core.Job" data-source-line="27" id="ent0010"><rect fill="#F1F1F1" height="43.6094" rx="2.5" ry="2.5" style="stroke:#181818;stroke-width:0.5;" width="28.5723" x="46.5" y="260.5"/><text fill="#000000" font-family="sans-serif" font-size="14" lengthAdjust="spacing" textLength="22.5723" x="49.5" y="280.0332">Job</text><line style="stroke:#181818;stroke-width:0.5;" x1="47.5" x2="74.0723" y1="288.1094" y2="288.1094"/><line style="stroke:#181818;stroke-width:0.5;" x1="47.5" x2="74.0723" y1="296.1094" y2="296.1094"/></g><!--class JobRoot--><g class="entity" data-qualified-name="TplQueue.Core.JobRoot" data-source-line="28" id="ent0011"><rect fill="#F1F1F1" height="43.6094" rx="2.5" ry="2.5" style="stroke:#181818;stroke-width:0.5;" width="58.1445" x="111" y="260.5"/><text fill="#000000" font-family="sans-serif" font-size="14" lengthAdjust="spacing" textLength="52.1445" x="114" y="280.0332">JobRoot</text><line style="stroke:#181818;stroke-width:0.5;" x1="112" x2="168.1445" y1="288.1094" y2="288.1094"/><line style="stroke:#181818;stroke-width:0.5;" x1="112" x2="168.1445" y1="296.1094" y2="296.1094"/></g><!--class NoRetryPolicy--><g class="entity" data-qualified-name="TplQueue.Core.NoRetryPolicy" data-source-line="29" id="ent0012"><rect fill="#F1F1F1" height="58.7031" rx="2.5" ry="2.5" style="stroke:#181818;stroke-width:0.5;" width="94.6895" x="204.5" y="253"/><text fill="#000000" font-family="sans-serif" font-size="12" font-style="italic" lengthAdjust="spacing" textLength="41.3555" x="231.167" y="270.457">&#171;static&#187;</text><text fill="#000000" font-family="sans-serif" font-size="14" lengthAdjust="spacing" textLength="88.6895" x="207.5" y="287.627">NoRetryPolicy</text><line style="stroke:#181818;stroke-width:0.5;" x1="205.5" x2="298.1895" y1="295.7031" y2="295.7031"/><line style="stroke:#181818;stroke-width:0.5;" x1="205.5" x2="298.1895" y1="303.7031" y2="303.7031"/></g><!--link IJobFactory to IJobRootFactory--><g class="link" data-entity-1="ent0005" data-entity-2="ent0003" data-link-type="extension" data-source-line="32" id="lnk13"><path codeLine="32" d="M570.75,313.03 C570.75,331.38 570.75,336.64 570.75,354.98" fill="none" id="IJobFactory-to-IJobRootFactory" style="stroke:#181818;stroke-width:1;"/><polygon fill="none" points="570.75,372.98,576.75,354.98,564.75,354.98,570.75,372.98" style="stroke:#181818;stroke-width:1;"/></g><!--link JobFactory to IJobFactory--><g class="link" data-entity-1="ent0009" data-entity-2="ent0005" data-link-type="extension" data-source-line="33" id="lnk14"><path codeLine="33" d="M259.75,134 C374.5,134 571,134 571,134 C571,134 571,190.23 571,233.73" fill="none" id="JobFactory-to-IJobFactory" style="stroke:#181818;stroke-width:1;stroke-dasharray:7,7;"/><polygon fill="none" points="571,251.73,577,233.73,565,233.73,571,251.73" style="stroke:#181818;stroke-width:1;"/></g><!--link JobFactory to Job--><g class="link" data-entity-1="ent0009" data-entity-2="ent0010" data-link-type="dependency" data-source-line="35" id="lnk15"><path codeLine="35" d="M104.75,182.38 C104.75,225.88 104.75,283 104.75,283 C104.75,283 94.5,283 81.81,283" fill="none" id="JobFactory-to-Job" style="stroke:#181818;stroke-width:1;stroke-dasharray:7,7;"/><polygon fill="#181818" points="75.81,283,84.81,287,80.81,283,84.81,279,75.81,283" style="stroke:#181818;stroke-width:1;"/><text fill="#000000" font-family="sans-serif" font-size="13" lengthAdjust="spacing" textLength="42.6309" x="61.75" y="243.6551">creates</text></g><!--link JobFactory to JobRoot--><g class="link" data-entity-1="ent0009" data-entity-2="ent0011" data-link-type="dependency" data-source-line="36" id="lnk16"><path codeLine="36" d="M140,182.21 C140,208.47 140,233.69 140,254.25" fill="none" id="JobFactory-to-JobRoot" style="stroke:#181818;stroke-width:1;stroke-dasharray:7,7;"/><polygon fill="#181818" points="140,260.25,144,251.25,140,255.25,136,251.25,140,260.25" style="stroke:#181818;stroke-width:1;"/><text fill="#000000" font-family="sans-serif" font-size="13" lengthAdjust="spacing" textLength="42.6309" x="97" y="217.7251">creates</text></g><!--link JobFactory to NoRetryPolicy--><g class="link" data-entity-1="ent0009" data-entity-2="ent0012" data-link-type="dependency" data-source-line="37" id="lnk17"><path codeLine="37" d="M232,182.21 C232,205.42 232,226.51 232,246.68" fill="none" id="JobFactory-to-NoRetryPolicy" style="stroke:#181818;stroke-width:1;stroke-dasharray:7,7;"/><polygon fill="#181818" points="232,252.68,236,243.68,232,247.68,228,243.68,232,252.68" style="stroke:#181818;stroke-width:1;"/><text fill="#000000" font-family="sans-serif" font-size="13" lengthAdjust="spacing" textLength="44.0781" x="187" y="213.9451">fallback</text></g><?plantuml-src XPB1JiCm38RlUGfhfo6qYFCqLPecaCO1mU05qjHResLnbRY20djtqj9D6Ut4BSvdv__zAqmLC45Ep7I0mdZKRCY9i3UkKbuTm1g7t5G8vBca18HI5VHkt0wsoWPCYBOgX2MpDtdDkDRaNiqdmfqeJO6WZTSMXQYKtgiTmkIjiYyrrYYNUM2lEWDX0el5_GUZTyfc6Nm90EDYkLKQOVr8-OQ87s8p-QQZ0BVzxLHAUGFpSrU4Hp6O7ywcS-CpeoR4SMoN5NcST8ztQS1GSULHCKvFYZszvkR_zSuwwRbl-AsVQ8FicsUoHZSnty2AZSwoTeCqajdiE_kRiKYub3q_iKkOjSBHeEuM32EmVVTwmwNDUVkzR1u3_W40?></g></svg>