<?plantuml 1.2026.2?><svg xmlns="http://www.w3.org/2000/svg" xmlns:xlink="http://www.w3.org/1999/xlink" contentStyleType="text/css" data-diagram-type="CLASS" height="489px" preserveAspectRatio="none" style="width:438px;height:489px;background:#FFFFFF;" version="1.1" viewBox="0 0 438 489" width="438px" zoomAndPan="magnify"><defs/><g><!--cluster TplQueue--><g class="cluster" data-qualified-name="TplQueue" data-source-line="8" id="ent0004"><path d="M8.5,6 L74.0586,6 A3.75,3.75 0 0 1 76.5586,8.5 L83.5586,29.6094 L428.5,29.6094 A2.5,2.5 0 0 1 431,32.1094 L431,479.5 A2.5,2.5 0 0 1 428.5,482 L8.5,482 A2.5,2.5 0 0 1 6,479.5 L6,8.5 A2.5,2.5 0 0 1 8.5,6" fill="none" style="stroke:#000000;stroke-width:1.5;"/><line style="stroke:#000000;stroke-width:1.5;" x1="6" x2="83.5586" y1="29.6094" y2="29.6094"/><text fill="#000000" font-family="sans-serif" font-size="14" font-weight="bold" lengthAdjust="spacing" textLength="64.5586" x="10" y="22.5332">TplQueue</text></g><!--cluster Abstractions--><g class="cluster" data-qualified-name="TplQueue.Abstractions" data-source-line="7" id="ent0002"><path d="M157.5,344 L244.0723,344 A3.75,3.75 0 0 1 246.5723,346.5 L253.5723,367.6094 L404.5,367.6094 A2.5,2.5 0 0 1 407,370.1094 L407,455.5 A2.5,2.5 0 0 1 404.5,458 L157.5,458 A2.5,2.5 0 0 1 155,455.5 L155,346.5 A2.5,2.5 0 0 1 157.5,344" fill="none" style="stroke:#000000;stroke-width:1.5;"/><line style="stroke:#000000;stroke-width:1.5;" x1="155" x2="253.5723" y1="367.6094" y2="367.6094"/><text fill="#000000" font-family="sans-serif" font-size="14" font-weight="bold" lengthAdjust="spacing" textLength="85.5723" x="159" y="360.5332">Abstractions</text><text fill="#000000" font-family="sans-serif" font-size="14" font-style="italic" lengthAdjust="spacing" textLength="66.9307" x="251.5347" y="384.1426">&#171;External&#187;</text></g><!--cluster Core--><g class="cluster" data-qualified-name="TplQueue.Core" data-source-line="13" id="ent0007"><path d="M32.5,50 L65.3965,50 A3.75,3.75 0 0 1 67.8965,52.5 L74.8965,73.6094 L363.5,73.6094 A2.5,2.5 0 0 1 366,76.1094 L366,317.5 A2.5,2.5 0 0 1 363.5,320 L32.5,320 A2.5,2.5 0 0 1 30,317.5 L30,52.5 A2.5,2.5 0 0 1 32.5,50" fill="none" style="stroke:#000000;stroke-width:1.5;"/><line style="stroke:#000000;stroke-width:1.5;" x1="30" x2="74.8965" y1="73.6094" y2="73.6094"/><text fill="#000000" font-family="sans-serif" font-size="14" font-weight="bold" lengthAdjust="spacing" textLength="31.8965" x="34" y="66.5332">Core</text></g><!--class IQ--><g class="entity" data-qualified-name="TplQueue.Abstractions.IQ" data-source-line="8" id="ent0003"><rect fill="#F1F1F1" height="43.6094" rx="2.5" ry="2.5" style="stroke:#181818;stroke-width:0.5;" width="20.7793" x="268.5" y="398"/><text fill="#000000" font-family="sans-serif" font-size="14" font-style="italic" lengthAdjust="spacing" textLength="14.7793" x="271.5" y="417.5332">IQ</text><line style="stroke:#181818;stroke-width:0.5;" x1="269.5" x2="288.2793" y1="425.6094" y2="425.6094"/><line style="stroke:#181818;stroke-width:0.5;" x1="269.5" x2="288.2793" y1="433.6094" y2="433.6094"/></g><!--class IJobNode--><g class="entity" data-qualified-name="TplQueue.Abstractions.IJobNode" data-source-line="9" id="ent0005"><rect fill="#F1F1F1" height="43.6094" rx="2.5" ry="2.5" style="stroke:#181818;stroke-width:0.5;" width="65.9307" x="325" y="398"/><text fill="#000000" font-family="sans-serif" font-size="14" font-style="italic" lengthAdjust="spacing" textLength="59.9307" x="328" y="417.5332">IJobNode</text><line style="stroke:#181818;stroke-width:0.5;" x1="326" x2="389.9307" y1="425.6094" y2="425.6094"/><line style="stroke:#181818;stroke-width:0.5;" x1="326" x2="389.9307" y1="433.6094" y2="433.6094"/></g><!--class IJobRoot--><g class="entity" data-qualified-name="TplQueue.Abstractions.IJobRoot" data-source-line="10" id="ent0006"><rect fill="#F1F1F1" height="43.6094" rx="2.5" ry="2.5" style="stroke:#181818;stroke-width:0.5;" width="62.0342" x="171" y="398"/><text fill="#000000" font-family="sans-serif" font-size="14" font-style="italic" lengthAdjust="spacing" textLength="56.0342" x="174" y="417.5332">IJobRoot</text><line style="stroke:#181818;stroke-width:0.5;" x1="172" x2="232.0342" y1="425.6094" y2="425.6094"/><line style="stroke:#181818;stroke-width:0.5;" x1="172" x2="232.0342" y1="433.6094" y2="433.6094"/></g><!--class IJobRootCommandAsync--><g class="entity" data-qualified-name="TplQueue.Core.IJobRootCommandAsync" data-source-line="14" id="ent0008"><rect fill="#F1F1F1" height="43.6094" rx="2.5" ry="2.5" style="stroke:#181818;stroke-width:0.5;" width="164.7373" x="46.5" y="260"/><text fill="#000000" font-family="sans-serif" font-size="14" font-style="italic" lengthAdjust="spacing" textLength="158.7373" x="49.5" y="279.5332">IJobRootCommandAsync</text><line style="stroke:#181818;stroke-width:0.5;" x1="47.5" x2="210.2373" y1="287.6094" y2="287.6094"/><line style="stroke:#181818;stroke-width:0.5;" x1="47.5" x2="210.2373" y1="295.6094" y2="295.6094"/></g><!--class JobNodeBase--><g class="entity" data-qualified-name="TplQueue.Core.JobNodeBase" data-source-line="16" id="ent0009"><rect fill="#F1F1F1" height="43.6094" rx="2.5" ry="2.5" style="stroke:#181818;stroke-width:0.5;" width="93.9512" x="247" y="260"/><text fill="#000000" font-family="sans-serif" font-size="14" font-style="italic" lengthAdjust="spacing" textLength="87.9512" x="250" y="279.5332">JobNodeBase</text><line style="stroke:#181818;stroke-width:0.5;" x1="248" x2="339.9512" y1="287.6094" y2="287.6094"/><line style="stroke:#181818;stroke-width:0.5;" x1="248" x2="339.9512" y1="295.6094" y2="295.6094"/></g><!--class JobRoot--><g class="entity" data-qualified-name="TplQueue.Core.JobRoot" data-source-line="18" id="ent0010"><rect fill="#F1F1F1" height="114.0469" rx="2.5" ry="2.5" style="stroke:#181818;stroke-width:0.5;" width="303.3613" x="46.5" y="86"/><text fill="#000000" font-family="sans-serif" font-size="14" lengthAdjust="spacing" textLength="52.1445" x="172.1084" y="105.5332">JobRoot</text><line style="stroke:#181818;stroke-width:0.5;" x1="47.5" x2="348.8613" y1="113.6094" y2="113.6094"/><line style="stroke:#181818;stroke-width:0.5;" x1="47.5" x2="348.8613" y1="121.6094" y2="121.6094"/><text fill="#000000" font-family="sans-serif" font-size="14" lengthAdjust="spacing" textLength="157.6025" x="52.5" y="140.1426">+Enqueue(queue, ct) : IQ</text><text fill="#000000" font-family="sans-serif" font-size="14" lengthAdjust="spacing" textLength="205.0234" x="52.5" y="157.752">+After(previousTasks) : IJobRoot</text><text fill="#000000" font-family="sans-serif" font-size="14" lengthAdjust="spacing" textLength="135.0029" x="52.5" y="175.3613">+Create(...) : JobRoot</text><text fill="#000000" font-family="sans-serif" font-size="14" lengthAdjust="spacing" textLength="291.3613" x="52.5" y="192.9707">+GetRetryPolicyFactory() : Func&lt;IRetryPolicy&gt;</text></g><!--link IJobRootCommandAsync to IJobRoot--><g class="link" data-entity-1="ent0008" data-entity-2="ent0006" data-link-type="extension" data-source-line="26" id="lnk11"><path codeLine="26" d="M191.25,304.17 C191.25,329.92 191.25,354.15 191.25,379.88" fill="none" id="IJobRootCommandAsync-to-IJobRoot" style="stroke:#181818;stroke-width:1;"/><polygon fill="none" points="191.25,397.88,197.25,379.88,185.25,379.88,191.25,397.88" style="stroke:#181818;stroke-width:1;"/></g><!--link JobRoot to JobNodeBase--><g class="link" data-entity-1="ent0010" data-entity-2="ent0009" data-link-type="extension" data-source-line="27" id="lnk12"><path codeLine="27" d="M294,200.34 C294,221.28 294,225.74 294,241.79" fill="none" id="JobRoot-to-JobNodeBase" style="stroke:#181818;stroke-width:1;"/><polygon fill="none" points="294,259.79,300,241.79,288,241.79,294,259.79" style="stroke:#181818;stroke-width:1;"/></g><!--link JobRoot to IJobRootCommandAsync--><g class="link" data-entity-1="ent0010" data-entity-2="ent0008" data-link-type="extension" data-source-line="28" id="lnk13"><path codeLine="28" d="M129,200.34 C129,221.28 129,225.74 129,241.79" fill="none" id="JobRoot-to-IJobRootCommandAsync" style="stroke:#181818;stroke-width:1;stroke-dasharray:7,7;"/><polygon fill="none" points="129,259.79,135,241.79,123,241.79,129,259.79" style="stroke:#181818;stroke-width:1;"/></g><!--link JobRoot to IQ--><g class="link" data-entity-1="ent0010" data-entity-2="ent0003" data-link-type="dependency" data-source-line="29" id="lnk14"><path codeLine="29" d="M240,200.06 C240,281.15 240,420 240,420 C240,420 250.8,420 262.34,420" fill="none" id="JobRoot-to-IQ" style="stroke:#181818;stroke-width:1;stroke-dasharray:7,7;"/><polygon fill="#181818" points="268.34,420,259.34,416,263.34,420,259.34,424,268.34,420" style="stroke:#181818;stroke-width:1;"/><text fill="#000000" font-family="sans-serif" font-size="13" lengthAdjust="spacing" textLength="60.709" x="179" y="320.6951">Enqueue()</text></g><!--link JobRoot to IJobNode--><g class="link" data-entity-1="ent0010" data-entity-2="ent0005" data-link-type="dependency" data-source-line="30" id="lnk15"><path codeLine="30" d="M345.25,200.06 C345.25,261.19 345.25,349.16 345.25,391.7" fill="none" id="JobRoot-to-IJobNode" style="stroke:#181818;stroke-width:1;stroke-dasharray:7,7;"/><polygon fill="#181818" points="345.25,397.7,349.25,388.7,345.25,392.7,341.25,388.7,345.25,397.7" style="stroke:#181818;stroke-width:1;"/><text fill="#000000" font-family="sans-serif" font-size="13" lengthAdjust="spacing" textLength="46.9473" x="346.25" y="295.3751">After(...)</text></g><?plantuml-src RP31Ji9048RlVOe9fnAbyMn8aqh0uC48yWBJxG0RsfswErMhykvkIv5MlMooy_qpy_yZN88mf2p21MJQaXBD9d07RKgqM42k3KbT4h2LFVU0ssF6RzhiO8kvenvHEJgNY5YTLa9BnUPPVn3S17kT4IXjLKv1KA8wu8vWj2dpLKKLHKdgn69hm8rWEfs_2rc3UHp3Pm2WZVzkKH4iLyFl0wUFdD6VuffPWkD_gsPiQVHxQjSnuw90aoMkDYhm2knidN91j-mEVMPFVufDQpiHu6fkNferOVjUWv8nt9vSUvXi_SQmjFIgkN8RT0VNuhFXLZIpX49X54KD6w1xaZM9hPyurwfUU6Tiwx2HBIgZfiiUZ7t7iRd0VzbWClcABslF4TfgF-GPH55FFZZIHU45As_ad7yyHDrKBpZTe4dt3G00?></g></svg>