<?plantuml 1.2026.2?><svg xmlns="http://www.w3.org/2000/svg" xmlns:xlink="http://www.w3.org/1999/xlink" contentStyleType="text/css" data-diagram-type="CLASS" height="351px" preserveAspectRatio="none" style="width:728px;height:351px;background:#FFFFFF;" version="1.1" viewBox="0 0 728 351" width="728px" zoomAndPan="magnify"><defs/><g><!--cluster TplQueue--><g class="cluster" data-qualified-name="TplQueue" data-source-line="8" id="ent0004"><path d="M8.5,6 L74.0586,6 A3.75,3.75 0 0 1 76.5586,8.5 L83.5586,29.6094 L718.5,29.6094 A2.5,2.5 0 0 1 721,32.1094 L721,341.5 A2.5,2.5 0 0 1 718.5,344 L8.5,344 A2.5,2.5 0 0 1 6,341.5 L6,8.5 A2.5,2.5 0 0 1 8.5,6" fill="none" style="stroke:#000000;stroke-width:1.5;"/><line style="stroke:#000000;stroke-width:1.5;" x1="6" x2="83.5586" y1="29.6094" y2="29.6094"/><text fill="#000000" font-family="sans-serif" font-size="14" font-weight="bold" lengthAdjust="spacing" textLength="64.5586" x="10" y="22.5332">TplQueue</text></g><!--cluster Abstractions--><g class="cluster" data-qualified-name="TplQueue.Abstractions" data-source-line="7" id="ent0002"><path d="M598.5,188.5 L685.0723,188.5 A3.75,3.75 0 0 1 687.5723,191 L694.5723,212.1094 L694.5,212.1094 A2.5,2.5 0 0 1 697,214.6094 L697,300 A2.5,2.5 0 0 1 694.5,302.5 L598.5,302.5 A2.5,2.5 0 0 1 596,300 L596,191 A2.5,2.5 0 0 1 598.5,188.5" fill="none" style="stroke:#000000;stroke-width:1.5;"/><line style="stroke:#000000;stroke-width:1.5;" x1="596" x2="694.5723" y1="212.1094" y2="212.1094"/><text fill="#000000" font-family="sans-serif" font-size="14" font-weight="bold" lengthAdjust="spacing" textLength="85.5723" x="600" y="205.0332">Abstractions</text><text fill="#000000" font-family="sans-serif" font-size="14" font-style="italic" lengthAdjust="spacing" textLength="66.9307" x="617.0347" y="228.6426">&#171;External&#187;</text></g><!--cluster Core--><g class="cluster" data-qualified-name="TplQueue.Core" data-source-line="11" id="ent0005"><path d="M32.5,50 L65.3965,50 A3.75,3.75 0 0 1 67.8965,52.5 L74.8965,73.6094 L569.5,73.6094 A2.5,2.5 0 0 1 572,76.1094 L572,317.5 A2.5,2.5 0 0 1 569.5,320 L32.5,320 A2.5,2.5 0 0 1 30,317.5 L30,52.5 A2.5,2.5 0 0 1 32.5,50" fill="none" style="stroke:#000000;stroke-width:1.5;"/><line style="stroke:#000000;stroke-width:1.5;" x1="30" x2="74.8965" y1="73.6094" y2="73.6094"/><text fill="#000000" font-family="sans-serif" font-size="14" font-weight="bold" lengthAdjust="spacing" textLength="31.8965" x="34" y="66.5332">Core</text></g><!--class IJobNode--><g class="entity" data-qualified-name="TplQueue.Abstractions.IJobNode" data-source-line="8" id="ent0003"><rect fill="#F1F1F1" height="43.6094" rx="2.5" ry="2.5" style="stroke:#181818;stroke-width:0.5;" width="65.9307" x="612" y="242.5"/><text fill="#000000" font-family="sans-serif" font-size="14" font-style="italic" lengthAdjust="spacing" textLength="59.9307" x="615" y="262.0332">IJobNode</text><line style="stroke:#181818;stroke-width:0.5;" x1="613" x2="676.9307" y1="270.1094" y2="270.1094"/><line style="stroke:#181818;stroke-width:0.5;" x1="613" x2="676.9307" y1="278.1094" y2="278.1094"/></g><!--class AsyncAutoResetEvent--><g class="entity" data-qualified-name="TplQueue.Core.AsyncAutoResetEvent" data-source-line="12" id="ent0006"><rect fill="#F1F1F1" height="78.8281" rx="2.5" ry="2.5" style="stroke:#181818;stroke-width:0.5;" width="308.4678" x="147" y="225"/><text fill="#000000" font-family="sans-serif" font-size="14" lengthAdjust="spacing" textLength="139.2959" x="231.5859" y="244.5332">AsyncAutoResetEvent</text><line style="stroke:#181818;stroke-width:0.5;" x1="148" x2="454.4678" y1="252.6094" y2="252.6094"/><line style="stroke:#181818;stroke-width:0.5;" x1="148" x2="454.4678" y1="260.6094" y2="260.6094"/><text fill="#000000" font-family="sans-serif" font-size="14" lengthAdjust="spacing" textLength="296.4678" x="153" y="279.1426">+WaitAsync(cancellationToken = default) : Task</text><text fill="#000000" font-family="sans-serif" font-size="14" lengthAdjust="spacing" textLength="75.8652" x="153" y="296.752">+Set() : void</text></g><!--class AsyncOrderedQueueT--><g class="entity" data-qualified-name="TplQueue.Core.AsyncOrderedQueueT" data-source-line="17" id="ent0007"><rect fill="#F1F1F1" height="78.8281" rx="2.5" ry="2.5" style="stroke:#181818;stroke-width:0.5;" width="508.8701" x="46.5" y="86"/><text fill="#000000" font-family="sans-serif" font-size="14" lengthAdjust="spacing" textLength="131.5166" x="229.5117" y="105.5332">AsyncOrderedQueue</text><rect fill="#FFFFFF" height="17.0938" style="stroke:#181818;stroke-width:1;stroke-dasharray:2,2;" width="9.3301" x="549.04" y="83"/><text fill="#000000" font-family="sans-serif" font-size="12" font-style="italic" lengthAdjust="spacing" textLength="7.3301" x="550.04" y="96.457">T</text><line style="stroke:#181818;stroke-width:0.5;" x1="47.5" x2="554.3701" y1="113.6094" y2="113.6094"/><line style="stroke:#181818;stroke-width:0.5;" x1="47.5" x2="554.3701" y1="121.6094" y2="121.6094"/><text fill="#000000" font-family="sans-serif" font-size="14" lengthAdjust="spacing" textLength="426.0908" x="52.5" y="140.1426">+Enqueue(item, jobRootId, isFifo, queueId, cancellationToken) : bool</text><text fill="#000000" font-family="sans-serif" font-size="14" lengthAdjust="spacing" textLength="496.8701" x="52.5" y="157.752">+DequeueAsync(cancellationToken) : Task&lt;(T, Guid, CancellationToken, bool)&gt;</text></g><!--reverse link AsyncOrderedQueueT to AsyncAutoResetEvent--><g class="link" data-entity-1="ent0007" data-entity-2="ent0006" data-link-type="composition" data-source-line="23" id="lnk8"><path codeLine="23" d="M301,177.33 C301,195.94 301,206.05 301,224.66" fill="none" id="AsyncOrderedQueueT-backto-AsyncAutoResetEvent" style="stroke:#181818;stroke-width:1;"/><polygon fill="#181818" points="301,165.33,297,171.33,301,177.33,305,171.33,301,165.33" style="stroke:#181818;stroke-width:1;"/></g><!--link AsyncOrderedQueueT to IJobNode--><g class="link" data-entity-1="ent0007" data-entity-2="ent0003" data-link-type="dependency" data-source-line="24" id="lnk9"><path codeLine="24" d="M555.52,126 C606.63,126 645,126 645,126 C645,126 645,197.1 645,236.25" fill="none" id="AsyncOrderedQueueT-to-IJobNode" style="stroke:#181818;stroke-width:1;stroke-dasharray:7,7;"/><polygon fill="#181818" points="645,242.25,649,233.25,645,237.25,641,233.25,645,242.25" style="stroke:#181818;stroke-width:1;"/></g><?plantuml-src TP51JyCm38Nl_HLMJnrq4sTKAbLZe740iLNYd2Rk5fh59N470_7VQJE69XX7-zdFtqkOMc22YfXf0qexbAp9HhxHjXLERC1eYxnh4SZnceu4lnQANhLTGIsCnoD56k5zmUnqrJ7E9TcbVaUuYDPQ8KZjfC4eQeLin0eXBblps667awBox4G0y35asUoDqLbXyXm-8W1j-x8M4c5-HzKzAOm-JzbCoM4SDW8857vdPT4nBT0ZpxPeEQW0vqz2Sv0JAQn4OyHmlAG6BLo1mbfqXaTm2QNmpNvbYPmCdIrfrNTwWiETE3WzE8KELK39oZm6yKrmB9G7W9bz6Uf4CsvIUAPgGSHpbOBsDxgc588yDFu03X0LaTaRNMEO_2VC8KAMb2dSThhtc_wUIOFRA0-X-bWdeC_6urElUMfqCib_lkaB?></g></svg>