<?plantuml 1.2026.2?><svg xmlns="http://www.w3.org/2000/svg" xmlns:xlink="http://www.w3.org/1999/xlink" contentStyleType="text/css" data-diagram-type="CLASS" height="997px" preserveAspectRatio="none" style="width:814px;height:997px;background:#FFFFFF;" version="1.1" viewBox="0 0 814 997" width="814px" zoomAndPan="magnify"><defs/><g><!--cluster TplQueue--><g class="cluster" data-qualified-name="TplQueue" data-source-line="8" id="ent0004"><path d="M8.5,6 L74.0586,6 A3.75,3.75 0 0 1 76.5586,8.5 L83.5586,29.6094 L804.5,29.6094 A2.5,2.5 0 0 1 807,32.1094 L807,987.5 A2.5,2.5 0 0 1 804.5,990 L8.5,990 A2.5,2.5 0 0 1 6,987.5 L6,8.5 A2.5,2.5 0 0 1 8.5,6" fill="none" style="stroke:#000000;stroke-width:1.5;"/><line style="stroke:#000000;stroke-width:1.5;" x1="6" x2="83.5586" y1="29.6094" y2="29.6094"/><text fill="#000000" font-family="sans-serif" font-size="14" font-weight="bold" lengthAdjust="spacing" textLength="64.5586" x="10" y="22.5332">TplQueue</text></g><!--cluster Abstractions--><g class="cluster" data-qualified-name="TplQueue.Abstractions" data-source-line="7" id="ent0002"><path d="M521.5,852 L608.0723,852 A3.75,3.75 0 0 1 610.5723,854.5 L617.5723,875.6094 L778.5,875.6094 A2.5,2.5 0 0 1 781,878.1094 L781,963.5 A2.5,2.5 0 0 1 778.5,966 L521.5,966 A2.5,2.5 0 0 1 519,963.5 L519,854.5 A2.5,2.5 0 0 1 521.5,852" fill="none" style="stroke:#000000;stroke-width:1.5;"/><line style="stroke:#000000;stroke-width:1.5;" x1="519" x2="617.5723" y1="875.6094" y2="875.6094"/><text fill="#000000" font-family="sans-serif" font-size="14" font-weight="bold" lengthAdjust="spacing" textLength="85.5723" x="523" y="868.5332">Abstractions</text><text fill="#000000" font-family="sans-serif" font-size="14" font-style="italic" lengthAdjust="spacing" textLength="66.9307" x="620.5347" y="892.1426">&#171;External&#187;</text></g><!--cluster Core--><g class="cluster" data-qualified-name="TplQueue.Core" data-source-line="13" id="ent0007"><path d="M32.5,50 L65.3965,50 A3.75,3.75 0 0 1 67.8965,52.5 L74.8965,73.6094 L730.5,73.6094 A2.5,2.5 0 0 1 733,76.1094 L733,825.5 A2.5,2.5 0 0 1 730.5,828 L32.5,828 A2.5,2.5 0 0 1 30,825.5 L30,52.5 A2.5,2.5 0 0 1 32.5,50" fill="none" style="stroke:#000000;stroke-width:1.5;"/><line style="stroke:#000000;stroke-width:1.5;" x1="30" x2="74.8965" y1="73.6094" y2="73.6094"/><text fill="#000000" font-family="sans-serif" font-size="14" font-weight="bold" lengthAdjust="spacing" textLength="31.8965" x="34" y="66.5332">Core</text></g><!--class IJob--><g class="entity" data-qualified-name="TplQueue.Abstractions.IJob" data-source-line="8" id="ent0003"><rect fill="#F1F1F1" height="43.6094" rx="2.5" ry="2.5" style="stroke:#181818;stroke-width:0.5;" width="32.4619" x="636" y="906"/><text fill="#000000" font-family="sans-serif" font-size="14" font-style="italic" lengthAdjust="spacing" textLength="26.4619" x="639" y="925.5332">IJob</text><line style="stroke:#181818;stroke-width:0.5;" x1="637" x2="667.4619" y1="933.6094" y2="933.6094"/><line style="stroke:#181818;stroke-width:0.5;" x1="637" x2="667.4619" y1="941.6094" y2="941.6094"/></g><!--class IJobNode--><g class="entity" data-qualified-name="TplQueue.Abstractions.IJobNode" data-source-line="9" id="ent0005"><rect fill="#F1F1F1" height="43.6094" rx="2.5" ry="2.5" style="stroke:#181818;stroke-width:0.5;" width="65.9307" x="535" y="906"/><text fill="#000000" font-family="sans-serif" font-size="14" font-style="italic" lengthAdjust="spacing" textLength="59.9307" x="538" y="925.5332">IJobNode</text><line style="stroke:#181818;stroke-width:0.5;" x1="536" x2="599.9307" y1="933.6094" y2="933.6094"/><line style="stroke:#181818;stroke-width:0.5;" x1="536" x2="599.9307" y1="941.6094" y2="941.6094"/></g><!--class IJobRoot--><g class="entity" data-qualified-name="TplQueue.Abstractions.IJobRoot" data-source-line="10" id="ent0006"><rect fill="#F1F1F1" height="43.6094" rx="2.5" ry="2.5" style="stroke:#181818;stroke-width:0.5;" width="62.0342" x="703" y="906"/><text fill="#000000" font-family="sans-serif" font-size="14" font-style="italic" lengthAdjust="spacing" textLength="56.0342" x="706" y="925.5332">IJobRoot</text><line style="stroke:#181818;stroke-width:0.5;" x1="704" x2="764.0342" y1="933.6094" y2="933.6094"/><line style="stroke:#181818;stroke-width:0.5;" x1="704" x2="764.0342" y1="941.6094" y2="941.6094"/></g><!--class IJobNodeCommandAsync--><g class="entity" data-qualified-name="TplQueue.Core.IJobNodeCommandAsync" data-source-line="14" id="ent0008"><rect fill="#F1F1F1" height="96.4375" rx="2.5" ry="2.5" style="stroke:#181818;stroke-width:0.5;" width="500.291" x="82" y="716"/><text fill="#000000" font-family="sans-serif" font-size="14" font-style="italic" lengthAdjust="spacing" textLength="162.6338" x="250.8286" y="735.5332">IJobNodeCommandAsync</text><line style="stroke:#181818;stroke-width:0.5;" x1="83" x2="581.291" y1="743.6094" y2="743.6094"/><line style="stroke:#181818;stroke-width:0.5;" x1="83" x2="581.291" y1="751.6094" y2="751.6094"/><text fill="#000000" font-family="sans-serif" font-size="14" lengthAdjust="spacing" textLength="235.3887" x="88" y="770.1426">+ExecuteAsync(ct) : Task&lt;IJobNode&gt;</text><text fill="#000000" font-family="sans-serif" font-size="14" lengthAdjust="spacing" textLength="88.3066" x="88" y="787.752">+Clear() : void</text><text fill="#000000" font-family="sans-serif" font-size="14" lengthAdjust="spacing" textLength="488.291" x="88" y="805.3613">+GetBatchJobCommands() : IReadOnlyCollection&lt;IJobNodeCommandAsync&gt;</text></g><!--class IJobCommandAsync--><g class="entity" data-qualified-name="TplQueue.Core.IJobCommandAsync" data-source-line="20" id="ent0009"><rect fill="#F1F1F1" height="43.6094" rx="2.5" ry="2.5" style="stroke:#181818;stroke-width:0.5;" width="135.165" x="581.5" y="453.5"/><text fill="#000000" font-family="sans-serif" font-size="14" font-style="italic" lengthAdjust="spacing" textLength="129.165" x="584.5" y="473.0332">IJobCommandAsync</text><line style="stroke:#181818;stroke-width:0.5;" x1="582.5" x2="715.665" y1="481.1094" y2="481.1094"/><line style="stroke:#181818;stroke-width:0.5;" x1="582.5" x2="715.665" y1="489.1094" y2="489.1094"/></g><!--class JobNodeBase--><g class="entity" data-qualified-name="TplQueue.Core.JobNodeBase" data-source-line="22" id="ent0010"><rect fill="#F1F1F1" height="360.5781" rx="2.5" ry="2.5" style="stroke:#181818;stroke-width:0.5;" width="500.291" x="46" y="295"/><text fill="#000000" font-family="sans-serif" font-size="14" font-style="italic" lengthAdjust="spacing" textLength="87.9512" x="252.1699" y="314.5332">JobNodeBase</text><line style="stroke:#181818;stroke-width:0.5;" x1="47" x2="545.291" y1="322.6094" y2="322.6094"/><text fill="#000000" font-family="sans-serif" font-size="14" lengthAdjust="spacing" textLength="61.0928" x="52" y="341.1426">+Id : Guid</text><text fill="#000000" font-family="sans-serif" font-size="14" lengthAdjust="spacing" textLength="91.4238" x="52" y="358.752">+Name : string</text><text fill="#000000" font-family="sans-serif" font-size="14" lengthAdjust="spacing" textLength="124.9063" x="52" y="376.3613">+IsCompleted : bool</text><text fill="#000000" font-family="sans-serif" font-size="14" lengthAdjust="spacing" textLength="129.5615" x="52" y="393.9707">+Status : TaskStatus</text><text fill="#000000" font-family="sans-serif" font-size="14" lengthAdjust="spacing" textLength="171.5752" x="52" y="411.5801">+ExecutionStart : DateTime</text><text fill="#000000" font-family="sans-serif" font-size="14" lengthAdjust="spacing" textLength="166.9199" x="52" y="429.1895">+ExecutionEnd : DateTime</text><text fill="#000000" font-family="sans-serif" font-size="14" lengthAdjust="spacing" textLength="176.2441" x="52" y="446.7988">+ExecutionTime : TimeSpan</text><text fill="#000000" font-family="sans-serif" font-size="14" lengthAdjust="spacing" textLength="303.1396" x="52" y="464.4082">+Dependencies : IReadOnlyCollection&lt;IJobInfo&gt;</text><text fill="#000000" font-family="sans-serif" font-size="14" lengthAdjust="spacing" textLength="139.6855" x="52" y="482.0176">+CrossQueueId : Guid</text><line style="stroke:#181818;stroke-width:0.5;" x1="47" x2="545.291" y1="489.0938" y2="489.0938"/><text fill="#000000" font-family="sans-serif" font-size="14" lengthAdjust="spacing" textLength="184.8164" x="52" y="507.627">+GetJobsBatch() : IJobNode[]</text><text fill="#000000" font-family="sans-serif" font-size="14" lengthAdjust="spacing" textLength="244.7607" x="52" y="525.2363">+GetJobInfoDependencies() : IJobInfo[]</text><text fill="#000000" font-family="sans-serif" font-size="14" lengthAdjust="spacing" textLength="235.3887" x="52" y="542.8457">+ExecuteAsync(ct) : Task&lt;IJobNode&gt;</text><text fill="#000000" font-family="sans-serif" font-size="14" lengthAdjust="spacing" textLength="206.5547" x="52" y="560.4551">+WaitUntilFinishedAsync() : Task</text><text fill="#000000" font-family="sans-serif" font-size="14" lengthAdjust="spacing" textLength="135.0166" x="52" y="578.0645">+CopyInfo() : IJobInfo</text><text fill="#000000" font-family="sans-serif" font-size="14" lengthAdjust="spacing" textLength="88.3066" x="52" y="595.6738">+Clear() : void</text><text fill="#000000" font-family="sans-serif" font-size="14" lengthAdjust="spacing" textLength="291.3613" x="52" y="613.2832">+GetRetryPolicyFactory() : Func&lt;IRetryPolicy&gt;</text><text fill="#000000" font-family="sans-serif" font-size="14" lengthAdjust="spacing" textLength="153.6924" x="52" y="630.8926">+SetRoot(jobRoot) : void</text><text fill="#000000" font-family="sans-serif" font-size="14" lengthAdjust="spacing" textLength="488.291" x="52" y="648.502">+GetBatchJobCommands() : IReadOnlyCollection&lt;IJobNodeCommandAsync&gt;</text></g><!--class Job--><g class="entity" data-qualified-name="TplQueue.Core.Job" data-source-line="43" id="ent0011"><rect fill="#F1F1F1" height="149.2656" rx="2.5" ry="2.5" style="stroke:#181818;stroke-width:0.5;" width="333.7676" x="102" y="86"/><text fill="#000000" font-family="sans-serif" font-size="14" lengthAdjust="spacing" textLength="22.5723" x="257.5977" y="105.5332">Job</text><line style="stroke:#181818;stroke-width:0.5;" x1="103" x2="434.7676" y1="113.6094" y2="113.6094"/><text fill="#000000" font-family="sans-serif" font-size="14" lengthAdjust="spacing" textLength="177.0508" x="108" y="132.1426">+MaxDependencyDepth : int</text><line style="stroke:#181818;stroke-width:0.5;" x1="103" x2="434.7676" y1="139.2188" y2="139.2188"/><text fill="#000000" font-family="sans-serif" font-size="14" lengthAdjust="spacing" textLength="105.4307" x="108" y="157.752">+Create(...) : Job</text><text fill="#000000" font-family="sans-serif" font-size="14" lengthAdjust="spacing" textLength="175.4512" x="108" y="175.3613">+After(previousTasks) : IJob</text><text fill="#000000" font-family="sans-serif" font-size="14" lengthAdjust="spacing" textLength="297.6367" x="108" y="192.9707">+JobCommand(job) : IJobNodeCommandAsync</text><text fill="#000000" font-family="sans-serif" font-size="14" lengthAdjust="spacing" textLength="306.9814" x="108" y="210.5801">+RunAction(...) : Func&lt;CancellationToken, Task&gt;</text><text fill="#000000" font-family="sans-serif" font-size="14" lengthAdjust="spacing" textLength="321.7676" x="108" y="228.1895">+RunFunction(...) : Func&lt;CancellationToken, Task&gt;</text></g><!--class JobExtensions--><g class="entity" data-qualified-name="TplQueue.Core.JobExtensions" data-source-line="52" id="ent0012"><rect fill="#F1F1F1" height="93.9219" rx="2.5" ry="2.5" style="stroke:#181818;stroke-width:0.5;" width="245.8438" x="471" y="113.5"/><text fill="#000000" font-family="sans-serif" font-size="12" font-style="italic" lengthAdjust="spacing" textLength="41.3555" x="573.2441" y="130.957">&#171;static&#187;</text><text fill="#000000" font-family="sans-serif" font-size="14" lengthAdjust="spacing" textLength="91.0547" x="548.3945" y="148.127">JobExtensions</text><line style="stroke:#181818;stroke-width:0.5;" x1="472" x2="715.8438" y1="156.2031" y2="156.2031"/><line style="stroke:#181818;stroke-width:0.5;" x1="472" x2="715.8438" y1="164.2031" y2="164.2031"/><text fill="#000000" font-family="sans-serif" font-size="14" lengthAdjust="spacing" textLength="174.6992" x="477" y="182.7363">+Then(previous, next) : IJob</text><text fill="#000000" font-family="sans-serif" font-size="14" lengthAdjust="spacing" textLength="233.8438" x="477" y="200.3457">+Then(previous, nextRoot) : IJobRoot</text></g><!--link IJobNodeCommandAsync to IJobNode--><g class="link" data-entity-1="ent0008" data-entity-2="ent0005" data-link-type="extension" data-source-line="58" id="lnk13"><path codeLine="58" d="M558.5,812.32 C558.5,843.31 558.5,864.07 558.5,887.92" fill="none" id="IJobNodeCommandAsync-to-IJobNode" style="stroke:#181818;stroke-width:1;"/><polygon fill="none" points="558.5,905.92,564.5,887.92,552.5,887.92,558.5,905.92" style="stroke:#181818;stroke-width:1;"/></g><!--link IJobCommandAsync to IJob--><g class="link" data-entity-1="ent0009" data-entity-2="ent0003" data-link-type="extension" data-source-line="59" id="lnk14"><path codeLine="59" d="M657.33,497.63 C657.33,574.46 657.33,811.15 657.33,887.91" fill="none" id="IJobCommandAsync-to-IJob" style="stroke:#181818;stroke-width:1;"/><polygon fill="none" points="657.33,905.91,663.33,887.91,651.33,887.91,657.33,905.91" style="stroke:#181818;stroke-width:1;"/></g><!--link JobNodeBase to IJobNodeCommandAsync--><g class="link" data-entity-1="ent0010" data-entity-2="ent0008" data-link-type="extension" data-source-line="61" id="lnk15"><path codeLine="61" d="M314,656.16 C314,677.97 314,680.58 314,697.83" fill="none" id="JobNodeBase-to-IJobNodeCommandAsync" style="stroke:#181818;stroke-width:1;stroke-dasharray:7,7;"/><polygon fill="none" points="314,715.83,320,697.83,308,697.83,314,715.83" style="stroke:#181818;stroke-width:1;"/></g><!--link Job to JobNodeBase--><g class="link" data-entity-1="ent0011" data-entity-2="ent0010" data-link-type="extension" data-source-line="62" id="lnk16"><path codeLine="62" d="M269,235.15 C269,253.43 269,255.8 269,276.73" fill="none" id="Job-to-JobNodeBase" style="stroke:#181818;stroke-width:1;"/><polygon fill="none" points="269,294.73,275,276.73,263,276.73,269,294.73" style="stroke:#181818;stroke-width:1;"/></g><!--link Job to IJobCommandAsync--><g class="link" data-entity-1="ent0011" data-entity-2="ent0009" data-link-type="extension" data-source-line="63" id="lnk17"><path codeLine="63" d="M436.23,222 C538.18,222 649,222 649,222 C649,222 649,373.77 649,435.45" fill="none" id="Job-to-IJobCommandAsync" style="stroke:#181818;stroke-width:1;stroke-dasharray:7,7;"/><polygon fill="none" points="649,453.45,655,435.45,643,435.45,649,453.45" style="stroke:#181818;stroke-width:1;"/></g><!--link JobExtensions to IJob--><g class="link" data-entity-1="ent0012" data-entity-2="ent0003" data-link-type="dependency" data-source-line="64" id="lnk18"><path codeLine="64" d="M563.75,207.6 C563.75,336.58 563.75,686 563.75,686 C563.75,686 646.67,686 646.67,686 C646.67,686 646.67,839.76 646.67,899.67" fill="none" id="JobExtensions-to-IJob" style="stroke:#181818;stroke-width:1;stroke-dasharray:7,7;"/><polygon fill="#181818" points="646.67,905.67,650.67,896.67,646.67,900.67,642.67,896.67,646.67,905.67" style="stroke:#181818;stroke-width:1;"/></g><!--link JobExtensions to IJobRoot--><g class="link" data-entity-1="ent0012" data-entity-2="ent0006" data-link-type="dependency" data-source-line="65" id="lnk19"><path codeLine="65" d="M717.05,161 C731.38,161 741,161 741,161 C741,161 741,774.11 741,899.87" fill="none" id="JobExtensions-to-IJobRoot" style="stroke:#181818;stroke-width:1;stroke-dasharray:7,7;"/><polygon fill="#181818" points="741,905.87,745,896.87,741,900.87,737,896.87,741,905.87" style="stroke:#181818;stroke-width:1;"/></g><?plantuml-src jLHBZzem4BxdLrYSgBeRzLmX99Q55PMwRO6gXwe7ummR5-E9xCcMzF7VEtOU19QksaDFa6--UNqp7i9248eD4k5UPDg18eqsyJjj2-daNXXjWQe213hAiMVmkSpmcxOFOYkDXvv56UdzXCZfJKcmK6XN-Zk8LqckCn1AEsKWIGgfTl81n61Tc0ybb91EDfwSZ0NuWHYDPWS2PwKPZyMFH0Xj-NCh5OZ56zmy0UunWoVW4f6INvUIJT71u4BS46QA-xsqsSHNLaMA42zd1r3SJSI6Ybw8rs8j_MxK-enhsjI0TCDWVKITrTWTq8qabJEpYUmZOx44cRspffgYCRNmeqibXD3SmtcbVKgmoaQ-Md_H1BgH7jeU5XbdlIlRkkxb7XXWBvvYm_0SjJ104AWRH5FZAv9K-gRd-gCl2rVEe2Cct4g2jTx3cNbcipyR0nHYyy-gaBQsta81DWEhDFXdn5hOBRRQE_G-JlUiKHu0CtqSGgry8yxdBtr22DNFsb63eQN-vHvyafe-Mj9chgtsETHZ6hRqfc0igX3x9D6pUxG4SjLxD5fLSnurkYfovgLLeqNFs5InOWz-0SElzKluJslPxLkxPs_beTEnud-KSrXUtdPCm6imJDCqPAkVCiEJBI_ti73mgB7qGIJVob8JZdM6VlfZF7a9aRiixIHMtgQ92asbLM2CZ3k7Ex1NSHZZpYUm_iNhjFrmhwmFrukFb-T7ebLpkZZwEWVRTNSbB1pejBqBX7PctIKB6JddnJjrVVrpV3o4vmVYQ4wI_cL8qvxNYOvXdj6fHuzWvt9Ex_MVfasoot1evZS0?></g></svg>