<?plantuml 1.2026.2?><svg xmlns="http://www.w3.org/2000/svg" xmlns:xlink="http://www.w3.org/1999/xlink" contentStyleType="text/css" data-diagram-type="CLASS" height="378px" preserveAspectRatio="none" style="width:691px;height:378px;background:#FFFFFF;" version="1.1" viewBox="0 0 691 378" width="691px" zoomAndPan="magnify"><defs/><g><!--cluster TplQueue--><g class="cluster" data-qualified-name="TplQueue" data-source-line="8" id="ent0004"><path d="M8.5,6 L74.0586,6 A3.75,3.75 0 0 1 76.5586,8.5 L83.5586,29.6094 L681.5,29.6094 A2.5,2.5 0 0 1 684,32.1094 L684,368.5 A2.5,2.5 0 0 1 681.5,371 L8.5,371 A2.5,2.5 0 0 1 6,368.5 L6,8.5 A2.5,2.5 0 0 1 8.5,6" fill="none" style="stroke:#000000;stroke-width:1.5;"/><line style="stroke:#000000;stroke-width:1.5;" x1="6" x2="83.5586" y1="29.6094" y2="29.6094"/><text fill="#000000" font-family="sans-serif" font-size="14" font-weight="bold" lengthAdjust="spacing" textLength="64.5586" x="10" y="22.5332">TplQueue</text></g><!--cluster Abstractions--><g class="cluster" data-qualified-name="TplQueue.Abstractions" data-source-line="7" id="ent0002"><path d="M339.5,198 L426.0723,198 A3.75,3.75 0 0 1 428.5723,200.5 L435.5723,221.6094 L657.5,221.6094 A2.5,2.5 0 0 1 660,224.1094 L660,344.5 A2.5,2.5 0 0 1 657.5,347 L339.5,347 A2.5,2.5 0 0 1 337,344.5 L337,200.5 A2.5,2.5 0 0 1 339.5,198" fill="none" style="stroke:#000000;stroke-width:1.5;"/><line style="stroke:#000000;stroke-width:1.5;" x1="337" x2="435.5723" y1="221.6094" y2="221.6094"/><text fill="#000000" font-family="sans-serif" font-size="14" font-weight="bold" lengthAdjust="spacing" textLength="85.5723" x="341" y="214.5332">Abstractions</text><text fill="#000000" font-family="sans-serif" font-size="14" font-style="italic" lengthAdjust="spacing" textLength="66.9307" x="469.0347" y="238.1426">&#171;External&#187;</text></g><!--cluster Core--><g class="cluster" data-qualified-name="TplQueue.Core" data-source-line="16" id="ent0006"><path d="M32.5,50 L65.3965,50 A3.75,3.75 0 0 1 67.8965,52.5 L74.8965,73.6094 L310.5,73.6094 A2.5,2.5 0 0 1 313,76.1094 L313,335.5 A2.5,2.5 0 0 1 310.5,338 L32.5,338 A2.5,2.5 0 0 1 30,335.5 L30,52.5 A2.5,2.5 0 0 1 32.5,50" fill="none" style="stroke:#000000;stroke-width:1.5;"/><line style="stroke:#000000;stroke-width:1.5;" x1="30" x2="74.8965" y1="73.6094" y2="73.6094"/><text fill="#000000" font-family="sans-serif" font-size="14" font-weight="bold" lengthAdjust="spacing" textLength="31.8965" x="34" y="66.5332">Core</text></g><!--class IJobRoot--><g class="entity" data-qualified-name="TplQueue.Abstractions.IJobRoot" data-source-line="8" id="ent0003"><rect fill="#F1F1F1" height="43.6094" rx="2.5" ry="2.5" style="stroke:#181818;stroke-width:0.5;" width="62.0342" x="582" y="269.5"/><text fill="#000000" font-family="sans-serif" font-size="14" font-style="italic" lengthAdjust="spacing" textLength="56.0342" x="585" y="289.0332">IJobRoot</text><line style="stroke:#181818;stroke-width:0.5;" x1="583" x2="643.0342" y1="297.1094" y2="297.1094"/><line style="stroke:#181818;stroke-width:0.5;" x1="583" x2="643.0342" y1="305.1094" y2="305.1094"/></g><!--class IParallelQ--><g class="entity" data-qualified-name="TplQueue.Abstractions.IParallelQ" data-source-line="10" id="ent0005"><rect fill="#F1F1F1" height="78.8281" rx="2.5" ry="2.5" style="stroke:#181818;stroke-width:0.5;" width="193.6992" x="353" y="252"/><text fill="#000000" font-family="sans-serif" font-size="14" font-style="italic" lengthAdjust="spacing" textLength="61.4688" x="419.1152" y="271.5332">IParallelQ</text><line style="stroke:#181818;stroke-width:0.5;" x1="354" x2="545.6992" y1="279.6094" y2="279.6094"/><line style="stroke:#181818;stroke-width:0.5;" x1="354" x2="545.6992" y1="287.6094" y2="287.6094"/><text fill="#000000" font-family="sans-serif" font-size="14" lengthAdjust="spacing" textLength="158.3613" x="359" y="306.1426">+Enqueue(...) : IParallelQ</text><text fill="#000000" font-family="sans-serif" font-size="14" lengthAdjust="spacing" textLength="181.6992" x="359" y="323.752">+EnqueueFifo(...) : IParallelQ</text></g><!--class QAbstract--><g class="entity" data-qualified-name="TplQueue.Core.QAbstract" data-source-line="17" id="ent0007"><rect fill="#F1F1F1" height="43.6094" rx="2.5" ry="2.5" style="stroke:#181818;stroke-width:0.5;" width="68.2412" x="46" y="269.5"/><text fill="#000000" font-family="sans-serif" font-size="14" font-style="italic" lengthAdjust="spacing" textLength="62.2412" x="49" y="289.0332">QAbstract</text><line style="stroke:#181818;stroke-width:0.5;" x1="47" x2="113.2412" y1="297.1094" y2="297.1094"/><line style="stroke:#181818;stroke-width:0.5;" x1="47" x2="113.2412" y1="305.1094" y2="305.1094"/></g><!--class JobRoot--><g class="entity" data-qualified-name="TplQueue.Core.JobRoot" data-source-line="19" id="ent0008"><rect fill="#F1F1F1" height="61.2188" rx="2.5" ry="2.5" style="stroke:#181818;stroke-width:0.5;" width="147.0029" x="149.5" y="261"/><text fill="#000000" font-family="sans-serif" font-size="14" lengthAdjust="spacing" textLength="52.1445" x="196.9292" y="280.5332">JobRoot</text><line style="stroke:#181818;stroke-width:0.5;" x1="150.5" x2="295.5029" y1="288.6094" y2="288.6094"/><line style="stroke:#181818;stroke-width:0.5;" x1="150.5" x2="295.5029" y1="296.6094" y2="296.6094"/><text fill="#000000" font-family="sans-serif" font-size="14" lengthAdjust="spacing" textLength="135.0029" x="155.5" y="315.1426">+Create(...) : JobRoot</text></g><!--class ParallelQ--><g class="entity" data-qualified-name="TplQueue.Core.ParallelQ" data-source-line="23" id="ent0009"><rect fill="#F1F1F1" height="96.4375" rx="2.5" ry="2.5" style="stroke:#181818;stroke-width:0.5;" width="193.6992" x="103" y="86"/><text fill="#000000" font-family="sans-serif" font-size="14" lengthAdjust="spacing" textLength="57.5791" x="171.0601" y="105.5332">ParallelQ</text><line style="stroke:#181818;stroke-width:0.5;" x1="104" x2="295.6992" y1="113.6094" y2="113.6094"/><line style="stroke:#181818;stroke-width:0.5;" x1="104" x2="295.6992" y1="121.6094" y2="121.6094"/><text fill="#000000" font-family="sans-serif" font-size="14" lengthAdjust="spacing" textLength="144.3271" x="109" y="140.1426">+Create(...) : IParallelQ</text><text fill="#000000" font-family="sans-serif" font-size="14" lengthAdjust="spacing" textLength="158.3613" x="109" y="157.752">+Enqueue(...) : IParallelQ</text><text fill="#000000" font-family="sans-serif" font-size="14" lengthAdjust="spacing" textLength="181.6992" x="109" y="175.3613">+EnqueueFifo(...) : IParallelQ</text></g><!--link ParallelQ to QAbstract--><g class="link" data-entity-1="ent0009" data-entity-2="ent0007" data-link-type="extension" data-source-line="30" id="lnk10"><path codeLine="30" d="M108.5,182.11 C108.5,211.06 108.5,228.55 108.5,251.1" fill="none" id="ParallelQ-to-QAbstract" style="stroke:#181818;stroke-width:1;"/><polygon fill="none" points="108.5,269.1,114.5,251.1,102.5,251.1,108.5,269.1" style="stroke:#181818;stroke-width:1;"/></g><!--link ParallelQ to IParallelQ--><g class="link" data-entity-1="ent0009" data-entity-2="ent0005" data-link-type="extension" data-source-line="31" id="lnk11"><path codeLine="31" d="M247.5,182.26 C247.5,216.72 247.5,257 247.5,257 C247.5,257 282.93,257 334.9,257" fill="none" id="ParallelQ-to-IParallelQ" style="stroke:#181818;stroke-width:1;stroke-dasharray:7,7;"/><polygon fill="none" points="352.9,257,334.9,251,334.9,263,352.9,257" style="stroke:#181818;stroke-width:1;"/></g><!--link ParallelQ to JobRoot--><g class="link" data-entity-1="ent0009" data-entity-2="ent0008" data-link-type="dependency" data-source-line="32" id="lnk12"><path codeLine="32" d="M198.5,182.11 C198.5,207.62 198.5,232.22 198.5,254.55" fill="none" id="ParallelQ-to-JobRoot" style="stroke:#181818;stroke-width:1;stroke-dasharray:7,7;"/><polygon fill="#181818" points="198.5,260.55,202.5,251.55,198.5,255.55,194.5,251.55,198.5,260.55" style="stroke:#181818;stroke-width:1;"/><text fill="#000000" font-family="sans-serif" font-size="13" lengthAdjust="spacing" textLength="47.6772" x="150.5" y="217.8251">Create()</text></g><!--link ParallelQ to IJobRoot--><g class="link" data-entity-1="ent0009" data-entity-2="ent0003" data-link-type="dependency" data-source-line="33" id="lnk13"><path codeLine="33" d="M297.09,134 C419.18,134 613,134 613,134 C613,134 613,219.85 613,263.27" fill="none" id="ParallelQ-to-IJobRoot" style="stroke:#181818;stroke-width:1;stroke-dasharray:7,7;"/><polygon fill="#181818" points="613,269.27,617,260.27,613,264.27,609,260.27,613,269.27" style="stroke:#181818;stroke-width:1;"/><text fill="#000000" font-family="sans-serif" font-size="13" lengthAdjust="spacing" textLength="105.5171" x="416.68" y="130.4951">Enqueue(jobRoot)</text></g><?plantuml-src fO_BJiCm44Nt_efHLrIe4UkgYbHLHGeh2lp0n9cqfguds1FnxB-Jf4cQG5cnzDmxddE42n26b4Nu09dnfCMmKs5lN84U3s2D8tal2DZBZWT1s676hyPj8KSRQ91eYo4iHRn9Iw54itiq7mGtQcSo0csyjgHKWNgFMuB9Ks4t9PKKBTCW7Xk0C875Olqcv1tQE8PF1M1SzSnH4oHtd3umYnfFxwlhrfBTD7M0wxLxgJ--Yg9e2lD1OHJVcfmlLexgU0bpnPucpGbiWK_6iEa4QgxJg0NjW5QUK7gUpgA-r6_yaXZl_E7mByNpoTdiAnved8CegeB1vZ29UyivjB3J7uNatEY0dq-JwJS0?></g></svg>